%TF.GenerationSoftware,KiCad,Pcbnew,9.0.7*%
%TF.CreationDate,2026-03-08T15:58:10-07:00*%
%TF.ProjectId,dell_psu_spoofer,64656c6c-5f70-4737-955f-73706f6f6665,1.1*%
%TF.SameCoordinates,Original*%
%TF.FileFunction,Legend,Top*%
%TF.FilePolarity,Positive*%
%FSLAX46Y46*%
G04 Gerber Fmt 4.6, Leading zero omitted, Abs format (unit mm)*
G04 Created by KiCad (PCBNEW 9.0.7) date 2026-03-08 15:58:10*
%MOMM*%
%LPD*%
G01*
G04 APERTURE LIST*
G04 Aperture macros list*
%AMRoundRect*
0 Rectangle with rounded corners*
0 $1 Rounding radius*
0 $2 $3 $4 $5 $6 $7 $8 $9 X,Y pos of 4 corners*
0 Add a 4 corners polygon primitive as box body*
4,1,4,$2,$3,$4,$5,$6,$7,$8,$9,$2,$3,0*
0 Add four circle primitives for the rounded corners*
1,1,$1+$1,$2,$3*
1,1,$1+$1,$4,$5*
1,1,$1+$1,$6,$7*
1,1,$1+$1,$8,$9*
0 Add four rect primitives between the rounded corners*
20,1,$1+$1,$2,$3,$4,$5,0*
20,1,$1+$1,$4,$5,$6,$7,0*
20,1,$1+$1,$6,$7,$8,$9,0*
20,1,$1+$1,$8,$9,$2,$3,0*%
G04 Aperture macros list end*
%ADD10C,0.095250*%
%ADD11C,0.150000*%
%ADD12C,0.100000*%
%ADD13C,0.187500*%
%ADD14C,0.120000*%
%ADD15C,0.152400*%
%ADD16C,3.500000*%
%ADD17C,1.600000*%
%ADD18RoundRect,0.250000X-0.550000X0.550000X-0.550000X-0.550000X0.550000X-0.550000X0.550000X0.550000X0*%
%ADD19R,1.050000X1.500000*%
%ADD20O,1.050000X1.500000*%
%ADD21RoundRect,0.250000X-0.550000X-0.550000X0.550000X-0.550000X0.550000X0.550000X-0.550000X0.550000X0*%
%ADD22RoundRect,0.249999X-0.850001X0.850001X-0.850001X-0.850001X0.850001X-0.850001X0.850001X0.850001X0*%
%ADD23C,2.200000*%
%ADD24C,1.574800*%
%ADD25R,1.800000X1.800000*%
%ADD26C,1.800000*%
%ADD27C,1.778800*%
G04 APERTURE END LIST*
D10*
X168504029Y-94555332D02*
X169084601Y-94555332D01*
X168794315Y-94936285D02*
X168794315Y-94174380D01*
X155217205Y-92629736D02*
X155217205Y-91867736D01*
X155217205Y-91867736D02*
X155507491Y-91867736D01*
X155507491Y-91867736D02*
X155580062Y-91904022D01*
X155580062Y-91904022D02*
X155616348Y-91940308D01*
X155616348Y-91940308D02*
X155652634Y-92012879D01*
X155652634Y-92012879D02*
X155652634Y-92121736D01*
X155652634Y-92121736D02*
X155616348Y-92194308D01*
X155616348Y-92194308D02*
X155580062Y-92230593D01*
X155580062Y-92230593D02*
X155507491Y-92266879D01*
X155507491Y-92266879D02*
X155217205Y-92266879D01*
X156233205Y-92230593D02*
X156342062Y-92266879D01*
X156342062Y-92266879D02*
X156378348Y-92303165D01*
X156378348Y-92303165D02*
X156414634Y-92375736D01*
X156414634Y-92375736D02*
X156414634Y-92484593D01*
X156414634Y-92484593D02*
X156378348Y-92557165D01*
X156378348Y-92557165D02*
X156342062Y-92593451D01*
X156342062Y-92593451D02*
X156269491Y-92629736D01*
X156269491Y-92629736D02*
X155979205Y-92629736D01*
X155979205Y-92629736D02*
X155979205Y-91867736D01*
X155979205Y-91867736D02*
X156233205Y-91867736D01*
X156233205Y-91867736D02*
X156305777Y-91904022D01*
X156305777Y-91904022D02*
X156342062Y-91940308D01*
X156342062Y-91940308D02*
X156378348Y-92012879D01*
X156378348Y-92012879D02*
X156378348Y-92085451D01*
X156378348Y-92085451D02*
X156342062Y-92158022D01*
X156342062Y-92158022D02*
X156305777Y-92194308D01*
X156305777Y-92194308D02*
X156233205Y-92230593D01*
X156233205Y-92230593D02*
X155979205Y-92230593D01*
X157140348Y-92629736D02*
X156704919Y-92629736D01*
X156922634Y-92629736D02*
X156922634Y-91867736D01*
X156922634Y-91867736D02*
X156850062Y-91976593D01*
X156850062Y-91976593D02*
X156777491Y-92049165D01*
X156777491Y-92049165D02*
X156704919Y-92085451D01*
D11*
X155550368Y-100747763D02*
X155645606Y-100747763D01*
X155645606Y-100747763D02*
X155740844Y-100795382D01*
X155740844Y-100795382D02*
X155788463Y-100843001D01*
X155788463Y-100843001D02*
X155836082Y-100938239D01*
X155836082Y-100938239D02*
X155883701Y-101128715D01*
X155883701Y-101128715D02*
X155883701Y-101366810D01*
X155883701Y-101366810D02*
X155836082Y-101557286D01*
X155836082Y-101557286D02*
X155788463Y-101652524D01*
X155788463Y-101652524D02*
X155740844Y-101700144D01*
X155740844Y-101700144D02*
X155645606Y-101747763D01*
X155645606Y-101747763D02*
X155550368Y-101747763D01*
X155550368Y-101747763D02*
X155455130Y-101700144D01*
X155455130Y-101700144D02*
X155407511Y-101652524D01*
X155407511Y-101652524D02*
X155359892Y-101557286D01*
X155359892Y-101557286D02*
X155312273Y-101366810D01*
X155312273Y-101366810D02*
X155312273Y-101128715D01*
X155312273Y-101128715D02*
X155359892Y-100938239D01*
X155359892Y-100938239D02*
X155407511Y-100843001D01*
X155407511Y-100843001D02*
X155455130Y-100795382D01*
X155455130Y-100795382D02*
X155550368Y-100747763D01*
D12*
X178801083Y-101923052D02*
X178801083Y-100923052D01*
X179277273Y-101923052D02*
X179277273Y-100923052D01*
X179277273Y-100923052D02*
X179848701Y-101923052D01*
X179848701Y-101923052D02*
X179848701Y-100923052D01*
X180324892Y-101923052D02*
X180324892Y-100923052D01*
X180324892Y-100923052D02*
X180896320Y-101923052D01*
X180896320Y-101923052D02*
X180896320Y-100923052D01*
X181372511Y-101399242D02*
X181705844Y-101399242D01*
X181848701Y-101923052D02*
X181372511Y-101923052D01*
X181372511Y-101923052D02*
X181372511Y-100923052D01*
X181372511Y-100923052D02*
X181848701Y-100923052D01*
X182848701Y-101923052D02*
X182515368Y-101446861D01*
X182277273Y-101923052D02*
X182277273Y-100923052D01*
X182277273Y-100923052D02*
X182658225Y-100923052D01*
X182658225Y-100923052D02*
X182753463Y-100970671D01*
X182753463Y-100970671D02*
X182801082Y-101018290D01*
X182801082Y-101018290D02*
X182848701Y-101113528D01*
X182848701Y-101113528D02*
X182848701Y-101256385D01*
X182848701Y-101256385D02*
X182801082Y-101351623D01*
X182801082Y-101351623D02*
X182753463Y-101399242D01*
X182753463Y-101399242D02*
X182658225Y-101446861D01*
X182658225Y-101446861D02*
X182277273Y-101446861D01*
X184372511Y-101399242D02*
X184515368Y-101446861D01*
X184515368Y-101446861D02*
X184562987Y-101494480D01*
X184562987Y-101494480D02*
X184610606Y-101589718D01*
X184610606Y-101589718D02*
X184610606Y-101732575D01*
X184610606Y-101732575D02*
X184562987Y-101827813D01*
X184562987Y-101827813D02*
X184515368Y-101875433D01*
X184515368Y-101875433D02*
X184420130Y-101923052D01*
X184420130Y-101923052D02*
X184039178Y-101923052D01*
X184039178Y-101923052D02*
X184039178Y-100923052D01*
X184039178Y-100923052D02*
X184372511Y-100923052D01*
X184372511Y-100923052D02*
X184467749Y-100970671D01*
X184467749Y-100970671D02*
X184515368Y-101018290D01*
X184515368Y-101018290D02*
X184562987Y-101113528D01*
X184562987Y-101113528D02*
X184562987Y-101208766D01*
X184562987Y-101208766D02*
X184515368Y-101304004D01*
X184515368Y-101304004D02*
X184467749Y-101351623D01*
X184467749Y-101351623D02*
X184372511Y-101399242D01*
X184372511Y-101399242D02*
X184039178Y-101399242D01*
X184991559Y-101637337D02*
X185467749Y-101637337D01*
X184896321Y-101923052D02*
X185229654Y-100923052D01*
X185229654Y-100923052D02*
X185562987Y-101923052D01*
X186467749Y-101923052D02*
X186134416Y-101446861D01*
X185896321Y-101923052D02*
X185896321Y-100923052D01*
X185896321Y-100923052D02*
X186277273Y-100923052D01*
X186277273Y-100923052D02*
X186372511Y-100970671D01*
X186372511Y-100970671D02*
X186420130Y-101018290D01*
X186420130Y-101018290D02*
X186467749Y-101113528D01*
X186467749Y-101113528D02*
X186467749Y-101256385D01*
X186467749Y-101256385D02*
X186420130Y-101351623D01*
X186420130Y-101351623D02*
X186372511Y-101399242D01*
X186372511Y-101399242D02*
X186277273Y-101446861D01*
X186277273Y-101446861D02*
X185896321Y-101446861D01*
X187467749Y-101923052D02*
X187134416Y-101446861D01*
X186896321Y-101923052D02*
X186896321Y-100923052D01*
X186896321Y-100923052D02*
X187277273Y-100923052D01*
X187277273Y-100923052D02*
X187372511Y-100970671D01*
X187372511Y-100970671D02*
X187420130Y-101018290D01*
X187420130Y-101018290D02*
X187467749Y-101113528D01*
X187467749Y-101113528D02*
X187467749Y-101256385D01*
X187467749Y-101256385D02*
X187420130Y-101351623D01*
X187420130Y-101351623D02*
X187372511Y-101399242D01*
X187372511Y-101399242D02*
X187277273Y-101446861D01*
X187277273Y-101446861D02*
X186896321Y-101446861D01*
X187896321Y-101399242D02*
X188229654Y-101399242D01*
X188372511Y-101923052D02*
X187896321Y-101923052D01*
X187896321Y-101923052D02*
X187896321Y-100923052D01*
X187896321Y-100923052D02*
X188372511Y-100923052D01*
X189277273Y-101923052D02*
X188801083Y-101923052D01*
X188801083Y-101923052D02*
X188801083Y-100923052D01*
X174150806Y-107350363D02*
X173579378Y-107350363D01*
X173865092Y-107350363D02*
X173865092Y-106350363D01*
X173865092Y-106350363D02*
X173769854Y-106493220D01*
X173769854Y-106493220D02*
X173674616Y-106588458D01*
X173674616Y-106588458D02*
X173579378Y-106636077D01*
X134800806Y-85400363D02*
X134229378Y-85400363D01*
X134515092Y-85400363D02*
X134515092Y-84400363D01*
X134515092Y-84400363D02*
X134419854Y-84543220D01*
X134419854Y-84543220D02*
X134324616Y-84638458D01*
X134324616Y-84638458D02*
X134229378Y-84686077D01*
G36*
X113560350Y-118759238D02*
G01*
X113697135Y-118779676D01*
X113808204Y-118814049D01*
X113905550Y-118862030D01*
X113990959Y-118923535D01*
X114086838Y-119020300D01*
X114165650Y-119133954D01*
X114227874Y-119266696D01*
X114270519Y-119408085D01*
X114297209Y-119566442D01*
X114306521Y-119744191D01*
X114300137Y-119896274D01*
X114281944Y-120030845D01*
X114253153Y-120149878D01*
X114190083Y-120316208D01*
X114116500Y-120442359D01*
X114027221Y-120547840D01*
X113934172Y-120624564D01*
X113827738Y-120681755D01*
X113695059Y-120725315D01*
X113549543Y-120750433D01*
X113373391Y-120759509D01*
X112650676Y-120759509D01*
X112650676Y-120526989D01*
X112915680Y-120526989D01*
X113343349Y-120526989D01*
X113530517Y-120516408D01*
X113654148Y-120489864D01*
X113757936Y-120443565D01*
X113833789Y-120385084D01*
X113889999Y-120317282D01*
X113939088Y-120232966D01*
X113980578Y-120129362D01*
X114008591Y-120021050D01*
X114026717Y-119892344D01*
X114033213Y-119740039D01*
X114025448Y-119577164D01*
X114004133Y-119444851D01*
X113971747Y-119338196D01*
X113930020Y-119252896D01*
X113852987Y-119148114D01*
X113769749Y-119073649D01*
X113679427Y-119024774D01*
X113606212Y-119004148D01*
X113495823Y-118989223D01*
X113336510Y-118983375D01*
X112915680Y-118983375D01*
X112915680Y-120526989D01*
X112650676Y-120526989D01*
X112650676Y-118750855D01*
X113340540Y-118750855D01*
X113560350Y-118759238D01*
G37*
G36*
X115377362Y-119287512D02*
G01*
X115501861Y-119324973D01*
X115612169Y-119386187D01*
X115710673Y-119472593D01*
X115788195Y-119576182D01*
X115845592Y-119700578D01*
X115882137Y-119849945D01*
X115895198Y-120029589D01*
X115893733Y-120095168D01*
X114811737Y-120095168D01*
X114826723Y-120214174D01*
X114855118Y-120312330D01*
X114895360Y-120393125D01*
X114946925Y-120459334D01*
X115034678Y-120529479D01*
X115134492Y-120571233D01*
X115250275Y-120585608D01*
X115338162Y-120577385D01*
X115414374Y-120553771D01*
X115481207Y-120515266D01*
X115537664Y-120462395D01*
X115588369Y-120389031D01*
X115632881Y-120290562D01*
X115887016Y-120321947D01*
X115833928Y-120462584D01*
X115759802Y-120576476D01*
X115664267Y-120667795D01*
X115580536Y-120720000D01*
X115484865Y-120758310D01*
X115375177Y-120782333D01*
X115248932Y-120790772D01*
X115091999Y-120777469D01*
X114958185Y-120739666D01*
X114843243Y-120678956D01*
X114744082Y-120594767D01*
X114665521Y-120491940D01*
X114607551Y-120368912D01*
X114570737Y-120221652D01*
X114557602Y-120044976D01*
X114568889Y-119890004D01*
X114825414Y-119890004D01*
X115635568Y-119890004D01*
X115616023Y-119772057D01*
X115584285Y-119684092D01*
X115542634Y-119619627D01*
X115479039Y-119558014D01*
X115408206Y-119514887D01*
X115328617Y-119488720D01*
X115237941Y-119479676D01*
X115129547Y-119492456D01*
X115035771Y-119529516D01*
X114953153Y-119591417D01*
X114888828Y-119672259D01*
X114846082Y-119770340D01*
X114825414Y-119890004D01*
X114568889Y-119890004D01*
X114570941Y-119861822D01*
X114608271Y-119709469D01*
X114666919Y-119582521D01*
X114746158Y-119476745D01*
X114846836Y-119388687D01*
X114960058Y-119326174D01*
X115088336Y-119287838D01*
X115235254Y-119274512D01*
X115377362Y-119287512D01*
G37*
G36*
X116189511Y-120759509D02*
G01*
X116189511Y-118750855D01*
X116435341Y-118750855D01*
X116435341Y-120759509D01*
X116189511Y-120759509D01*
G37*
G36*
X116810865Y-120759509D02*
G01*
X116810865Y-118750855D01*
X117056695Y-118750855D01*
X117056695Y-120759509D01*
X116810865Y-120759509D01*
G37*
G36*
X117253188Y-120790772D02*
G01*
X117833876Y-118719592D01*
X118030613Y-118719592D01*
X117451269Y-120790772D01*
X117253188Y-120790772D01*
G37*
G36*
X119901269Y-120759509D02*
G01*
X119599263Y-120759509D01*
X119365645Y-120149878D01*
X118528136Y-120149878D01*
X118308195Y-120759509D01*
X118026705Y-120759509D01*
X118343980Y-119931037D01*
X118604706Y-119931037D01*
X119283701Y-119931037D01*
X119074629Y-119376483D01*
X118987271Y-119134489D01*
X118932602Y-118961271D01*
X118886695Y-119152499D01*
X118824647Y-119343755D01*
X118604706Y-119931037D01*
X118343980Y-119931037D01*
X118795948Y-118750855D01*
X119081468Y-118750855D01*
X119901269Y-120759509D01*
G37*
G36*
X120075903Y-120759509D02*
G01*
X120075903Y-118750855D01*
X120321733Y-118750855D01*
X120321733Y-120759509D01*
X120075903Y-120759509D01*
G37*
G36*
X120704096Y-119032223D02*
G01*
X120704096Y-118750855D01*
X120949926Y-118750855D01*
X120949926Y-119032223D01*
X120704096Y-119032223D01*
G37*
G36*
X120704096Y-120759509D02*
G01*
X120704096Y-119305775D01*
X120949926Y-119305775D01*
X120949926Y-120759509D01*
X120704096Y-120759509D01*
G37*
G36*
X122061800Y-119287512D02*
G01*
X122186299Y-119324973D01*
X122296607Y-119386187D01*
X122395111Y-119472593D01*
X122472633Y-119576182D01*
X122530030Y-119700578D01*
X122566575Y-119849945D01*
X122579636Y-120029589D01*
X122578171Y-120095168D01*
X121496175Y-120095168D01*
X121511161Y-120214174D01*
X121539557Y-120312330D01*
X121579798Y-120393125D01*
X121631364Y-120459334D01*
X121719117Y-120529479D01*
X121818930Y-120571233D01*
X121934713Y-120585608D01*
X122022600Y-120577385D01*
X122098812Y-120553771D01*
X122165645Y-120515266D01*
X122222102Y-120462395D01*
X122272807Y-120389031D01*
X122317320Y-120290562D01*
X122571454Y-120321947D01*
X122518366Y-120462584D01*
X122444240Y-120576476D01*
X122348705Y-120667795D01*
X122264974Y-120720000D01*
X122169303Y-120758310D01*
X122059615Y-120782333D01*
X121933370Y-120790772D01*
X121776437Y-120777469D01*
X121642623Y-120739666D01*
X121527681Y-120678956D01*
X121428520Y-120594767D01*
X121349960Y-120491940D01*
X121291989Y-120368912D01*
X121255175Y-120221652D01*
X121242040Y-120044976D01*
X121253327Y-119890004D01*
X121509853Y-119890004D01*
X122320006Y-119890004D01*
X122300461Y-119772057D01*
X122268723Y-119684092D01*
X122227072Y-119619627D01*
X122163478Y-119558014D01*
X122092644Y-119514887D01*
X122013055Y-119488720D01*
X121922379Y-119479676D01*
X121813986Y-119492456D01*
X121720209Y-119529516D01*
X121637592Y-119591417D01*
X121573266Y-119672259D01*
X121530520Y-119770340D01*
X121509853Y-119890004D01*
X121253327Y-119890004D01*
X121255379Y-119861822D01*
X121292709Y-119709469D01*
X121351357Y-119582521D01*
X121430596Y-119476745D01*
X121531275Y-119388687D01*
X121644497Y-119326174D01*
X121772775Y-119287838D01*
X121919692Y-119274512D01*
X122061800Y-119287512D01*
G37*
G36*
X122879322Y-120759509D02*
G01*
X122879322Y-119305775D01*
X123100729Y-119305775D01*
X123100729Y-119511428D01*
X123170961Y-119425526D01*
X123250666Y-119360244D01*
X123340980Y-119313474D01*
X123443972Y-119284592D01*
X123562470Y-119274512D01*
X123689673Y-119286595D01*
X123803537Y-119321773D01*
X123902227Y-119378180D01*
X123968157Y-119445482D01*
X124014021Y-119527730D01*
X124044727Y-119627321D01*
X124054193Y-119708498D01*
X124058405Y-119866557D01*
X124058405Y-120759509D01*
X123812452Y-120759509D01*
X123812452Y-119874617D01*
X123804029Y-119733661D01*
X123783754Y-119649303D01*
X123744465Y-119582643D01*
X123682026Y-119530112D01*
X123604060Y-119497068D01*
X123510568Y-119485538D01*
X123409552Y-119496892D01*
X123320063Y-119530044D01*
X123239336Y-119585555D01*
X123194308Y-119638814D01*
X123158744Y-119714914D01*
X123134475Y-119820748D01*
X123125275Y-119964987D01*
X123125275Y-120759509D01*
X122879322Y-120759509D01*
G37*
G36*
X124702473Y-120759509D02*
G01*
X124258440Y-119305775D01*
X124512574Y-119305775D01*
X124743506Y-120145848D01*
X124829479Y-120457014D01*
X124904706Y-120159282D01*
X125135638Y-119305775D01*
X125388307Y-119305775D01*
X125605561Y-120149878D01*
X125677979Y-120426850D01*
X125761266Y-120147314D01*
X126010027Y-119305775D01*
X126249019Y-119305775D01*
X125795460Y-120759509D01*
X125539982Y-120759509D01*
X125309050Y-119888661D01*
X125253119Y-119641121D01*
X124959294Y-120759509D01*
X124702473Y-120759509D01*
G37*
G36*
X127244924Y-119286673D02*
G01*
X127370460Y-119318354D01*
X127475279Y-119370380D01*
X127541186Y-119428385D01*
X127586789Y-119501456D01*
X127617756Y-119595813D01*
X127626258Y-119671326D01*
X127630090Y-119822837D01*
X127630090Y-120150977D01*
X127635312Y-120463515D01*
X127645722Y-120585241D01*
X127669009Y-120673875D01*
X127707881Y-120759509D01*
X127451060Y-120759509D01*
X127420234Y-120677912D01*
X127401845Y-120578891D01*
X127263021Y-120680951D01*
X127138918Y-120742900D01*
X127009052Y-120778601D01*
X126867686Y-120790772D01*
X126747530Y-120782387D01*
X126648570Y-120759051D01*
X126567083Y-120722660D01*
X126500100Y-120673901D01*
X126443855Y-120611277D01*
X126404228Y-120541693D01*
X126380096Y-120463702D01*
X126371751Y-120375192D01*
X126372497Y-120368964D01*
X126634068Y-120368964D01*
X126642424Y-120431424D01*
X126666863Y-120485527D01*
X126708440Y-120533462D01*
X126761947Y-120568272D01*
X126832890Y-120590921D01*
X126926426Y-120599285D01*
X127019533Y-120592057D01*
X127103260Y-120571100D01*
X127179218Y-120536881D01*
X127247223Y-120489517D01*
X127300915Y-120432901D01*
X127341761Y-120366155D01*
X127369886Y-120271811D01*
X127381329Y-120119226D01*
X127381329Y-120028734D01*
X127229913Y-120075873D01*
X126979671Y-120122279D01*
X126839644Y-120148155D01*
X126765226Y-120171738D01*
X126708982Y-120205879D01*
X126668140Y-120251850D01*
X126642637Y-120307329D01*
X126634068Y-120368964D01*
X126372497Y-120368964D01*
X126384045Y-120272498D01*
X126420233Y-120180409D01*
X126476684Y-120100459D01*
X126547239Y-120038992D01*
X126630038Y-119992477D01*
X126724193Y-119958270D01*
X126942791Y-119921389D01*
X127220362Y-119878975D01*
X127381329Y-119837248D01*
X127382794Y-119773378D01*
X127373538Y-119676105D01*
X127349313Y-119608510D01*
X127313063Y-119562596D01*
X127245308Y-119518916D01*
X127154303Y-119490302D01*
X127033038Y-119479676D01*
X126918319Y-119487899D01*
X126835466Y-119509501D01*
X126776828Y-119541225D01*
X126729912Y-119588229D01*
X126688791Y-119658532D01*
X126654584Y-119759090D01*
X126414127Y-119726361D01*
X126442168Y-119624571D01*
X126478397Y-119541470D01*
X126521960Y-119474181D01*
X126577375Y-119416913D01*
X126648833Y-119367591D01*
X126739214Y-119326414D01*
X126888175Y-119288200D01*
X127068576Y-119274512D01*
X127244924Y-119286673D01*
G37*
G36*
X128007689Y-120759509D02*
G01*
X128007689Y-119305775D01*
X128228973Y-119305775D01*
X128228973Y-119525227D01*
X128317724Y-119389006D01*
X128385411Y-119323361D01*
X128460859Y-119286693D01*
X128543192Y-119274512D01*
X128624139Y-119282760D01*
X128707895Y-119308309D01*
X128795983Y-119353280D01*
X128711353Y-119579938D01*
X128619428Y-119539412D01*
X128530980Y-119526571D01*
X128454465Y-119538724D01*
X128386144Y-119575175D01*
X128331805Y-119632221D01*
X128294553Y-119710119D01*
X128264191Y-119845572D01*
X128253642Y-119997837D01*
X128253642Y-120759509D01*
X128007689Y-120759509D01*
G37*
G36*
X129680223Y-119287512D02*
G01*
X129804722Y-119324973D01*
X129915030Y-119386187D01*
X130013534Y-119472593D01*
X130091056Y-119576182D01*
X130148453Y-119700578D01*
X130184998Y-119849945D01*
X130198059Y-120029589D01*
X130196594Y-120095168D01*
X129114598Y-120095168D01*
X129129584Y-120214174D01*
X129157979Y-120312330D01*
X129198221Y-120393125D01*
X129249786Y-120459334D01*
X129337539Y-120529479D01*
X129437353Y-120571233D01*
X129553136Y-120585608D01*
X129641023Y-120577385D01*
X129717235Y-120553771D01*
X129784068Y-120515266D01*
X129840525Y-120462395D01*
X129891230Y-120389031D01*
X129935742Y-120290562D01*
X130189877Y-120321947D01*
X130136789Y-120462584D01*
X130062663Y-120576476D01*
X129967128Y-120667795D01*
X129883397Y-120720000D01*
X129787726Y-120758310D01*
X129678038Y-120782333D01*
X129551793Y-120790772D01*
X129394860Y-120777469D01*
X129261046Y-120739666D01*
X129146104Y-120678956D01*
X129046943Y-120594767D01*
X128968382Y-120491940D01*
X128910412Y-120368912D01*
X128873598Y-120221652D01*
X128860463Y-120044976D01*
X128871750Y-119890004D01*
X129128276Y-119890004D01*
X129938429Y-119890004D01*
X129918884Y-119772057D01*
X129887146Y-119684092D01*
X129845495Y-119619627D01*
X129781900Y-119558014D01*
X129711067Y-119514887D01*
X129631478Y-119488720D01*
X129540802Y-119479676D01*
X129432408Y-119492456D01*
X129338632Y-119529516D01*
X129256015Y-119591417D01*
X129191689Y-119672259D01*
X129148943Y-119770340D01*
X129128276Y-119890004D01*
X128871750Y-119890004D01*
X128873802Y-119861822D01*
X128911132Y-119709469D01*
X128969780Y-119582521D01*
X129049019Y-119476745D01*
X129149698Y-119388687D01*
X129262919Y-119326174D01*
X129391198Y-119287838D01*
X129538115Y-119274512D01*
X129680223Y-119287512D01*
G37*
G36*
X132250091Y-118756393D02*
G01*
X132367058Y-118769906D01*
X132505915Y-118806782D01*
X132614354Y-118863329D01*
X132675415Y-118914265D01*
X132728833Y-118978009D01*
X132774821Y-119056281D01*
X132808333Y-119140763D01*
X132828691Y-119231214D01*
X132835638Y-119328856D01*
X132825064Y-119453826D01*
X132794369Y-119565917D01*
X132744029Y-119667525D01*
X132673094Y-119760433D01*
X132606756Y-119817776D01*
X132519880Y-119865574D01*
X132407959Y-119902941D01*
X132265393Y-119927769D01*
X132085690Y-119936899D01*
X131571925Y-119936899D01*
X131571925Y-120759509D01*
X131306922Y-120759509D01*
X131306922Y-119704379D01*
X131571925Y-119704379D01*
X132089720Y-119704379D01*
X132222306Y-119696780D01*
X132323202Y-119676458D01*
X132398823Y-119646346D01*
X132454497Y-119608148D01*
X132513204Y-119537339D01*
X132549485Y-119448755D01*
X132562452Y-119337038D01*
X132555014Y-119254632D01*
X132533668Y-119183068D01*
X132498949Y-119120273D01*
X132451713Y-119066617D01*
X132396352Y-119027319D01*
X132331521Y-119001204D01*
X132250501Y-118988952D01*
X132084225Y-118983375D01*
X131571925Y-118983375D01*
X131571925Y-119704379D01*
X131306922Y-119704379D01*
X131306922Y-118750855D01*
X132062365Y-118750855D01*
X132250091Y-118756393D01*
G37*
G36*
X133082689Y-120109334D02*
G01*
X133332794Y-120087352D01*
X133350928Y-120187750D01*
X133378811Y-120270641D01*
X133415348Y-120338800D01*
X133464410Y-120397950D01*
X133530524Y-120450919D01*
X133616849Y-120497680D01*
X133709736Y-120530779D01*
X133811739Y-120551200D01*
X133924350Y-120558252D01*
X134070444Y-120546385D01*
X134192040Y-120513067D01*
X134265783Y-120477484D01*
X134322458Y-120436113D01*
X134364842Y-120389114D01*
X134407582Y-120306196D01*
X134421629Y-120217045D01*
X134407751Y-120127937D01*
X134366918Y-120052059D01*
X134299375Y-119990338D01*
X134186667Y-119933479D01*
X134081490Y-119900001D01*
X133830073Y-119835538D01*
X133576020Y-119764553D01*
X133443436Y-119710119D01*
X133352956Y-119653680D01*
X133282610Y-119591405D01*
X133229602Y-119523151D01*
X133190679Y-119446167D01*
X133167244Y-119363364D01*
X133159260Y-119273169D01*
X133168758Y-119174226D01*
X133197132Y-119080006D01*
X133245233Y-118988870D01*
X133310110Y-118909095D01*
X133393000Y-118842322D01*
X133496681Y-118788102D01*
X133608807Y-118750612D01*
X133730822Y-118727535D01*
X133864267Y-118719592D01*
X134011337Y-118728104D01*
X134141488Y-118752465D01*
X134257009Y-118791400D01*
X134363616Y-118847980D01*
X134449956Y-118918125D01*
X134518593Y-119002425D01*
X134569956Y-119098677D01*
X134602765Y-119203185D01*
X134617023Y-119317865D01*
X134362888Y-119337038D01*
X134336757Y-119215754D01*
X134290208Y-119121779D01*
X134224158Y-119049442D01*
X134139857Y-118998345D01*
X134026402Y-118964656D01*
X133875135Y-118952111D01*
X133716399Y-118963955D01*
X133603360Y-118994921D01*
X133524647Y-119040283D01*
X133462156Y-119105069D01*
X133426604Y-119175034D01*
X133414738Y-119252896D01*
X133423607Y-119321392D01*
X133449328Y-119379788D01*
X133492651Y-119430583D01*
X133551301Y-119468183D01*
X133673104Y-119515463D01*
X133892232Y-119573465D01*
X134188970Y-119649117D01*
X134335533Y-119701204D01*
X134446386Y-119762747D01*
X134531067Y-119830914D01*
X134593698Y-119905636D01*
X134639673Y-119991401D01*
X134667536Y-120085693D01*
X134677107Y-120190667D01*
X134667045Y-120294689D01*
X134636873Y-120394628D01*
X134585516Y-120492185D01*
X134516898Y-120578210D01*
X134430105Y-120651393D01*
X134322588Y-120712248D01*
X134205915Y-120755186D01*
X134077882Y-120781641D01*
X133936562Y-120790772D01*
X133756335Y-120780934D01*
X133605998Y-120753551D01*
X133480927Y-120711148D01*
X133366141Y-120648302D01*
X133270799Y-120568749D01*
X133192721Y-120471424D01*
X133134338Y-120360772D01*
X133097664Y-120240825D01*
X133082689Y-120109334D01*
G37*
G36*
X136353223Y-118750855D02*
G01*
X136618227Y-118750855D01*
X136618227Y-119909666D01*
X136609330Y-120111762D01*
X136585402Y-120269173D01*
X136549961Y-120389969D01*
X136493117Y-120499813D01*
X136411962Y-120595751D01*
X136303398Y-120679275D01*
X136179616Y-120738599D01*
X136025940Y-120776897D01*
X135835428Y-120790772D01*
X135649573Y-120778689D01*
X135498085Y-120745286D01*
X135374909Y-120693685D01*
X135266255Y-120618575D01*
X135181897Y-120525551D01*
X135119431Y-120412439D01*
X135079784Y-120287117D01*
X135052976Y-120122535D01*
X135042983Y-119909666D01*
X135042983Y-118750855D01*
X135308108Y-118750855D01*
X135308108Y-119912719D01*
X135314860Y-120089289D01*
X135332250Y-120214216D01*
X135356590Y-120299355D01*
X135396702Y-120375980D01*
X135451706Y-120439344D01*
X135523164Y-120490963D01*
X135604572Y-120527260D01*
X135699984Y-120550149D01*
X135812225Y-120558252D01*
X135961045Y-120548068D01*
X136075675Y-120520565D01*
X136163120Y-120479074D01*
X136228904Y-120425018D01*
X136276686Y-120356226D01*
X136315664Y-120255157D01*
X136342818Y-120111472D01*
X136353223Y-119912719D01*
X136353223Y-118750855D01*
G37*
G36*
X137746751Y-120109334D02*
G01*
X137996856Y-120087352D01*
X138014990Y-120187750D01*
X138042872Y-120270641D01*
X138079410Y-120338800D01*
X138128471Y-120397950D01*
X138194585Y-120450919D01*
X138280910Y-120497680D01*
X138373797Y-120530779D01*
X138475800Y-120551200D01*
X138588412Y-120558252D01*
X138734506Y-120546385D01*
X138856102Y-120513067D01*
X138929844Y-120477484D01*
X138986519Y-120436113D01*
X139028904Y-120389114D01*
X139071643Y-120306196D01*
X139085690Y-120217045D01*
X139071812Y-120127937D01*
X139030980Y-120052059D01*
X138963436Y-119990338D01*
X138850729Y-119933479D01*
X138745552Y-119900001D01*
X138494134Y-119835538D01*
X138240081Y-119764553D01*
X138107498Y-119710119D01*
X138017018Y-119653680D01*
X137946671Y-119591405D01*
X137893663Y-119523151D01*
X137854740Y-119446167D01*
X137831305Y-119363364D01*
X137823321Y-119273169D01*
X137832820Y-119174226D01*
X137861193Y-119080006D01*
X137909294Y-118988870D01*
X137974172Y-118909095D01*
X138057061Y-118842322D01*
X138160742Y-118788102D01*
X138272868Y-118750612D01*
X138394883Y-118727535D01*
X138528328Y-118719592D01*
X138675399Y-118728104D01*
X138805549Y-118752465D01*
X138921070Y-118791400D01*
X139027677Y-118847980D01*
X139114018Y-118918125D01*
X139182655Y-119002425D01*
X139234017Y-119098677D01*
X139266826Y-119203185D01*
X139281084Y-119317865D01*
X139026950Y-119337038D01*
X139000818Y-119215754D01*
X138954270Y-119121779D01*
X138888220Y-119049442D01*
X138803919Y-118998345D01*
X138690463Y-118964656D01*
X138539197Y-118952111D01*
X138380460Y-118963955D01*
X138267422Y-118994921D01*
X138188708Y-119040283D01*
X138126217Y-119105069D01*
X138090665Y-119175034D01*
X138078799Y-119252896D01*
X138087668Y-119321392D01*
X138113389Y-119379788D01*
X138156712Y-119430583D01*
X138215362Y-119468183D01*
X138337166Y-119515463D01*
X138556294Y-119573465D01*
X138853031Y-119649117D01*
X138999595Y-119701204D01*
X139110448Y-119762747D01*
X139195128Y-119830914D01*
X139257759Y-119905636D01*
X139303735Y-119991401D01*
X139331598Y-120085693D01*
X139341168Y-120190667D01*
X139331106Y-120294689D01*
X139300935Y-120394628D01*
X139249577Y-120492185D01*
X139180959Y-120578210D01*
X139094167Y-120651393D01*
X138986650Y-120712248D01*
X138869977Y-120755186D01*
X138741943Y-120781641D01*
X138600624Y-120790772D01*
X138420396Y-120780934D01*
X138270060Y-120753551D01*
X138144989Y-120711148D01*
X138030202Y-120648302D01*
X137934861Y-120568749D01*
X137856782Y-120471424D01*
X137798399Y-120360772D01*
X137761725Y-120240825D01*
X137746751Y-120109334D01*
G37*
G36*
X140437313Y-119285495D02*
G01*
X140545739Y-119317450D01*
X140644204Y-119370133D01*
X140730202Y-119441563D01*
X140801523Y-119530646D01*
X140858771Y-119639899D01*
X140898540Y-119757954D01*
X140922864Y-119884767D01*
X140931189Y-120021773D01*
X140921885Y-120168468D01*
X140894929Y-120301459D01*
X140851200Y-120422698D01*
X140788706Y-120533953D01*
X140711555Y-120624176D01*
X140618925Y-120695883D01*
X140514216Y-120749173D01*
X140408006Y-120780397D01*
X140298600Y-120790772D01*
X140180650Y-120777280D01*
X140078049Y-120738137D01*
X139988224Y-120677792D01*
X139917459Y-120605025D01*
X139917459Y-121314428D01*
X139671507Y-121314428D01*
X139671507Y-120038748D01*
X139894256Y-120038748D01*
X139902841Y-120181574D01*
X139926219Y-120294531D01*
X139961639Y-120383146D01*
X140007585Y-120452007D01*
X140090400Y-120527512D01*
X140180803Y-120570985D01*
X140282236Y-120585608D01*
X140360731Y-120577086D01*
X140432601Y-120551911D01*
X140499644Y-120509399D01*
X140562993Y-120447244D01*
X140610327Y-120375974D01*
X140646859Y-120284100D01*
X140670995Y-120166820D01*
X140679863Y-120018354D01*
X140671317Y-119877286D01*
X140647917Y-119764396D01*
X140612238Y-119674619D01*
X140565680Y-119603751D01*
X140482248Y-119525480D01*
X140392557Y-119480880D01*
X140293227Y-119465998D01*
X140218762Y-119474712D01*
X140148638Y-119500839D01*
X140081128Y-119545772D01*
X140015156Y-119612666D01*
X139965381Y-119688176D01*
X139927635Y-119781706D01*
X139903131Y-119897037D01*
X139894256Y-120038748D01*
X139671507Y-120038748D01*
X139671507Y-119305775D01*
X139895599Y-119305775D01*
X139895599Y-119494697D01*
X139981915Y-119396604D01*
X140074507Y-119329589D01*
X140143089Y-119299852D01*
X140222989Y-119281128D01*
X140316430Y-119274512D01*
X140437313Y-119285495D01*
G37*
G36*
X141962268Y-119287455D02*
G01*
X142090501Y-119324689D01*
X142203860Y-119385327D01*
X142304811Y-119470517D01*
X142385283Y-119573633D01*
X142444264Y-119695613D01*
X142481489Y-119840164D01*
X142494710Y-120012125D01*
X142483843Y-120198089D01*
X142454547Y-120342245D01*
X142410690Y-120452739D01*
X142346100Y-120551839D01*
X142265104Y-120634443D01*
X142166081Y-120701989D01*
X142056219Y-120751178D01*
X141940005Y-120780748D01*
X141815715Y-120790772D01*
X141666139Y-120777749D01*
X141536488Y-120740452D01*
X141423061Y-120680015D01*
X141323199Y-120595499D01*
X141244583Y-120492991D01*
X141186164Y-120368279D01*
X141148794Y-120216781D01*
X141135376Y-120032642D01*
X141135423Y-120031909D01*
X141388045Y-120031909D01*
X141397074Y-120172812D01*
X141421856Y-120285841D01*
X141459812Y-120376061D01*
X141509678Y-120447610D01*
X141575167Y-120508548D01*
X141646955Y-120551086D01*
X141726436Y-120576777D01*
X141815715Y-120585608D01*
X141904238Y-120576764D01*
X141983261Y-120550996D01*
X142054862Y-120508246D01*
X142120408Y-120446878D01*
X142170066Y-120375101D01*
X142208039Y-120283782D01*
X142232939Y-120168497D01*
X142242040Y-120023849D01*
X142233084Y-119888324D01*
X142208356Y-119778370D01*
X142170201Y-119689427D01*
X142119675Y-119617795D01*
X142053860Y-119556633D01*
X141982267Y-119514071D01*
X141903559Y-119488455D01*
X141815715Y-119479676D01*
X141726400Y-119488475D01*
X141646905Y-119514067D01*
X141575130Y-119556423D01*
X141509678Y-119617063D01*
X141459834Y-119688264D01*
X141421879Y-119778201D01*
X141397084Y-119891046D01*
X141388045Y-120031909D01*
X141135423Y-120031909D01*
X141145833Y-119868285D01*
X141175131Y-119730250D01*
X141220995Y-119614318D01*
X141282366Y-119517001D01*
X141359469Y-119435712D01*
X141457264Y-119365700D01*
X141564577Y-119315701D01*
X141683255Y-119285081D01*
X141815715Y-119274512D01*
X141962268Y-119287455D01*
G37*
G36*
X143517606Y-119287455D02*
G01*
X143645839Y-119324689D01*
X143759198Y-119385327D01*
X143860149Y-119470517D01*
X143940622Y-119573633D01*
X143999603Y-119695613D01*
X144036828Y-119840164D01*
X144050048Y-120012125D01*
X144039182Y-120198089D01*
X144009885Y-120342245D01*
X143966029Y-120452739D01*
X143901439Y-120551839D01*
X143820442Y-120634443D01*
X143721419Y-120701989D01*
X143611557Y-120751178D01*
X143495343Y-120780748D01*
X143371053Y-120790772D01*
X143221478Y-120777749D01*
X143091826Y-120740452D01*
X142978400Y-120680015D01*
X142878537Y-120595499D01*
X142799922Y-120492991D01*
X142741503Y-120368279D01*
X142704132Y-120216781D01*
X142690715Y-120032642D01*
X142690762Y-120031909D01*
X142943384Y-120031909D01*
X142952413Y-120172812D01*
X142977194Y-120285841D01*
X143015150Y-120376061D01*
X143065017Y-120447610D01*
X143130506Y-120508548D01*
X143202293Y-120551086D01*
X143281774Y-120576777D01*
X143371053Y-120585608D01*
X143459577Y-120576764D01*
X143538600Y-120550996D01*
X143610200Y-120508246D01*
X143675746Y-120446878D01*
X143725404Y-120375101D01*
X143763378Y-120283782D01*
X143788277Y-120168497D01*
X143797379Y-120023849D01*
X143788422Y-119888324D01*
X143763695Y-119778370D01*
X143725540Y-119689427D01*
X143675013Y-119617795D01*
X143609198Y-119556633D01*
X143537605Y-119514071D01*
X143458897Y-119488455D01*
X143371053Y-119479676D01*
X143281739Y-119488475D01*
X143202243Y-119514067D01*
X143130468Y-119556423D01*
X143065017Y-119617063D01*
X143015172Y-119688264D01*
X142977218Y-119778201D01*
X142952423Y-119891046D01*
X142943384Y-120031909D01*
X142690762Y-120031909D01*
X142701172Y-119868285D01*
X142730469Y-119730250D01*
X142776333Y-119614318D01*
X142837705Y-119517001D01*
X142914807Y-119435712D01*
X143012603Y-119365700D01*
X143119915Y-119315701D01*
X143238594Y-119285081D01*
X143371053Y-119274512D01*
X143517606Y-119287455D01*
G37*
G36*
X144396262Y-120759509D02*
G01*
X144396262Y-119497261D01*
X144179130Y-119497261D01*
X144179130Y-119305775D01*
X144396262Y-119305775D01*
X144396262Y-119151414D01*
X144403941Y-119014682D01*
X144422274Y-118934160D01*
X144451785Y-118874632D01*
X144493029Y-118823242D01*
X144547204Y-118779065D01*
X144609780Y-118747843D01*
X144691694Y-118727222D01*
X144798042Y-118719592D01*
X144904148Y-118725395D01*
X145027508Y-118744139D01*
X144990627Y-118957973D01*
X144845791Y-118944296D01*
X144772537Y-118950735D01*
X144721697Y-118967504D01*
X144687278Y-118992289D01*
X144663969Y-119027730D01*
X144647434Y-119084546D01*
X144640872Y-119171564D01*
X144640872Y-119305775D01*
X144923705Y-119305775D01*
X144923705Y-119497261D01*
X144640872Y-119497261D01*
X144640872Y-120759509D01*
X144396262Y-120759509D01*
G37*
G36*
X145853007Y-119287512D02*
G01*
X145977506Y-119324973D01*
X146087814Y-119386187D01*
X146186318Y-119472593D01*
X146263840Y-119576182D01*
X146321237Y-119700578D01*
X146357782Y-119849945D01*
X146370844Y-120029589D01*
X146369378Y-120095168D01*
X145287382Y-120095168D01*
X145302369Y-120214174D01*
X145330764Y-120312330D01*
X145371006Y-120393125D01*
X145422571Y-120459334D01*
X145510324Y-120529479D01*
X145610138Y-120571233D01*
X145725920Y-120585608D01*
X145813808Y-120577385D01*
X145890019Y-120553771D01*
X145956852Y-120515266D01*
X146013309Y-120462395D01*
X146064014Y-120389031D01*
X146108527Y-120290562D01*
X146362662Y-120321947D01*
X146309573Y-120462584D01*
X146235448Y-120576476D01*
X146139912Y-120667795D01*
X146056181Y-120720000D01*
X145960510Y-120758310D01*
X145850822Y-120782333D01*
X145724577Y-120790772D01*
X145567644Y-120777469D01*
X145433830Y-120739666D01*
X145318888Y-120678956D01*
X145219727Y-120594767D01*
X145141167Y-120491940D01*
X145083196Y-120368912D01*
X145046383Y-120221652D01*
X145033248Y-120044976D01*
X145044534Y-119890004D01*
X145301060Y-119890004D01*
X146111214Y-119890004D01*
X146091668Y-119772057D01*
X146059930Y-119684092D01*
X146018279Y-119619627D01*
X145954685Y-119558014D01*
X145883852Y-119514887D01*
X145804262Y-119488720D01*
X145713586Y-119479676D01*
X145605193Y-119492456D01*
X145511416Y-119529516D01*
X145428799Y-119591417D01*
X145364474Y-119672259D01*
X145321727Y-119770340D01*
X145301060Y-119890004D01*
X145044534Y-119890004D01*
X145046586Y-119861822D01*
X145083916Y-119709469D01*
X145142564Y-119582521D01*
X145221803Y-119476745D01*
X145322482Y-119388687D01*
X145435704Y-119326174D01*
X145563982Y-119287838D01*
X145710899Y-119274512D01*
X145853007Y-119287512D01*
G37*
G36*
X146667843Y-120759509D02*
G01*
X146667843Y-119305775D01*
X146889127Y-119305775D01*
X146889127Y-119525227D01*
X146977877Y-119389006D01*
X147045565Y-119323361D01*
X147121013Y-119286693D01*
X147203345Y-119274512D01*
X147284293Y-119282760D01*
X147368049Y-119308309D01*
X147456137Y-119353280D01*
X147371507Y-119579938D01*
X147279582Y-119539412D01*
X147191133Y-119526571D01*
X147114619Y-119538724D01*
X147046297Y-119575175D01*
X146991959Y-119632221D01*
X146954706Y-119710119D01*
X146924344Y-119845572D01*
X146913796Y-119997837D01*
X146913796Y-120759509D01*
X146667843Y-120759509D01*
G37*
G36*
X152758893Y-120759509D02*
G01*
X152758893Y-118983375D01*
X152098949Y-118983375D01*
X152098949Y-118750855D01*
X153686528Y-118750855D01*
X153686528Y-118983375D01*
X153023897Y-118983375D01*
X153023897Y-120759509D01*
X152758893Y-120759509D01*
G37*
G36*
X154468593Y-120759509D02*
G01*
X154468593Y-118983375D01*
X153808649Y-118983375D01*
X153808649Y-118750855D01*
X155396227Y-118750855D01*
X155396227Y-118983375D01*
X154733597Y-118983375D01*
X154733597Y-120759509D01*
X154468593Y-120759509D01*
G37*
G36*
X155682358Y-120759509D02*
G01*
X155682358Y-118750855D01*
X157033509Y-118750855D01*
X157033509Y-118983375D01*
X155947361Y-118983375D01*
X155947361Y-119610590D01*
X156887330Y-119610590D01*
X156887330Y-119843109D01*
X155947361Y-119843109D01*
X155947361Y-120759509D01*
X155682358Y-120759509D01*
G37*
G36*
X157288133Y-120109334D02*
G01*
X157538237Y-120087352D01*
X157556372Y-120187750D01*
X157584254Y-120270641D01*
X157620791Y-120338800D01*
X157669853Y-120397950D01*
X157735967Y-120450919D01*
X157822292Y-120497680D01*
X157915179Y-120530779D01*
X158017182Y-120551200D01*
X158129793Y-120558252D01*
X158275888Y-120546385D01*
X158397484Y-120513067D01*
X158471226Y-120477484D01*
X158527901Y-120436113D01*
X158570285Y-120389114D01*
X158613025Y-120306196D01*
X158627072Y-120217045D01*
X158613194Y-120127937D01*
X158572361Y-120052059D01*
X158504818Y-119990338D01*
X158392110Y-119933479D01*
X158286933Y-119900001D01*
X158035516Y-119835538D01*
X157781463Y-119764553D01*
X157648879Y-119710119D01*
X157558400Y-119653680D01*
X157488053Y-119591405D01*
X157435045Y-119523151D01*
X157396122Y-119446167D01*
X157372687Y-119363364D01*
X157364703Y-119273169D01*
X157374201Y-119174226D01*
X157402575Y-119080006D01*
X157450676Y-118988870D01*
X157515554Y-118909095D01*
X157598443Y-118842322D01*
X157702124Y-118788102D01*
X157814250Y-118750612D01*
X157936265Y-118727535D01*
X158069710Y-118719592D01*
X158216781Y-118728104D01*
X158346931Y-118752465D01*
X158462452Y-118791400D01*
X158569059Y-118847980D01*
X158655399Y-118918125D01*
X158724036Y-119002425D01*
X158775399Y-119098677D01*
X158808208Y-119203185D01*
X158822466Y-119317865D01*
X158568331Y-119337038D01*
X158542200Y-119215754D01*
X158495651Y-119121779D01*
X158429602Y-119049442D01*
X158345300Y-118998345D01*
X158231845Y-118964656D01*
X158080578Y-118952111D01*
X157921842Y-118963955D01*
X157808803Y-118994921D01*
X157730090Y-119040283D01*
X157667599Y-119105069D01*
X157632047Y-119175034D01*
X157620181Y-119252896D01*
X157629050Y-119321392D01*
X157654771Y-119379788D01*
X157698094Y-119430583D01*
X157756744Y-119468183D01*
X157878547Y-119515463D01*
X158097675Y-119573465D01*
X158394413Y-119649117D01*
X158540976Y-119701204D01*
X158651829Y-119762747D01*
X158736510Y-119830914D01*
X158799141Y-119905636D01*
X158845116Y-119991401D01*
X158872980Y-120085693D01*
X158882550Y-120190667D01*
X158872488Y-120294689D01*
X158842316Y-120394628D01*
X158790959Y-120492185D01*
X158722341Y-120578210D01*
X158635548Y-120651393D01*
X158528031Y-120712248D01*
X158411359Y-120755186D01*
X158283325Y-120781641D01*
X158142006Y-120790772D01*
X157961778Y-120780934D01*
X157811441Y-120753551D01*
X157686371Y-120711148D01*
X157571584Y-120648302D01*
X157476242Y-120568749D01*
X157398164Y-120471424D01*
X157339781Y-120360772D01*
X157303107Y-120240825D01*
X157288133Y-120109334D01*
G37*
G36*
X161522204Y-120759509D02*
G01*
X161220198Y-120759509D01*
X160986580Y-120149878D01*
X160149071Y-120149878D01*
X159929130Y-120759509D01*
X159647641Y-120759509D01*
X159964916Y-119931037D01*
X160225641Y-119931037D01*
X160904636Y-119931037D01*
X160695565Y-119376483D01*
X160608207Y-119134489D01*
X160553537Y-118961271D01*
X160507630Y-119152499D01*
X160445582Y-119343755D01*
X160225641Y-119931037D01*
X159964916Y-119931037D01*
X160416883Y-118750855D01*
X160702403Y-118750855D01*
X161522204Y-120759509D01*
G37*
G36*
X162468018Y-119285495D02*
G01*
X162576444Y-119317450D01*
X162674909Y-119370133D01*
X162760907Y-119441563D01*
X162832228Y-119530646D01*
X162889476Y-119639899D01*
X162929244Y-119757954D01*
X162953568Y-119884767D01*
X162961894Y-120021773D01*
X162952590Y-120168468D01*
X162925634Y-120301459D01*
X162881904Y-120422698D01*
X162819411Y-120533953D01*
X162742259Y-120624176D01*
X162649629Y-120695883D01*
X162544921Y-120749173D01*
X162438711Y-120780397D01*
X162329305Y-120790772D01*
X162211354Y-120777280D01*
X162108754Y-120738137D01*
X162018929Y-120677792D01*
X161948164Y-120605025D01*
X161948164Y-121314428D01*
X161702211Y-121314428D01*
X161702211Y-120038748D01*
X161924961Y-120038748D01*
X161933545Y-120181574D01*
X161956924Y-120294531D01*
X161992344Y-120383146D01*
X162038290Y-120452007D01*
X162121105Y-120527512D01*
X162211508Y-120570985D01*
X162312941Y-120585608D01*
X162391436Y-120577086D01*
X162463306Y-120551911D01*
X162530348Y-120509399D01*
X162593698Y-120447244D01*
X162641031Y-120375974D01*
X162677564Y-120284100D01*
X162701700Y-120166820D01*
X162710568Y-120018354D01*
X162702022Y-119877286D01*
X162678622Y-119764396D01*
X162642943Y-119674619D01*
X162596384Y-119603751D01*
X162512953Y-119525480D01*
X162423262Y-119480880D01*
X162323932Y-119465998D01*
X162249467Y-119474712D01*
X162179342Y-119500839D01*
X162111833Y-119545772D01*
X162045861Y-119612666D01*
X161996085Y-119688176D01*
X161958340Y-119781706D01*
X161933836Y-119897037D01*
X161924961Y-120038748D01*
X161702211Y-120038748D01*
X161702211Y-119305775D01*
X161926304Y-119305775D01*
X161926304Y-119494697D01*
X162012620Y-119396604D01*
X162105212Y-119329589D01*
X162173794Y-119299852D01*
X162253694Y-119281128D01*
X162347135Y-119274512D01*
X162468018Y-119285495D01*
G37*
G36*
X164023356Y-119285495D02*
G01*
X164131782Y-119317450D01*
X164230247Y-119370133D01*
X164316245Y-119441563D01*
X164387566Y-119530646D01*
X164444814Y-119639899D01*
X164484583Y-119757954D01*
X164508907Y-119884767D01*
X164517232Y-120021773D01*
X164507929Y-120168468D01*
X164480973Y-120301459D01*
X164437243Y-120422698D01*
X164374749Y-120533953D01*
X164297598Y-120624176D01*
X164204968Y-120695883D01*
X164100260Y-120749173D01*
X163994050Y-120780397D01*
X163884643Y-120790772D01*
X163766693Y-120777280D01*
X163664092Y-120738137D01*
X163574267Y-120677792D01*
X163503502Y-120605025D01*
X163503502Y-121314428D01*
X163257550Y-121314428D01*
X163257550Y-120038748D01*
X163480299Y-120038748D01*
X163488884Y-120181574D01*
X163512262Y-120294531D01*
X163547683Y-120383146D01*
X163593628Y-120452007D01*
X163676443Y-120527512D01*
X163766846Y-120570985D01*
X163868279Y-120585608D01*
X163946775Y-120577086D01*
X164018645Y-120551911D01*
X164085687Y-120509399D01*
X164149036Y-120447244D01*
X164196370Y-120375974D01*
X164232903Y-120284100D01*
X164257038Y-120166820D01*
X164265906Y-120018354D01*
X164257361Y-119877286D01*
X164233960Y-119764396D01*
X164198281Y-119674619D01*
X164151723Y-119603751D01*
X164068291Y-119525480D01*
X163978600Y-119480880D01*
X163879270Y-119465998D01*
X163804805Y-119474712D01*
X163734681Y-119500839D01*
X163667172Y-119545772D01*
X163601200Y-119612666D01*
X163551424Y-119688176D01*
X163513678Y-119781706D01*
X163489174Y-119897037D01*
X163480299Y-120038748D01*
X163257550Y-120038748D01*
X163257550Y-119305775D01*
X163481643Y-119305775D01*
X163481643Y-119494697D01*
X163567958Y-119396604D01*
X163660551Y-119329589D01*
X163729132Y-119299852D01*
X163809032Y-119281128D01*
X163902473Y-119274512D01*
X164023356Y-119285495D01*
G37*
G36*
X164714581Y-120321093D02*
G01*
X164957724Y-120282746D01*
X164980681Y-120376083D01*
X165018850Y-120449756D01*
X165071786Y-120507572D01*
X165138483Y-120549131D01*
X165223991Y-120575858D01*
X165333492Y-120585608D01*
X165444711Y-120576638D01*
X165526111Y-120552831D01*
X165584818Y-120517220D01*
X165631617Y-120467294D01*
X165658104Y-120414451D01*
X165666883Y-120356752D01*
X165658821Y-120305577D01*
X165635273Y-120263021D01*
X165594465Y-120226815D01*
X165524518Y-120196090D01*
X165343017Y-120144261D01*
X165094257Y-120074189D01*
X164967983Y-120026047D01*
X164874960Y-119965558D01*
X164809469Y-119887928D01*
X164769085Y-119795413D01*
X164755491Y-119693022D01*
X164766696Y-119599167D01*
X164799943Y-119513259D01*
X164852392Y-119437486D01*
X164920844Y-119375751D01*
X164984850Y-119338375D01*
X165077281Y-119303943D01*
X165178708Y-119282039D01*
X165289772Y-119274512D01*
X165454080Y-119287642D01*
X165589581Y-119324338D01*
X165671754Y-119363573D01*
X165734181Y-119408674D01*
X165780212Y-119459404D01*
X165830405Y-119554214D01*
X165864964Y-119687160D01*
X165624507Y-119720011D01*
X165605962Y-119648358D01*
X165574330Y-119590300D01*
X165529497Y-119543301D01*
X165473683Y-119509576D01*
X165401220Y-119487703D01*
X165307480Y-119479676D01*
X165195006Y-119487362D01*
X165117452Y-119507119D01*
X165065680Y-119535363D01*
X165024056Y-119576417D01*
X165000870Y-119619341D01*
X164993262Y-119665789D01*
X165000741Y-119710915D01*
X165023304Y-119751396D01*
X165059868Y-119786003D01*
X165117581Y-119816609D01*
X165334835Y-119879135D01*
X165575272Y-119948421D01*
X165698879Y-119993074D01*
X165791827Y-120048173D01*
X165860812Y-120122035D01*
X165892658Y-120181041D01*
X165912536Y-120250312D01*
X165919553Y-120332206D01*
X165911689Y-120412018D01*
X165888092Y-120488709D01*
X165847867Y-120563626D01*
X165794139Y-120629341D01*
X165725859Y-120685165D01*
X165640872Y-120731421D01*
X165548916Y-120763802D01*
X165447416Y-120783836D01*
X165334835Y-120790772D01*
X165191175Y-120782040D01*
X165074401Y-120757959D01*
X164979878Y-120720952D01*
X164903747Y-120672314D01*
X164838398Y-120608430D01*
X164785032Y-120530238D01*
X164743477Y-120435481D01*
X164714581Y-120321093D01*
G37*
G36*
X168213726Y-120526989D02*
G01*
X168213726Y-120759509D01*
X166889929Y-120759509D01*
X166895720Y-120672438D01*
X166918628Y-120589027D01*
X166982578Y-120458030D01*
X167080439Y-120323169D01*
X167207178Y-120190912D01*
X167402229Y-120020430D01*
X167618337Y-119833476D01*
X167759129Y-119694787D01*
X167843454Y-119594226D01*
X167910288Y-119485131D01*
X167946813Y-119386993D01*
X167958248Y-119296860D01*
X167946450Y-119203417D01*
X167911984Y-119121876D01*
X167853712Y-119049198D01*
X167778663Y-118993969D01*
X167689202Y-118960122D01*
X167581259Y-118948204D01*
X167467253Y-118960947D01*
X167374032Y-118996964D01*
X167296960Y-119055548D01*
X167239278Y-119133180D01*
X167202829Y-119230369D01*
X167189127Y-119352670D01*
X166936336Y-119326536D01*
X166960036Y-119185662D01*
X167001239Y-119068880D01*
X167058467Y-118972133D01*
X167131730Y-118892394D01*
X167220025Y-118829133D01*
X167323264Y-118782681D01*
X167444271Y-118753403D01*
X167586632Y-118743040D01*
X167729843Y-118754134D01*
X167851248Y-118785497D01*
X167954662Y-118835402D01*
X168043000Y-118903751D01*
X168116900Y-118989402D01*
X168168793Y-119083016D01*
X168200231Y-119186336D01*
X168211039Y-119301867D01*
X168198878Y-119420947D01*
X168161824Y-119539393D01*
X168099660Y-119654278D01*
X167998548Y-119785224D01*
X167862812Y-119923153D01*
X167619483Y-120139376D01*
X167418929Y-120313123D01*
X167335184Y-120393022D01*
X167276897Y-120461063D01*
X167231503Y-120526989D01*
X168213726Y-120526989D01*
G37*
G36*
X169235608Y-118750673D02*
G01*
X169329193Y-118772607D01*
X169412470Y-118808008D01*
X169488353Y-118857323D01*
X169555093Y-118919402D01*
X169613359Y-118995465D01*
X169682315Y-119127024D01*
X169737679Y-119293685D01*
X169769962Y-119484751D01*
X169782742Y-119767638D01*
X169773396Y-120003583D01*
X169748077Y-120190768D01*
X169710324Y-120337335D01*
X169651676Y-120475464D01*
X169579387Y-120585756D01*
X169493802Y-120672436D01*
X169391972Y-120736927D01*
X169272166Y-120776755D01*
X169129759Y-120790772D01*
X168988828Y-120776983D01*
X168868565Y-120737581D01*
X168764778Y-120673467D01*
X168674734Y-120582799D01*
X168610609Y-120483965D01*
X168556714Y-120358756D01*
X168514599Y-120201876D01*
X168486791Y-120007147D01*
X168476653Y-119767638D01*
X168476682Y-119766906D01*
X168729444Y-119766906D01*
X168739578Y-120029928D01*
X168765646Y-120215347D01*
X168802080Y-120341118D01*
X168844849Y-120422575D01*
X168909010Y-120496790D01*
X168976937Y-120546633D01*
X169049797Y-120575783D01*
X169129759Y-120585608D01*
X169209613Y-120575753D01*
X169282416Y-120546499D01*
X169350339Y-120496441D01*
X169414546Y-120421843D01*
X169457414Y-120340038D01*
X169493885Y-120214144D01*
X169519949Y-120029010D01*
X169530073Y-119766906D01*
X169519909Y-119503054D01*
X169493787Y-119317393D01*
X169457314Y-119191752D01*
X169414546Y-119110625D01*
X169350446Y-119036914D01*
X169282114Y-118987229D01*
X169208353Y-118958063D01*
X169126950Y-118948204D01*
X169045929Y-118957297D01*
X168975262Y-118983684D01*
X168912555Y-119027624D01*
X168856451Y-119091452D01*
X168808339Y-119182813D01*
X168768303Y-119316707D01*
X168740211Y-119506301D01*
X168729444Y-119766906D01*
X168476682Y-119766906D01*
X168486103Y-119529693D01*
X168511657Y-119341674D01*
X168549682Y-119195133D01*
X168608789Y-119057016D01*
X168681324Y-118946987D01*
X168766936Y-118860765D01*
X168868775Y-118796566D01*
X168988211Y-118756961D01*
X169129759Y-118743040D01*
X169235608Y-118750673D01*
G37*
G36*
X171324403Y-120526989D02*
G01*
X171324403Y-120759509D01*
X170000606Y-120759509D01*
X170006397Y-120672438D01*
X170029305Y-120589027D01*
X170093255Y-120458030D01*
X170191116Y-120323169D01*
X170317855Y-120190912D01*
X170512906Y-120020430D01*
X170729014Y-119833476D01*
X170869806Y-119694787D01*
X170954130Y-119594226D01*
X171020965Y-119485131D01*
X171057490Y-119386993D01*
X171068925Y-119296860D01*
X171057127Y-119203417D01*
X171022661Y-119121876D01*
X170964389Y-119049198D01*
X170889340Y-118993969D01*
X170799879Y-118960122D01*
X170691936Y-118948204D01*
X170577930Y-118960947D01*
X170484709Y-118996964D01*
X170407637Y-119055548D01*
X170349955Y-119133180D01*
X170313506Y-119230369D01*
X170299804Y-119352670D01*
X170047013Y-119326536D01*
X170070713Y-119185662D01*
X170111916Y-119068880D01*
X170169144Y-118972133D01*
X170242407Y-118892394D01*
X170330702Y-118829133D01*
X170433941Y-118782681D01*
X170554948Y-118753403D01*
X170697309Y-118743040D01*
X170840519Y-118754134D01*
X170961925Y-118785497D01*
X171065339Y-118835402D01*
X171153677Y-118903751D01*
X171227577Y-118989402D01*
X171279470Y-119083016D01*
X171310908Y-119186336D01*
X171321716Y-119301867D01*
X171309555Y-119420947D01*
X171272501Y-119539393D01*
X171210337Y-119654278D01*
X171109225Y-119785224D01*
X170973489Y-119923153D01*
X170730160Y-120139376D01*
X170529606Y-120313123D01*
X170445861Y-120393022D01*
X170387574Y-120461063D01*
X170342180Y-120526989D01*
X171324403Y-120526989D01*
G37*
G36*
X172412153Y-118751958D02*
G01*
X172514166Y-118777453D01*
X172603591Y-118818459D01*
X172682393Y-118875053D01*
X172748984Y-118945641D01*
X172801269Y-119028579D01*
X172839632Y-119125769D01*
X172863377Y-119239830D01*
X172618890Y-119258880D01*
X172576078Y-119128973D01*
X172525955Y-119051763D01*
X172454037Y-118994082D01*
X172373071Y-118959915D01*
X172280003Y-118948204D01*
X172203834Y-118955660D01*
X172135653Y-118977392D01*
X172073740Y-119013416D01*
X172003812Y-119076034D01*
X171942736Y-119157060D01*
X171890558Y-119259613D01*
X171855973Y-119369895D01*
X171831490Y-119520145D01*
X171820948Y-119720377D01*
X171885995Y-119636470D01*
X171958182Y-119570250D01*
X172038080Y-119519854D01*
X172125622Y-119483249D01*
X172215033Y-119461533D01*
X172307358Y-119454275D01*
X172426527Y-119465770D01*
X172534516Y-119499424D01*
X172633809Y-119555408D01*
X172726112Y-119635747D01*
X172800581Y-119731254D01*
X172854160Y-119839488D01*
X172887329Y-119962884D01*
X172898914Y-120104693D01*
X172889722Y-120228776D01*
X172862598Y-120345397D01*
X172817581Y-120456037D01*
X172755502Y-120557298D01*
X172681283Y-120639421D01*
X172594221Y-120704554D01*
X172496396Y-120752035D01*
X172389627Y-120780877D01*
X172271821Y-120790772D01*
X172122745Y-120776115D01*
X171991775Y-120733717D01*
X171875151Y-120663912D01*
X171770390Y-120564358D01*
X171707292Y-120474174D01*
X171654509Y-120359790D01*
X171613371Y-120216319D01*
X171596349Y-120104449D01*
X171859172Y-120104449D01*
X171872640Y-120228738D01*
X171913150Y-120347837D01*
X171954903Y-120420528D01*
X172005089Y-120478925D01*
X172064092Y-120524791D01*
X172164453Y-120570678D01*
X172267669Y-120585608D01*
X172366050Y-120571832D01*
X172454255Y-120530874D01*
X172535481Y-120459945D01*
X172595788Y-120369990D01*
X172633799Y-120258053D01*
X172647466Y-120118127D01*
X172633980Y-119983829D01*
X172596468Y-119876707D01*
X172536824Y-119790841D01*
X172456591Y-119724295D01*
X172364947Y-119684772D01*
X172258143Y-119671162D01*
X172152040Y-119684618D01*
X172058889Y-119724032D01*
X171975310Y-119790841D01*
X171911857Y-119876846D01*
X171872909Y-119979786D01*
X171859172Y-120104449D01*
X171596349Y-120104449D01*
X171586234Y-120037971D01*
X171576339Y-119818197D01*
X171587178Y-119572925D01*
X171617012Y-119372165D01*
X171662416Y-119209114D01*
X171720872Y-119077730D01*
X171790906Y-118972872D01*
X171871157Y-118889979D01*
X171960178Y-118826502D01*
X172059158Y-118780895D01*
X172169967Y-118752792D01*
X172295024Y-118743040D01*
X172412153Y-118751958D01*
G37*
G36*
X178980304Y-118758136D02*
G01*
X179112731Y-118777225D01*
X179207707Y-118804589D01*
X179293799Y-118849172D01*
X179367563Y-118911735D01*
X179430334Y-118994365D01*
X179476585Y-119087925D01*
X179504329Y-119187484D01*
X179513743Y-119294784D01*
X179504775Y-119398612D01*
X179478746Y-119491554D01*
X179436032Y-119575672D01*
X179375746Y-119652478D01*
X179303058Y-119714659D01*
X179210524Y-119766841D01*
X179094281Y-119808326D01*
X178949542Y-119837370D01*
X179046859Y-119891238D01*
X179109277Y-119938242D01*
X179219617Y-120056218D01*
X179329340Y-120207886D01*
X179677630Y-120759509D01*
X179344361Y-120759509D01*
X179079235Y-120337457D01*
X178887993Y-120058043D01*
X178811951Y-119970813D01*
X178753415Y-119922366D01*
X178692602Y-119889137D01*
X178632515Y-119868388D01*
X178484992Y-119858741D01*
X178177613Y-119858741D01*
X178177613Y-120759509D01*
X177912487Y-120759509D01*
X177912487Y-119634037D01*
X178177613Y-119634037D01*
X178747309Y-119634037D01*
X178918746Y-119623421D01*
X179031486Y-119596790D01*
X179095580Y-119566131D01*
X179146885Y-119526407D01*
X179187190Y-119477234D01*
X179227178Y-119391325D01*
X179240435Y-119298692D01*
X179228710Y-119209221D01*
X179194676Y-119132933D01*
X179137243Y-119066539D01*
X179062820Y-119019311D01*
X178957630Y-118987586D01*
X178811545Y-118975559D01*
X178177613Y-118975559D01*
X178177613Y-119634037D01*
X177912487Y-119634037D01*
X177912487Y-118750855D01*
X178800554Y-118750855D01*
X178980304Y-118758136D01*
G37*
G36*
X180635143Y-119287512D02*
G01*
X180759642Y-119324973D01*
X180869950Y-119386187D01*
X180968454Y-119472593D01*
X181045976Y-119576182D01*
X181103373Y-119700578D01*
X181139918Y-119849945D01*
X181152979Y-120029589D01*
X181151514Y-120095168D01*
X180069518Y-120095168D01*
X180084504Y-120214174D01*
X180112899Y-120312330D01*
X180153141Y-120393125D01*
X180204706Y-120459334D01*
X180292459Y-120529479D01*
X180392273Y-120571233D01*
X180508056Y-120585608D01*
X180595943Y-120577385D01*
X180672155Y-120553771D01*
X180738987Y-120515266D01*
X180795445Y-120462395D01*
X180846150Y-120389031D01*
X180890662Y-120290562D01*
X181144797Y-120321947D01*
X181091709Y-120462584D01*
X181017583Y-120576476D01*
X180922047Y-120667795D01*
X180838316Y-120720000D01*
X180742646Y-120758310D01*
X180632957Y-120782333D01*
X180506712Y-120790772D01*
X180349780Y-120777469D01*
X180215966Y-120739666D01*
X180101024Y-120678956D01*
X180001862Y-120594767D01*
X179923302Y-120491940D01*
X179865331Y-120368912D01*
X179828518Y-120221652D01*
X179815383Y-120044976D01*
X179826670Y-119890004D01*
X180083195Y-119890004D01*
X180893349Y-119890004D01*
X180873804Y-119772057D01*
X180842066Y-119684092D01*
X180800414Y-119619627D01*
X180736820Y-119558014D01*
X180665987Y-119514887D01*
X180586398Y-119488720D01*
X180495722Y-119479676D01*
X180387328Y-119492456D01*
X180293552Y-119529516D01*
X180210934Y-119591417D01*
X180146609Y-119672259D01*
X180103863Y-119770340D01*
X180083195Y-119890004D01*
X179826670Y-119890004D01*
X179828722Y-119861822D01*
X179866052Y-119709469D01*
X179924699Y-119582521D01*
X180003939Y-119476745D01*
X180104617Y-119388687D01*
X180217839Y-119326174D01*
X180346117Y-119287838D01*
X180493035Y-119274512D01*
X180635143Y-119287512D01*
G37*
G36*
X181855788Y-120759509D02*
G01*
X181303799Y-119305775D01*
X181563429Y-119305775D01*
X181874839Y-120176745D01*
X181967773Y-120469836D01*
X182059364Y-120193231D01*
X182381765Y-119305775D01*
X182634556Y-119305775D01*
X182085254Y-120759509D01*
X181855788Y-120759509D01*
G37*
G36*
X184320046Y-118750673D02*
G01*
X184413631Y-118772607D01*
X184496908Y-118808008D01*
X184572791Y-118857323D01*
X184639531Y-118919402D01*
X184697798Y-118995465D01*
X184766753Y-119127024D01*
X184822117Y-119293685D01*
X184854401Y-119484751D01*
X184867180Y-119767638D01*
X184857834Y-120003583D01*
X184832515Y-120190768D01*
X184794762Y-120337335D01*
X184736114Y-120475464D01*
X184663825Y-120585756D01*
X184578241Y-120672436D01*
X184476411Y-120736927D01*
X184356604Y-120776755D01*
X184214197Y-120790772D01*
X184073266Y-120776983D01*
X183953003Y-120737581D01*
X183849216Y-120673467D01*
X183759172Y-120582799D01*
X183695048Y-120483965D01*
X183641152Y-120358756D01*
X183599037Y-120201876D01*
X183571230Y-120007147D01*
X183561091Y-119767638D01*
X183561120Y-119766906D01*
X183813883Y-119766906D01*
X183824016Y-120029928D01*
X183850084Y-120215347D01*
X183886519Y-120341118D01*
X183929287Y-120422575D01*
X183993448Y-120496790D01*
X184061375Y-120546633D01*
X184134235Y-120575783D01*
X184214197Y-120585608D01*
X184294052Y-120575753D01*
X184366854Y-120546499D01*
X184434778Y-120496441D01*
X184498984Y-120421843D01*
X184541853Y-120340038D01*
X184578323Y-120214144D01*
X184604387Y-120029010D01*
X184614511Y-119766906D01*
X184604348Y-119503054D01*
X184578225Y-119317393D01*
X184541752Y-119191752D01*
X184498984Y-119110625D01*
X184434884Y-119036914D01*
X184366553Y-118987229D01*
X184292792Y-118958063D01*
X184211388Y-118948204D01*
X184130367Y-118957297D01*
X184059700Y-118983684D01*
X183996993Y-119027624D01*
X183940889Y-119091452D01*
X183892778Y-119182813D01*
X183852741Y-119316707D01*
X183824649Y-119506301D01*
X183813883Y-119766906D01*
X183561120Y-119766906D01*
X183570541Y-119529693D01*
X183596095Y-119341674D01*
X183634120Y-119195133D01*
X183693227Y-119057016D01*
X183765762Y-118946987D01*
X183851374Y-118860765D01*
X183953213Y-118796566D01*
X184072649Y-118756961D01*
X184214197Y-118743040D01*
X184320046Y-118750673D01*
G37*
G36*
X185254427Y-120759509D02*
G01*
X185254427Y-120478141D01*
X185534451Y-120478141D01*
X185534451Y-120759509D01*
X185254427Y-120759509D01*
G37*
G36*
X186820390Y-120759509D02*
G01*
X186574438Y-120759509D01*
X186574438Y-119188294D01*
X186476568Y-119269723D01*
X186341552Y-119358165D01*
X186199463Y-119435048D01*
X186082655Y-119485538D01*
X186082655Y-119251065D01*
X186216420Y-119179903D01*
X186336265Y-119100752D01*
X186443279Y-119013661D01*
X186541457Y-118915818D01*
X186612862Y-118825995D01*
X186661876Y-118743040D01*
X186820390Y-118743040D01*
X186820390Y-120759509D01*
G37*
D10*
X142402634Y-87479736D02*
X142148634Y-87116879D01*
X141967205Y-87479736D02*
X141967205Y-86717736D01*
X141967205Y-86717736D02*
X142257491Y-86717736D01*
X142257491Y-86717736D02*
X142330062Y-86754022D01*
X142330062Y-86754022D02*
X142366348Y-86790308D01*
X142366348Y-86790308D02*
X142402634Y-86862879D01*
X142402634Y-86862879D02*
X142402634Y-86971736D01*
X142402634Y-86971736D02*
X142366348Y-87044308D01*
X142366348Y-87044308D02*
X142330062Y-87080593D01*
X142330062Y-87080593D02*
X142257491Y-87116879D01*
X142257491Y-87116879D02*
X141967205Y-87116879D01*
X142692919Y-87443451D02*
X142801777Y-87479736D01*
X142801777Y-87479736D02*
X142983205Y-87479736D01*
X142983205Y-87479736D02*
X143055777Y-87443451D01*
X143055777Y-87443451D02*
X143092062Y-87407165D01*
X143092062Y-87407165D02*
X143128348Y-87334593D01*
X143128348Y-87334593D02*
X143128348Y-87262022D01*
X143128348Y-87262022D02*
X143092062Y-87189451D01*
X143092062Y-87189451D02*
X143055777Y-87153165D01*
X143055777Y-87153165D02*
X142983205Y-87116879D01*
X142983205Y-87116879D02*
X142838062Y-87080593D01*
X142838062Y-87080593D02*
X142765491Y-87044308D01*
X142765491Y-87044308D02*
X142729205Y-87008022D01*
X142729205Y-87008022D02*
X142692919Y-86935451D01*
X142692919Y-86935451D02*
X142692919Y-86862879D01*
X142692919Y-86862879D02*
X142729205Y-86790308D01*
X142729205Y-86790308D02*
X142765491Y-86754022D01*
X142765491Y-86754022D02*
X142838062Y-86717736D01*
X142838062Y-86717736D02*
X143019491Y-86717736D01*
X143019491Y-86717736D02*
X143128348Y-86754022D01*
X143346062Y-86717736D02*
X143781491Y-86717736D01*
X143563776Y-87479736D02*
X143563776Y-86717736D01*
D12*
X125079378Y-104945601D02*
X125126997Y-104897982D01*
X125126997Y-104897982D02*
X125222235Y-104850363D01*
X125222235Y-104850363D02*
X125460330Y-104850363D01*
X125460330Y-104850363D02*
X125555568Y-104897982D01*
X125555568Y-104897982D02*
X125603187Y-104945601D01*
X125603187Y-104945601D02*
X125650806Y-105040839D01*
X125650806Y-105040839D02*
X125650806Y-105136077D01*
X125650806Y-105136077D02*
X125603187Y-105278934D01*
X125603187Y-105278934D02*
X125031759Y-105850363D01*
X125031759Y-105850363D02*
X125650806Y-105850363D01*
X180994432Y-106327356D02*
X181184908Y-106327356D01*
X181184908Y-106327356D02*
X181280146Y-106374975D01*
X181280146Y-106374975D02*
X181375384Y-106470213D01*
X181375384Y-106470213D02*
X181423003Y-106660689D01*
X181423003Y-106660689D02*
X181423003Y-106994022D01*
X181423003Y-106994022D02*
X181375384Y-107184498D01*
X181375384Y-107184498D02*
X181280146Y-107279737D01*
X181280146Y-107279737D02*
X181184908Y-107327356D01*
X181184908Y-107327356D02*
X180994432Y-107327356D01*
X180994432Y-107327356D02*
X180899194Y-107279737D01*
X180899194Y-107279737D02*
X180803956Y-107184498D01*
X180803956Y-107184498D02*
X180756337Y-106994022D01*
X180756337Y-106994022D02*
X180756337Y-106660689D01*
X180756337Y-106660689D02*
X180803956Y-106470213D01*
X180803956Y-106470213D02*
X180899194Y-106374975D01*
X180899194Y-106374975D02*
X180994432Y-106327356D01*
X181851575Y-106327356D02*
X181851575Y-107136879D01*
X181851575Y-107136879D02*
X181899194Y-107232117D01*
X181899194Y-107232117D02*
X181946813Y-107279737D01*
X181946813Y-107279737D02*
X182042051Y-107327356D01*
X182042051Y-107327356D02*
X182232527Y-107327356D01*
X182232527Y-107327356D02*
X182327765Y-107279737D01*
X182327765Y-107279737D02*
X182375384Y-107232117D01*
X182375384Y-107232117D02*
X182423003Y-107136879D01*
X182423003Y-107136879D02*
X182423003Y-106327356D01*
X182756337Y-106327356D02*
X183327765Y-106327356D01*
X183042051Y-107327356D02*
X183042051Y-106327356D01*
X183661099Y-106803546D02*
X183994432Y-106803546D01*
X184137289Y-107327356D02*
X183661099Y-107327356D01*
X183661099Y-107327356D02*
X183661099Y-106327356D01*
X183661099Y-106327356D02*
X184137289Y-106327356D01*
X185137289Y-107327356D02*
X184803956Y-106851165D01*
X184565861Y-107327356D02*
X184565861Y-106327356D01*
X184565861Y-106327356D02*
X184946813Y-106327356D01*
X184946813Y-106327356D02*
X185042051Y-106374975D01*
X185042051Y-106374975D02*
X185089670Y-106422594D01*
X185089670Y-106422594D02*
X185137289Y-106517832D01*
X185137289Y-106517832D02*
X185137289Y-106660689D01*
X185137289Y-106660689D02*
X185089670Y-106755927D01*
X185089670Y-106755927D02*
X185042051Y-106803546D01*
X185042051Y-106803546D02*
X184946813Y-106851165D01*
X184946813Y-106851165D02*
X184565861Y-106851165D01*
X186280147Y-107279737D02*
X186423004Y-107327356D01*
X186423004Y-107327356D02*
X186661099Y-107327356D01*
X186661099Y-107327356D02*
X186756337Y-107279737D01*
X186756337Y-107279737D02*
X186803956Y-107232117D01*
X186803956Y-107232117D02*
X186851575Y-107136879D01*
X186851575Y-107136879D02*
X186851575Y-107041641D01*
X186851575Y-107041641D02*
X186803956Y-106946403D01*
X186803956Y-106946403D02*
X186756337Y-106898784D01*
X186756337Y-106898784D02*
X186661099Y-106851165D01*
X186661099Y-106851165D02*
X186470623Y-106803546D01*
X186470623Y-106803546D02*
X186375385Y-106755927D01*
X186375385Y-106755927D02*
X186327766Y-106708308D01*
X186327766Y-106708308D02*
X186280147Y-106613070D01*
X186280147Y-106613070D02*
X186280147Y-106517832D01*
X186280147Y-106517832D02*
X186327766Y-106422594D01*
X186327766Y-106422594D02*
X186375385Y-106374975D01*
X186375385Y-106374975D02*
X186470623Y-106327356D01*
X186470623Y-106327356D02*
X186708718Y-106327356D01*
X186708718Y-106327356D02*
X186851575Y-106374975D01*
X187280147Y-107327356D02*
X187280147Y-106327356D01*
X187280147Y-106803546D02*
X187851575Y-106803546D01*
X187851575Y-107327356D02*
X187851575Y-106327356D01*
X188327766Y-106803546D02*
X188661099Y-106803546D01*
X188803956Y-107327356D02*
X188327766Y-107327356D01*
X188327766Y-107327356D02*
X188327766Y-106327356D01*
X188327766Y-106327356D02*
X188803956Y-106327356D01*
X189708718Y-107327356D02*
X189232528Y-107327356D01*
X189232528Y-107327356D02*
X189232528Y-106327356D01*
X190518242Y-107327356D02*
X190042052Y-107327356D01*
X190042052Y-107327356D02*
X190042052Y-106327356D01*
D11*
X156083701Y-108247763D02*
X155512273Y-108247763D01*
X155797987Y-108247763D02*
X155797987Y-107247763D01*
X155797987Y-107247763D02*
X155702749Y-107390620D01*
X155702749Y-107390620D02*
X155607511Y-107485858D01*
X155607511Y-107485858D02*
X155512273Y-107533477D01*
X121783701Y-104895382D02*
X121688463Y-104847763D01*
X121688463Y-104847763D02*
X121545606Y-104847763D01*
X121545606Y-104847763D02*
X121402749Y-104895382D01*
X121402749Y-104895382D02*
X121307511Y-104990620D01*
X121307511Y-104990620D02*
X121259892Y-105085858D01*
X121259892Y-105085858D02*
X121212273Y-105276334D01*
X121212273Y-105276334D02*
X121212273Y-105419191D01*
X121212273Y-105419191D02*
X121259892Y-105609667D01*
X121259892Y-105609667D02*
X121307511Y-105704905D01*
X121307511Y-105704905D02*
X121402749Y-105800144D01*
X121402749Y-105800144D02*
X121545606Y-105847763D01*
X121545606Y-105847763D02*
X121640844Y-105847763D01*
X121640844Y-105847763D02*
X121783701Y-105800144D01*
X121783701Y-105800144D02*
X121831320Y-105752524D01*
X121831320Y-105752524D02*
X121831320Y-105419191D01*
X121831320Y-105419191D02*
X121640844Y-105419191D01*
X122259892Y-105847763D02*
X122259892Y-104847763D01*
X122259892Y-104847763D02*
X122831320Y-105847763D01*
X122831320Y-105847763D02*
X122831320Y-104847763D01*
X123307511Y-105847763D02*
X123307511Y-104847763D01*
X123307511Y-104847763D02*
X123545606Y-104847763D01*
X123545606Y-104847763D02*
X123688463Y-104895382D01*
X123688463Y-104895382D02*
X123783701Y-104990620D01*
X123783701Y-104990620D02*
X123831320Y-105085858D01*
X123831320Y-105085858D02*
X123878939Y-105276334D01*
X123878939Y-105276334D02*
X123878939Y-105419191D01*
X123878939Y-105419191D02*
X123831320Y-105609667D01*
X123831320Y-105609667D02*
X123783701Y-105704905D01*
X123783701Y-105704905D02*
X123688463Y-105800144D01*
X123688463Y-105800144D02*
X123545606Y-105847763D01*
X123545606Y-105847763D02*
X123307511Y-105847763D01*
D12*
X127135259Y-109843052D02*
X126801926Y-109843052D01*
X126801926Y-110366862D02*
X126801926Y-109366862D01*
X126801926Y-109366862D02*
X127278116Y-109366862D01*
X128230497Y-110366862D02*
X127897164Y-109890671D01*
X127659069Y-110366862D02*
X127659069Y-109366862D01*
X127659069Y-109366862D02*
X128040021Y-109366862D01*
X128040021Y-109366862D02*
X128135259Y-109414481D01*
X128135259Y-109414481D02*
X128182878Y-109462100D01*
X128182878Y-109462100D02*
X128230497Y-109557338D01*
X128230497Y-109557338D02*
X128230497Y-109700195D01*
X128230497Y-109700195D02*
X128182878Y-109795433D01*
X128182878Y-109795433D02*
X128135259Y-109843052D01*
X128135259Y-109843052D02*
X128040021Y-109890671D01*
X128040021Y-109890671D02*
X127659069Y-109890671D01*
X128849545Y-109366862D02*
X129040021Y-109366862D01*
X129040021Y-109366862D02*
X129135259Y-109414481D01*
X129135259Y-109414481D02*
X129230497Y-109509719D01*
X129230497Y-109509719D02*
X129278116Y-109700195D01*
X129278116Y-109700195D02*
X129278116Y-110033528D01*
X129278116Y-110033528D02*
X129230497Y-110224004D01*
X129230497Y-110224004D02*
X129135259Y-110319243D01*
X129135259Y-110319243D02*
X129040021Y-110366862D01*
X129040021Y-110366862D02*
X128849545Y-110366862D01*
X128849545Y-110366862D02*
X128754307Y-110319243D01*
X128754307Y-110319243D02*
X128659069Y-110224004D01*
X128659069Y-110224004D02*
X128611450Y-110033528D01*
X128611450Y-110033528D02*
X128611450Y-109700195D01*
X128611450Y-109700195D02*
X128659069Y-109509719D01*
X128659069Y-109509719D02*
X128754307Y-109414481D01*
X128754307Y-109414481D02*
X128849545Y-109366862D01*
X129706688Y-110366862D02*
X129706688Y-109366862D01*
X129706688Y-109366862D02*
X130040021Y-110081147D01*
X130040021Y-110081147D02*
X130373354Y-109366862D01*
X130373354Y-109366862D02*
X130373354Y-110366862D01*
X131611450Y-109843052D02*
X131944783Y-109843052D01*
X132087640Y-110366862D02*
X131611450Y-110366862D01*
X131611450Y-110366862D02*
X131611450Y-109366862D01*
X131611450Y-109366862D02*
X132087640Y-109366862D01*
X132420974Y-109366862D02*
X133087640Y-110366862D01*
X133087640Y-109366862D02*
X132420974Y-110366862D01*
X133325736Y-109366862D02*
X133897164Y-109366862D01*
X133611450Y-110366862D02*
X133611450Y-109366862D01*
X126801926Y-111976806D02*
X126801926Y-110976806D01*
X126801926Y-110976806D02*
X127182878Y-110976806D01*
X127182878Y-110976806D02*
X127278116Y-111024425D01*
X127278116Y-111024425D02*
X127325735Y-111072044D01*
X127325735Y-111072044D02*
X127373354Y-111167282D01*
X127373354Y-111167282D02*
X127373354Y-111310139D01*
X127373354Y-111310139D02*
X127325735Y-111405377D01*
X127325735Y-111405377D02*
X127278116Y-111452996D01*
X127278116Y-111452996D02*
X127182878Y-111500615D01*
X127182878Y-111500615D02*
X126801926Y-111500615D01*
X127706688Y-110976806D02*
X127944783Y-111976806D01*
X127944783Y-111976806D02*
X128135259Y-111262520D01*
X128135259Y-111262520D02*
X128325735Y-111976806D01*
X128325735Y-111976806D02*
X128563831Y-110976806D01*
X129516211Y-111976806D02*
X129182878Y-111500615D01*
X128944783Y-111976806D02*
X128944783Y-110976806D01*
X128944783Y-110976806D02*
X129325735Y-110976806D01*
X129325735Y-110976806D02*
X129420973Y-111024425D01*
X129420973Y-111024425D02*
X129468592Y-111072044D01*
X129468592Y-111072044D02*
X129516211Y-111167282D01*
X129516211Y-111167282D02*
X129516211Y-111310139D01*
X129516211Y-111310139D02*
X129468592Y-111405377D01*
X129468592Y-111405377D02*
X129420973Y-111452996D01*
X129420973Y-111452996D02*
X129325735Y-111500615D01*
X129325735Y-111500615D02*
X128944783Y-111500615D01*
X130659069Y-111929187D02*
X130801926Y-111976806D01*
X130801926Y-111976806D02*
X131040021Y-111976806D01*
X131040021Y-111976806D02*
X131135259Y-111929187D01*
X131135259Y-111929187D02*
X131182878Y-111881567D01*
X131182878Y-111881567D02*
X131230497Y-111786329D01*
X131230497Y-111786329D02*
X131230497Y-111691091D01*
X131230497Y-111691091D02*
X131182878Y-111595853D01*
X131182878Y-111595853D02*
X131135259Y-111548234D01*
X131135259Y-111548234D02*
X131040021Y-111500615D01*
X131040021Y-111500615D02*
X130849545Y-111452996D01*
X130849545Y-111452996D02*
X130754307Y-111405377D01*
X130754307Y-111405377D02*
X130706688Y-111357758D01*
X130706688Y-111357758D02*
X130659069Y-111262520D01*
X130659069Y-111262520D02*
X130659069Y-111167282D01*
X130659069Y-111167282D02*
X130706688Y-111072044D01*
X130706688Y-111072044D02*
X130754307Y-111024425D01*
X130754307Y-111024425D02*
X130849545Y-110976806D01*
X130849545Y-110976806D02*
X131087640Y-110976806D01*
X131087640Y-110976806D02*
X131230497Y-111024425D01*
X131659069Y-110976806D02*
X131659069Y-111786329D01*
X131659069Y-111786329D02*
X131706688Y-111881567D01*
X131706688Y-111881567D02*
X131754307Y-111929187D01*
X131754307Y-111929187D02*
X131849545Y-111976806D01*
X131849545Y-111976806D02*
X132040021Y-111976806D01*
X132040021Y-111976806D02*
X132135259Y-111929187D01*
X132135259Y-111929187D02*
X132182878Y-111881567D01*
X132182878Y-111881567D02*
X132230497Y-111786329D01*
X132230497Y-111786329D02*
X132230497Y-110976806D01*
X132706688Y-111976806D02*
X132706688Y-110976806D01*
X132706688Y-110976806D02*
X133087640Y-110976806D01*
X133087640Y-110976806D02*
X133182878Y-111024425D01*
X133182878Y-111024425D02*
X133230497Y-111072044D01*
X133230497Y-111072044D02*
X133278116Y-111167282D01*
X133278116Y-111167282D02*
X133278116Y-111310139D01*
X133278116Y-111310139D02*
X133230497Y-111405377D01*
X133230497Y-111405377D02*
X133182878Y-111452996D01*
X133182878Y-111452996D02*
X133087640Y-111500615D01*
X133087640Y-111500615D02*
X132706688Y-111500615D01*
X133706688Y-111976806D02*
X133706688Y-110976806D01*
X133706688Y-110976806D02*
X134087640Y-110976806D01*
X134087640Y-110976806D02*
X134182878Y-111024425D01*
X134182878Y-111024425D02*
X134230497Y-111072044D01*
X134230497Y-111072044D02*
X134278116Y-111167282D01*
X134278116Y-111167282D02*
X134278116Y-111310139D01*
X134278116Y-111310139D02*
X134230497Y-111405377D01*
X134230497Y-111405377D02*
X134182878Y-111452996D01*
X134182878Y-111452996D02*
X134087640Y-111500615D01*
X134087640Y-111500615D02*
X133706688Y-111500615D01*
X135182878Y-111976806D02*
X134706688Y-111976806D01*
X134706688Y-111976806D02*
X134706688Y-110976806D01*
X135706688Y-111500615D02*
X135706688Y-111976806D01*
X135373355Y-110976806D02*
X135706688Y-111500615D01*
X135706688Y-111500615D02*
X136040021Y-110976806D01*
D13*
X146736944Y-109960098D02*
X147213134Y-109960098D01*
X146641706Y-110245813D02*
X146975039Y-109245813D01*
X146975039Y-109245813D02*
X147308372Y-110245813D01*
D11*
X175783701Y-100995382D02*
X175688463Y-100947763D01*
X175688463Y-100947763D02*
X175545606Y-100947763D01*
X175545606Y-100947763D02*
X175402749Y-100995382D01*
X175402749Y-100995382D02*
X175307511Y-101090620D01*
X175307511Y-101090620D02*
X175259892Y-101185858D01*
X175259892Y-101185858D02*
X175212273Y-101376334D01*
X175212273Y-101376334D02*
X175212273Y-101519191D01*
X175212273Y-101519191D02*
X175259892Y-101709667D01*
X175259892Y-101709667D02*
X175307511Y-101804905D01*
X175307511Y-101804905D02*
X175402749Y-101900144D01*
X175402749Y-101900144D02*
X175545606Y-101947763D01*
X175545606Y-101947763D02*
X175640844Y-101947763D01*
X175640844Y-101947763D02*
X175783701Y-101900144D01*
X175783701Y-101900144D02*
X175831320Y-101852524D01*
X175831320Y-101852524D02*
X175831320Y-101519191D01*
X175831320Y-101519191D02*
X175640844Y-101519191D01*
X176259892Y-101947763D02*
X176259892Y-100947763D01*
X176259892Y-100947763D02*
X176831320Y-101947763D01*
X176831320Y-101947763D02*
X176831320Y-100947763D01*
X177307511Y-101947763D02*
X177307511Y-100947763D01*
X177307511Y-100947763D02*
X177545606Y-100947763D01*
X177545606Y-100947763D02*
X177688463Y-100995382D01*
X177688463Y-100995382D02*
X177783701Y-101090620D01*
X177783701Y-101090620D02*
X177831320Y-101185858D01*
X177831320Y-101185858D02*
X177878939Y-101376334D01*
X177878939Y-101376334D02*
X177878939Y-101519191D01*
X177878939Y-101519191D02*
X177831320Y-101709667D01*
X177831320Y-101709667D02*
X177783701Y-101804905D01*
X177783701Y-101804905D02*
X177688463Y-101900144D01*
X177688463Y-101900144D02*
X177545606Y-101947763D01*
X177545606Y-101947763D02*
X177307511Y-101947763D01*
D12*
X178388341Y-104435001D02*
X178340722Y-104482621D01*
X178340722Y-104482621D02*
X178197865Y-104530240D01*
X178197865Y-104530240D02*
X178102627Y-104530240D01*
X178102627Y-104530240D02*
X177959770Y-104482621D01*
X177959770Y-104482621D02*
X177864532Y-104387382D01*
X177864532Y-104387382D02*
X177816913Y-104292144D01*
X177816913Y-104292144D02*
X177769294Y-104101668D01*
X177769294Y-104101668D02*
X177769294Y-103958811D01*
X177769294Y-103958811D02*
X177816913Y-103768335D01*
X177816913Y-103768335D02*
X177864532Y-103673097D01*
X177864532Y-103673097D02*
X177959770Y-103577859D01*
X177959770Y-103577859D02*
X178102627Y-103530240D01*
X178102627Y-103530240D02*
X178197865Y-103530240D01*
X178197865Y-103530240D02*
X178340722Y-103577859D01*
X178340722Y-103577859D02*
X178388341Y-103625478D01*
X178816913Y-104006430D02*
X179150246Y-104006430D01*
X179293103Y-104530240D02*
X178816913Y-104530240D01*
X178816913Y-104530240D02*
X178816913Y-103530240D01*
X178816913Y-103530240D02*
X179293103Y-103530240D01*
X179721675Y-104530240D02*
X179721675Y-103530240D01*
X179721675Y-103530240D02*
X180293103Y-104530240D01*
X180293103Y-104530240D02*
X180293103Y-103530240D01*
X180626437Y-103530240D02*
X181197865Y-103530240D01*
X180912151Y-104530240D02*
X180912151Y-103530240D01*
X181531199Y-104006430D02*
X181864532Y-104006430D01*
X182007389Y-104530240D02*
X181531199Y-104530240D01*
X181531199Y-104530240D02*
X181531199Y-103530240D01*
X181531199Y-103530240D02*
X182007389Y-103530240D01*
X183007389Y-104530240D02*
X182674056Y-104054049D01*
X182435961Y-104530240D02*
X182435961Y-103530240D01*
X182435961Y-103530240D02*
X182816913Y-103530240D01*
X182816913Y-103530240D02*
X182912151Y-103577859D01*
X182912151Y-103577859D02*
X182959770Y-103625478D01*
X182959770Y-103625478D02*
X183007389Y-103720716D01*
X183007389Y-103720716D02*
X183007389Y-103863573D01*
X183007389Y-103863573D02*
X182959770Y-103958811D01*
X182959770Y-103958811D02*
X182912151Y-104006430D01*
X182912151Y-104006430D02*
X182816913Y-104054049D01*
X182816913Y-104054049D02*
X182435961Y-104054049D01*
X184197866Y-104530240D02*
X184197866Y-103530240D01*
X184197866Y-103530240D02*
X184578818Y-103530240D01*
X184578818Y-103530240D02*
X184674056Y-103577859D01*
X184674056Y-103577859D02*
X184721675Y-103625478D01*
X184721675Y-103625478D02*
X184769294Y-103720716D01*
X184769294Y-103720716D02*
X184769294Y-103863573D01*
X184769294Y-103863573D02*
X184721675Y-103958811D01*
X184721675Y-103958811D02*
X184674056Y-104006430D01*
X184674056Y-104006430D02*
X184578818Y-104054049D01*
X184578818Y-104054049D02*
X184197866Y-104054049D01*
X185197866Y-104530240D02*
X185197866Y-103530240D01*
X185674056Y-104530240D02*
X185674056Y-103530240D01*
X185674056Y-103530240D02*
X186245484Y-104530240D01*
X186245484Y-104530240D02*
X186245484Y-103530240D01*
D11*
X119759892Y-102566810D02*
X120521797Y-102566810D01*
X120140844Y-102947763D02*
X120140844Y-102185858D01*
X121521796Y-102947763D02*
X120950368Y-102947763D01*
X121236082Y-102947763D02*
X121236082Y-101947763D01*
X121236082Y-101947763D02*
X121140844Y-102090620D01*
X121140844Y-102090620D02*
X121045606Y-102185858D01*
X121045606Y-102185858D02*
X120950368Y-102233477D01*
X121997987Y-102947763D02*
X122188463Y-102947763D01*
X122188463Y-102947763D02*
X122283701Y-102900144D01*
X122283701Y-102900144D02*
X122331320Y-102852524D01*
X122331320Y-102852524D02*
X122426558Y-102709667D01*
X122426558Y-102709667D02*
X122474177Y-102519191D01*
X122474177Y-102519191D02*
X122474177Y-102138239D01*
X122474177Y-102138239D02*
X122426558Y-102043001D01*
X122426558Y-102043001D02*
X122378939Y-101995382D01*
X122378939Y-101995382D02*
X122283701Y-101947763D01*
X122283701Y-101947763D02*
X122093225Y-101947763D01*
X122093225Y-101947763D02*
X121997987Y-101995382D01*
X121997987Y-101995382D02*
X121950368Y-102043001D01*
X121950368Y-102043001D02*
X121902749Y-102138239D01*
X121902749Y-102138239D02*
X121902749Y-102376334D01*
X121902749Y-102376334D02*
X121950368Y-102471572D01*
X121950368Y-102471572D02*
X121997987Y-102519191D01*
X121997987Y-102519191D02*
X122093225Y-102566810D01*
X122093225Y-102566810D02*
X122283701Y-102566810D01*
X122283701Y-102566810D02*
X122378939Y-102519191D01*
X122378939Y-102519191D02*
X122426558Y-102471572D01*
X122426558Y-102471572D02*
X122474177Y-102376334D01*
X122902749Y-102852524D02*
X122950368Y-102900144D01*
X122950368Y-102900144D02*
X122902749Y-102947763D01*
X122902749Y-102947763D02*
X122855130Y-102900144D01*
X122855130Y-102900144D02*
X122902749Y-102852524D01*
X122902749Y-102852524D02*
X122902749Y-102947763D01*
X123855129Y-101947763D02*
X123378939Y-101947763D01*
X123378939Y-101947763D02*
X123331320Y-102423953D01*
X123331320Y-102423953D02*
X123378939Y-102376334D01*
X123378939Y-102376334D02*
X123474177Y-102328715D01*
X123474177Y-102328715D02*
X123712272Y-102328715D01*
X123712272Y-102328715D02*
X123807510Y-102376334D01*
X123807510Y-102376334D02*
X123855129Y-102423953D01*
X123855129Y-102423953D02*
X123902748Y-102519191D01*
X123902748Y-102519191D02*
X123902748Y-102757286D01*
X123902748Y-102757286D02*
X123855129Y-102852524D01*
X123855129Y-102852524D02*
X123807510Y-102900144D01*
X123807510Y-102900144D02*
X123712272Y-102947763D01*
X123712272Y-102947763D02*
X123474177Y-102947763D01*
X123474177Y-102947763D02*
X123378939Y-102900144D01*
X123378939Y-102900144D02*
X123331320Y-102852524D01*
D12*
X159188488Y-110661823D02*
X159759916Y-110661823D01*
X159474202Y-111661823D02*
X159474202Y-110661823D01*
X160283726Y-110661823D02*
X160474202Y-110661823D01*
X160474202Y-110661823D02*
X160569440Y-110709442D01*
X160569440Y-110709442D02*
X160664678Y-110804680D01*
X160664678Y-110804680D02*
X160712297Y-110995156D01*
X160712297Y-110995156D02*
X160712297Y-111328489D01*
X160712297Y-111328489D02*
X160664678Y-111518965D01*
X160664678Y-111518965D02*
X160569440Y-111614204D01*
X160569440Y-111614204D02*
X160474202Y-111661823D01*
X160474202Y-111661823D02*
X160283726Y-111661823D01*
X160283726Y-111661823D02*
X160188488Y-111614204D01*
X160188488Y-111614204D02*
X160093250Y-111518965D01*
X160093250Y-111518965D02*
X160045631Y-111328489D01*
X160045631Y-111328489D02*
X160045631Y-110995156D01*
X160045631Y-110995156D02*
X160093250Y-110804680D01*
X160093250Y-110804680D02*
X160188488Y-110709442D01*
X160188488Y-110709442D02*
X160283726Y-110661823D01*
X161902774Y-111661823D02*
X161902774Y-110661823D01*
X161902774Y-110661823D02*
X162140869Y-110661823D01*
X162140869Y-110661823D02*
X162283726Y-110709442D01*
X162283726Y-110709442D02*
X162378964Y-110804680D01*
X162378964Y-110804680D02*
X162426583Y-110899918D01*
X162426583Y-110899918D02*
X162474202Y-111090394D01*
X162474202Y-111090394D02*
X162474202Y-111233251D01*
X162474202Y-111233251D02*
X162426583Y-111423727D01*
X162426583Y-111423727D02*
X162378964Y-111518965D01*
X162378964Y-111518965D02*
X162283726Y-111614204D01*
X162283726Y-111614204D02*
X162140869Y-111661823D01*
X162140869Y-111661823D02*
X161902774Y-111661823D01*
X162902774Y-111138013D02*
X163236107Y-111138013D01*
X163378964Y-111661823D02*
X162902774Y-111661823D01*
X162902774Y-111661823D02*
X162902774Y-110661823D01*
X162902774Y-110661823D02*
X163378964Y-110661823D01*
X164283726Y-111661823D02*
X163807536Y-111661823D01*
X163807536Y-111661823D02*
X163807536Y-110661823D01*
X165093250Y-111661823D02*
X164617060Y-111661823D01*
X164617060Y-111661823D02*
X164617060Y-110661823D01*
X166378965Y-110661823D02*
X166569441Y-110661823D01*
X166569441Y-110661823D02*
X166664679Y-110709442D01*
X166664679Y-110709442D02*
X166759917Y-110804680D01*
X166759917Y-110804680D02*
X166807536Y-110995156D01*
X166807536Y-110995156D02*
X166807536Y-111328489D01*
X166807536Y-111328489D02*
X166759917Y-111518965D01*
X166759917Y-111518965D02*
X166664679Y-111614204D01*
X166664679Y-111614204D02*
X166569441Y-111661823D01*
X166569441Y-111661823D02*
X166378965Y-111661823D01*
X166378965Y-111661823D02*
X166283727Y-111614204D01*
X166283727Y-111614204D02*
X166188489Y-111518965D01*
X166188489Y-111518965D02*
X166140870Y-111328489D01*
X166140870Y-111328489D02*
X166140870Y-110995156D01*
X166140870Y-110995156D02*
X166188489Y-110804680D01*
X166188489Y-110804680D02*
X166283727Y-110709442D01*
X166283727Y-110709442D02*
X166378965Y-110661823D01*
X167807536Y-111661823D02*
X167474203Y-111185632D01*
X167236108Y-111661823D02*
X167236108Y-110661823D01*
X167236108Y-110661823D02*
X167617060Y-110661823D01*
X167617060Y-110661823D02*
X167712298Y-110709442D01*
X167712298Y-110709442D02*
X167759917Y-110757061D01*
X167759917Y-110757061D02*
X167807536Y-110852299D01*
X167807536Y-110852299D02*
X167807536Y-110995156D01*
X167807536Y-110995156D02*
X167759917Y-111090394D01*
X167759917Y-111090394D02*
X167712298Y-111138013D01*
X167712298Y-111138013D02*
X167617060Y-111185632D01*
X167617060Y-111185632D02*
X167236108Y-111185632D01*
X159283726Y-112986052D02*
X159759916Y-112986052D01*
X159188488Y-113271767D02*
X159521821Y-112271767D01*
X159521821Y-112271767D02*
X159855154Y-113271767D01*
X160664678Y-113271767D02*
X160188488Y-113271767D01*
X160188488Y-113271767D02*
X160188488Y-112271767D01*
X160998012Y-113271767D02*
X160998012Y-112271767D01*
X161474202Y-112747957D02*
X161807535Y-112747957D01*
X161950392Y-113271767D02*
X161474202Y-113271767D01*
X161474202Y-113271767D02*
X161474202Y-112271767D01*
X161474202Y-112271767D02*
X161950392Y-112271767D01*
X162378964Y-113271767D02*
X162378964Y-112271767D01*
X162378964Y-112271767D02*
X162950392Y-113271767D01*
X162950392Y-113271767D02*
X162950392Y-112271767D01*
X163331345Y-112271767D02*
X163569440Y-113271767D01*
X163569440Y-113271767D02*
X163759916Y-112557481D01*
X163759916Y-112557481D02*
X163950392Y-113271767D01*
X163950392Y-113271767D02*
X164188488Y-112271767D01*
X164521821Y-112986052D02*
X164998011Y-112986052D01*
X164426583Y-113271767D02*
X164759916Y-112271767D01*
X164759916Y-112271767D02*
X165093249Y-113271767D01*
X165998011Y-113271767D02*
X165664678Y-112795576D01*
X165426583Y-113271767D02*
X165426583Y-112271767D01*
X165426583Y-112271767D02*
X165807535Y-112271767D01*
X165807535Y-112271767D02*
X165902773Y-112319386D01*
X165902773Y-112319386D02*
X165950392Y-112367005D01*
X165950392Y-112367005D02*
X165998011Y-112462243D01*
X165998011Y-112462243D02*
X165998011Y-112605100D01*
X165998011Y-112605100D02*
X165950392Y-112700338D01*
X165950392Y-112700338D02*
X165902773Y-112747957D01*
X165902773Y-112747957D02*
X165807535Y-112795576D01*
X165807535Y-112795576D02*
X165426583Y-112795576D01*
X166426583Y-112747957D02*
X166759916Y-112747957D01*
X166902773Y-113271767D02*
X166426583Y-113271767D01*
X166426583Y-113271767D02*
X166426583Y-112271767D01*
X166426583Y-112271767D02*
X166902773Y-112271767D01*
X168093250Y-113271767D02*
X168093250Y-112271767D01*
X168093250Y-112271767D02*
X168664678Y-113271767D01*
X168664678Y-113271767D02*
X168664678Y-112271767D01*
X169331345Y-112271767D02*
X169521821Y-112271767D01*
X169521821Y-112271767D02*
X169617059Y-112319386D01*
X169617059Y-112319386D02*
X169712297Y-112414624D01*
X169712297Y-112414624D02*
X169759916Y-112605100D01*
X169759916Y-112605100D02*
X169759916Y-112938433D01*
X169759916Y-112938433D02*
X169712297Y-113128909D01*
X169712297Y-113128909D02*
X169617059Y-113224148D01*
X169617059Y-113224148D02*
X169521821Y-113271767D01*
X169521821Y-113271767D02*
X169331345Y-113271767D01*
X169331345Y-113271767D02*
X169236107Y-113224148D01*
X169236107Y-113224148D02*
X169140869Y-113128909D01*
X169140869Y-113128909D02*
X169093250Y-112938433D01*
X169093250Y-112938433D02*
X169093250Y-112605100D01*
X169093250Y-112605100D02*
X169140869Y-112414624D01*
X169140869Y-112414624D02*
X169236107Y-112319386D01*
X169236107Y-112319386D02*
X169331345Y-112271767D01*
X170045631Y-112271767D02*
X170617059Y-112271767D01*
X170331345Y-113271767D02*
X170331345Y-112271767D01*
X170950393Y-112747957D02*
X171283726Y-112747957D01*
X171426583Y-113271767D02*
X170950393Y-113271767D01*
X170950393Y-113271767D02*
X170950393Y-112271767D01*
X170950393Y-112271767D02*
X171426583Y-112271767D01*
X172188488Y-112747957D02*
X172331345Y-112795576D01*
X172331345Y-112795576D02*
X172378964Y-112843195D01*
X172378964Y-112843195D02*
X172426583Y-112938433D01*
X172426583Y-112938433D02*
X172426583Y-113081290D01*
X172426583Y-113081290D02*
X172378964Y-113176528D01*
X172378964Y-113176528D02*
X172331345Y-113224148D01*
X172331345Y-113224148D02*
X172236107Y-113271767D01*
X172236107Y-113271767D02*
X171855155Y-113271767D01*
X171855155Y-113271767D02*
X171855155Y-112271767D01*
X171855155Y-112271767D02*
X172188488Y-112271767D01*
X172188488Y-112271767D02*
X172283726Y-112319386D01*
X172283726Y-112319386D02*
X172331345Y-112367005D01*
X172331345Y-112367005D02*
X172378964Y-112462243D01*
X172378964Y-112462243D02*
X172378964Y-112557481D01*
X172378964Y-112557481D02*
X172331345Y-112652719D01*
X172331345Y-112652719D02*
X172283726Y-112700338D01*
X172283726Y-112700338D02*
X172188488Y-112747957D01*
X172188488Y-112747957D02*
X171855155Y-112747957D01*
X173045631Y-112271767D02*
X173236107Y-112271767D01*
X173236107Y-112271767D02*
X173331345Y-112319386D01*
X173331345Y-112319386D02*
X173426583Y-112414624D01*
X173426583Y-112414624D02*
X173474202Y-112605100D01*
X173474202Y-112605100D02*
X173474202Y-112938433D01*
X173474202Y-112938433D02*
X173426583Y-113128909D01*
X173426583Y-113128909D02*
X173331345Y-113224148D01*
X173331345Y-113224148D02*
X173236107Y-113271767D01*
X173236107Y-113271767D02*
X173045631Y-113271767D01*
X173045631Y-113271767D02*
X172950393Y-113224148D01*
X172950393Y-113224148D02*
X172855155Y-113128909D01*
X172855155Y-113128909D02*
X172807536Y-112938433D01*
X172807536Y-112938433D02*
X172807536Y-112605100D01*
X172807536Y-112605100D02*
X172855155Y-112414624D01*
X172855155Y-112414624D02*
X172950393Y-112319386D01*
X172950393Y-112319386D02*
X173045631Y-112271767D01*
X174093250Y-112271767D02*
X174283726Y-112271767D01*
X174283726Y-112271767D02*
X174378964Y-112319386D01*
X174378964Y-112319386D02*
X174474202Y-112414624D01*
X174474202Y-112414624D02*
X174521821Y-112605100D01*
X174521821Y-112605100D02*
X174521821Y-112938433D01*
X174521821Y-112938433D02*
X174474202Y-113128909D01*
X174474202Y-113128909D02*
X174378964Y-113224148D01*
X174378964Y-113224148D02*
X174283726Y-113271767D01*
X174283726Y-113271767D02*
X174093250Y-113271767D01*
X174093250Y-113271767D02*
X173998012Y-113224148D01*
X173998012Y-113224148D02*
X173902774Y-113128909D01*
X173902774Y-113128909D02*
X173855155Y-112938433D01*
X173855155Y-112938433D02*
X173855155Y-112605100D01*
X173855155Y-112605100D02*
X173902774Y-112414624D01*
X173902774Y-112414624D02*
X173998012Y-112319386D01*
X173998012Y-112319386D02*
X174093250Y-112271767D01*
X174950393Y-113271767D02*
X174950393Y-112271767D01*
X175521821Y-113271767D02*
X175093250Y-112700338D01*
X175521821Y-112271767D02*
X174950393Y-112843195D01*
D10*
X141967205Y-89929736D02*
X141967205Y-89167736D01*
X141967205Y-89167736D02*
X142257491Y-89167736D01*
X142257491Y-89167736D02*
X142330062Y-89204022D01*
X142330062Y-89204022D02*
X142366348Y-89240308D01*
X142366348Y-89240308D02*
X142402634Y-89312879D01*
X142402634Y-89312879D02*
X142402634Y-89421736D01*
X142402634Y-89421736D02*
X142366348Y-89494308D01*
X142366348Y-89494308D02*
X142330062Y-89530593D01*
X142330062Y-89530593D02*
X142257491Y-89566879D01*
X142257491Y-89566879D02*
X141967205Y-89566879D01*
X142983205Y-89530593D02*
X143092062Y-89566879D01*
X143092062Y-89566879D02*
X143128348Y-89603165D01*
X143128348Y-89603165D02*
X143164634Y-89675736D01*
X143164634Y-89675736D02*
X143164634Y-89784593D01*
X143164634Y-89784593D02*
X143128348Y-89857165D01*
X143128348Y-89857165D02*
X143092062Y-89893451D01*
X143092062Y-89893451D02*
X143019491Y-89929736D01*
X143019491Y-89929736D02*
X142729205Y-89929736D01*
X142729205Y-89929736D02*
X142729205Y-89167736D01*
X142729205Y-89167736D02*
X142983205Y-89167736D01*
X142983205Y-89167736D02*
X143055777Y-89204022D01*
X143055777Y-89204022D02*
X143092062Y-89240308D01*
X143092062Y-89240308D02*
X143128348Y-89312879D01*
X143128348Y-89312879D02*
X143128348Y-89385451D01*
X143128348Y-89385451D02*
X143092062Y-89458022D01*
X143092062Y-89458022D02*
X143055777Y-89494308D01*
X143055777Y-89494308D02*
X142983205Y-89530593D01*
X142983205Y-89530593D02*
X142729205Y-89530593D01*
X143418634Y-89167736D02*
X143890348Y-89167736D01*
X143890348Y-89167736D02*
X143636348Y-89458022D01*
X143636348Y-89458022D02*
X143745205Y-89458022D01*
X143745205Y-89458022D02*
X143817777Y-89494308D01*
X143817777Y-89494308D02*
X143854062Y-89530593D01*
X143854062Y-89530593D02*
X143890348Y-89603165D01*
X143890348Y-89603165D02*
X143890348Y-89784593D01*
X143890348Y-89784593D02*
X143854062Y-89857165D01*
X143854062Y-89857165D02*
X143817777Y-89893451D01*
X143817777Y-89893451D02*
X143745205Y-89929736D01*
X143745205Y-89929736D02*
X143527491Y-89929736D01*
X143527491Y-89929736D02*
X143454919Y-89893451D01*
X143454919Y-89893451D02*
X143418634Y-89857165D01*
X142366348Y-94254022D02*
X142293777Y-94217736D01*
X142293777Y-94217736D02*
X142184919Y-94217736D01*
X142184919Y-94217736D02*
X142076062Y-94254022D01*
X142076062Y-94254022D02*
X142003491Y-94326593D01*
X142003491Y-94326593D02*
X141967205Y-94399165D01*
X141967205Y-94399165D02*
X141930919Y-94544308D01*
X141930919Y-94544308D02*
X141930919Y-94653165D01*
X141930919Y-94653165D02*
X141967205Y-94798308D01*
X141967205Y-94798308D02*
X142003491Y-94870879D01*
X142003491Y-94870879D02*
X142076062Y-94943451D01*
X142076062Y-94943451D02*
X142184919Y-94979736D01*
X142184919Y-94979736D02*
X142257491Y-94979736D01*
X142257491Y-94979736D02*
X142366348Y-94943451D01*
X142366348Y-94943451D02*
X142402634Y-94907165D01*
X142402634Y-94907165D02*
X142402634Y-94653165D01*
X142402634Y-94653165D02*
X142257491Y-94653165D01*
X142729205Y-94979736D02*
X142729205Y-94217736D01*
X142729205Y-94217736D02*
X143164634Y-94979736D01*
X143164634Y-94979736D02*
X143164634Y-94217736D01*
X143527491Y-94979736D02*
X143527491Y-94217736D01*
X143527491Y-94217736D02*
X143708920Y-94217736D01*
X143708920Y-94217736D02*
X143817777Y-94254022D01*
X143817777Y-94254022D02*
X143890348Y-94326593D01*
X143890348Y-94326593D02*
X143926634Y-94399165D01*
X143926634Y-94399165D02*
X143962920Y-94544308D01*
X143962920Y-94544308D02*
X143962920Y-94653165D01*
X143962920Y-94653165D02*
X143926634Y-94798308D01*
X143926634Y-94798308D02*
X143890348Y-94870879D01*
X143890348Y-94870879D02*
X143817777Y-94943451D01*
X143817777Y-94943451D02*
X143708920Y-94979736D01*
X143708920Y-94979736D02*
X143527491Y-94979736D01*
D13*
X152388124Y-110244076D02*
X152340505Y-110291696D01*
X152340505Y-110291696D02*
X152197648Y-110339315D01*
X152197648Y-110339315D02*
X152102410Y-110339315D01*
X152102410Y-110339315D02*
X151959553Y-110291696D01*
X151959553Y-110291696D02*
X151864315Y-110196457D01*
X151864315Y-110196457D02*
X151816696Y-110101219D01*
X151816696Y-110101219D02*
X151769077Y-109910743D01*
X151769077Y-109910743D02*
X151769077Y-109767886D01*
X151769077Y-109767886D02*
X151816696Y-109577410D01*
X151816696Y-109577410D02*
X151864315Y-109482172D01*
X151864315Y-109482172D02*
X151959553Y-109386934D01*
X151959553Y-109386934D02*
X152102410Y-109339315D01*
X152102410Y-109339315D02*
X152197648Y-109339315D01*
X152197648Y-109339315D02*
X152340505Y-109386934D01*
X152340505Y-109386934D02*
X152388124Y-109434553D01*
D12*
X125700489Y-102968724D02*
X125129061Y-102968724D01*
X125414775Y-102968724D02*
X125414775Y-101968724D01*
X125414775Y-101968724D02*
X125319537Y-102111581D01*
X125319537Y-102111581D02*
X125224299Y-102206819D01*
X125224299Y-102206819D02*
X125129061Y-102254438D01*
D13*
X149617896Y-109822003D02*
X149760753Y-109869622D01*
X149760753Y-109869622D02*
X149808372Y-109917241D01*
X149808372Y-109917241D02*
X149855991Y-110012479D01*
X149855991Y-110012479D02*
X149855991Y-110155336D01*
X149855991Y-110155336D02*
X149808372Y-110250574D01*
X149808372Y-110250574D02*
X149760753Y-110298194D01*
X149760753Y-110298194D02*
X149665515Y-110345813D01*
X149665515Y-110345813D02*
X149284563Y-110345813D01*
X149284563Y-110345813D02*
X149284563Y-109345813D01*
X149284563Y-109345813D02*
X149617896Y-109345813D01*
X149617896Y-109345813D02*
X149713134Y-109393432D01*
X149713134Y-109393432D02*
X149760753Y-109441051D01*
X149760753Y-109441051D02*
X149808372Y-109536289D01*
X149808372Y-109536289D02*
X149808372Y-109631527D01*
X149808372Y-109631527D02*
X149760753Y-109726765D01*
X149760753Y-109726765D02*
X149713134Y-109774384D01*
X149713134Y-109774384D02*
X149617896Y-109822003D01*
X149617896Y-109822003D02*
X149284563Y-109822003D01*
D11*
X175409892Y-104547763D02*
X175409892Y-103547763D01*
X175886082Y-104547763D02*
X175886082Y-103547763D01*
X175886082Y-103547763D02*
X176124177Y-103547763D01*
X176124177Y-103547763D02*
X176267034Y-103595382D01*
X176267034Y-103595382D02*
X176362272Y-103690620D01*
X176362272Y-103690620D02*
X176409891Y-103785858D01*
X176409891Y-103785858D02*
X176457510Y-103976334D01*
X176457510Y-103976334D02*
X176457510Y-104119191D01*
X176457510Y-104119191D02*
X176409891Y-104309667D01*
X176409891Y-104309667D02*
X176362272Y-104404905D01*
X176362272Y-104404905D02*
X176267034Y-104500144D01*
X176267034Y-104500144D02*
X176124177Y-104547763D01*
X176124177Y-104547763D02*
X175886082Y-104547763D01*
D10*
X178618752Y-96838509D02*
X179199324Y-96838509D01*
X178909038Y-97219462D02*
X178909038Y-96457557D01*
D12*
X173579378Y-103645601D02*
X173626997Y-103597982D01*
X173626997Y-103597982D02*
X173722235Y-103550363D01*
X173722235Y-103550363D02*
X173960330Y-103550363D01*
X173960330Y-103550363D02*
X174055568Y-103597982D01*
X174055568Y-103597982D02*
X174103187Y-103645601D01*
X174103187Y-103645601D02*
X174150806Y-103740839D01*
X174150806Y-103740839D02*
X174150806Y-103836077D01*
X174150806Y-103836077D02*
X174103187Y-103978934D01*
X174103187Y-103978934D02*
X173531759Y-104550363D01*
X173531759Y-104550363D02*
X174150806Y-104550363D01*
X131531759Y-84400363D02*
X132150806Y-84400363D01*
X132150806Y-84400363D02*
X131817473Y-84781315D01*
X131817473Y-84781315D02*
X131960330Y-84781315D01*
X131960330Y-84781315D02*
X132055568Y-84828934D01*
X132055568Y-84828934D02*
X132103187Y-84876553D01*
X132103187Y-84876553D02*
X132150806Y-84971791D01*
X132150806Y-84971791D02*
X132150806Y-85209886D01*
X132150806Y-85209886D02*
X132103187Y-85305124D01*
X132103187Y-85305124D02*
X132055568Y-85352744D01*
X132055568Y-85352744D02*
X131960330Y-85400363D01*
X131960330Y-85400363D02*
X131674616Y-85400363D01*
X131674616Y-85400363D02*
X131579378Y-85352744D01*
X131579378Y-85352744D02*
X131531759Y-85305124D01*
X173531759Y-100950363D02*
X174150806Y-100950363D01*
X174150806Y-100950363D02*
X173817473Y-101331315D01*
X173817473Y-101331315D02*
X173960330Y-101331315D01*
X173960330Y-101331315D02*
X174055568Y-101378934D01*
X174055568Y-101378934D02*
X174103187Y-101426553D01*
X174103187Y-101426553D02*
X174150806Y-101521791D01*
X174150806Y-101521791D02*
X174150806Y-101759886D01*
X174150806Y-101759886D02*
X174103187Y-101855124D01*
X174103187Y-101855124D02*
X174055568Y-101902744D01*
X174055568Y-101902744D02*
X173960330Y-101950363D01*
X173960330Y-101950363D02*
X173674616Y-101950363D01*
X173674616Y-101950363D02*
X173579378Y-101902744D01*
X173579378Y-101902744D02*
X173531759Y-101855124D01*
D11*
X175359892Y-106966810D02*
X176121797Y-106966810D01*
X175740844Y-107347763D02*
X175740844Y-106585858D01*
X177121796Y-107347763D02*
X176550368Y-107347763D01*
X176836082Y-107347763D02*
X176836082Y-106347763D01*
X176836082Y-106347763D02*
X176740844Y-106490620D01*
X176740844Y-106490620D02*
X176645606Y-106585858D01*
X176645606Y-106585858D02*
X176550368Y-106633477D01*
X177597987Y-107347763D02*
X177788463Y-107347763D01*
X177788463Y-107347763D02*
X177883701Y-107300144D01*
X177883701Y-107300144D02*
X177931320Y-107252524D01*
X177931320Y-107252524D02*
X178026558Y-107109667D01*
X178026558Y-107109667D02*
X178074177Y-106919191D01*
X178074177Y-106919191D02*
X178074177Y-106538239D01*
X178074177Y-106538239D02*
X178026558Y-106443001D01*
X178026558Y-106443001D02*
X177978939Y-106395382D01*
X177978939Y-106395382D02*
X177883701Y-106347763D01*
X177883701Y-106347763D02*
X177693225Y-106347763D01*
X177693225Y-106347763D02*
X177597987Y-106395382D01*
X177597987Y-106395382D02*
X177550368Y-106443001D01*
X177550368Y-106443001D02*
X177502749Y-106538239D01*
X177502749Y-106538239D02*
X177502749Y-106776334D01*
X177502749Y-106776334D02*
X177550368Y-106871572D01*
X177550368Y-106871572D02*
X177597987Y-106919191D01*
X177597987Y-106919191D02*
X177693225Y-106966810D01*
X177693225Y-106966810D02*
X177883701Y-106966810D01*
X177883701Y-106966810D02*
X177978939Y-106919191D01*
X177978939Y-106919191D02*
X178026558Y-106871572D01*
X178026558Y-106871572D02*
X178074177Y-106776334D01*
X178502749Y-107252524D02*
X178550368Y-107300144D01*
X178550368Y-107300144D02*
X178502749Y-107347763D01*
X178502749Y-107347763D02*
X178455130Y-107300144D01*
X178455130Y-107300144D02*
X178502749Y-107252524D01*
X178502749Y-107252524D02*
X178502749Y-107347763D01*
X179455129Y-106347763D02*
X178978939Y-106347763D01*
X178978939Y-106347763D02*
X178931320Y-106823953D01*
X178931320Y-106823953D02*
X178978939Y-106776334D01*
X178978939Y-106776334D02*
X179074177Y-106728715D01*
X179074177Y-106728715D02*
X179312272Y-106728715D01*
X179312272Y-106728715D02*
X179407510Y-106776334D01*
X179407510Y-106776334D02*
X179455129Y-106823953D01*
X179455129Y-106823953D02*
X179502748Y-106919191D01*
X179502748Y-106919191D02*
X179502748Y-107157286D01*
X179502748Y-107157286D02*
X179455129Y-107252524D01*
X179455129Y-107252524D02*
X179407510Y-107300144D01*
X179407510Y-107300144D02*
X179312272Y-107347763D01*
X179312272Y-107347763D02*
X179074177Y-107347763D01*
X179074177Y-107347763D02*
X178978939Y-107300144D01*
X178978939Y-107300144D02*
X178931320Y-107252524D01*
D10*
X155267205Y-89979736D02*
X155267205Y-89217736D01*
X155267205Y-89217736D02*
X155557491Y-89217736D01*
X155557491Y-89217736D02*
X155630062Y-89254022D01*
X155630062Y-89254022D02*
X155666348Y-89290308D01*
X155666348Y-89290308D02*
X155702634Y-89362879D01*
X155702634Y-89362879D02*
X155702634Y-89471736D01*
X155702634Y-89471736D02*
X155666348Y-89544308D01*
X155666348Y-89544308D02*
X155630062Y-89580593D01*
X155630062Y-89580593D02*
X155557491Y-89616879D01*
X155557491Y-89616879D02*
X155267205Y-89616879D01*
X156283205Y-89580593D02*
X156392062Y-89616879D01*
X156392062Y-89616879D02*
X156428348Y-89653165D01*
X156428348Y-89653165D02*
X156464634Y-89725736D01*
X156464634Y-89725736D02*
X156464634Y-89834593D01*
X156464634Y-89834593D02*
X156428348Y-89907165D01*
X156428348Y-89907165D02*
X156392062Y-89943451D01*
X156392062Y-89943451D02*
X156319491Y-89979736D01*
X156319491Y-89979736D02*
X156029205Y-89979736D01*
X156029205Y-89979736D02*
X156029205Y-89217736D01*
X156029205Y-89217736D02*
X156283205Y-89217736D01*
X156283205Y-89217736D02*
X156355777Y-89254022D01*
X156355777Y-89254022D02*
X156392062Y-89290308D01*
X156392062Y-89290308D02*
X156428348Y-89362879D01*
X156428348Y-89362879D02*
X156428348Y-89435451D01*
X156428348Y-89435451D02*
X156392062Y-89508022D01*
X156392062Y-89508022D02*
X156355777Y-89544308D01*
X156355777Y-89544308D02*
X156283205Y-89580593D01*
X156283205Y-89580593D02*
X156029205Y-89580593D01*
X156754919Y-89290308D02*
X156791205Y-89254022D01*
X156791205Y-89254022D02*
X156863777Y-89217736D01*
X156863777Y-89217736D02*
X157045205Y-89217736D01*
X157045205Y-89217736D02*
X157117777Y-89254022D01*
X157117777Y-89254022D02*
X157154062Y-89290308D01*
X157154062Y-89290308D02*
X157190348Y-89362879D01*
X157190348Y-89362879D02*
X157190348Y-89435451D01*
X157190348Y-89435451D02*
X157154062Y-89544308D01*
X157154062Y-89544308D02*
X156718634Y-89979736D01*
X156718634Y-89979736D02*
X157190348Y-89979736D01*
X155217205Y-95079736D02*
X155217205Y-94317736D01*
X155217205Y-94317736D02*
X155507491Y-94317736D01*
X155507491Y-94317736D02*
X155580062Y-94354022D01*
X155580062Y-94354022D02*
X155616348Y-94390308D01*
X155616348Y-94390308D02*
X155652634Y-94462879D01*
X155652634Y-94462879D02*
X155652634Y-94571736D01*
X155652634Y-94571736D02*
X155616348Y-94644308D01*
X155616348Y-94644308D02*
X155580062Y-94680593D01*
X155580062Y-94680593D02*
X155507491Y-94716879D01*
X155507491Y-94716879D02*
X155217205Y-94716879D01*
X156233205Y-94680593D02*
X156342062Y-94716879D01*
X156342062Y-94716879D02*
X156378348Y-94753165D01*
X156378348Y-94753165D02*
X156414634Y-94825736D01*
X156414634Y-94825736D02*
X156414634Y-94934593D01*
X156414634Y-94934593D02*
X156378348Y-95007165D01*
X156378348Y-95007165D02*
X156342062Y-95043451D01*
X156342062Y-95043451D02*
X156269491Y-95079736D01*
X156269491Y-95079736D02*
X155979205Y-95079736D01*
X155979205Y-95079736D02*
X155979205Y-94317736D01*
X155979205Y-94317736D02*
X156233205Y-94317736D01*
X156233205Y-94317736D02*
X156305777Y-94354022D01*
X156305777Y-94354022D02*
X156342062Y-94390308D01*
X156342062Y-94390308D02*
X156378348Y-94462879D01*
X156378348Y-94462879D02*
X156378348Y-94535451D01*
X156378348Y-94535451D02*
X156342062Y-94608022D01*
X156342062Y-94608022D02*
X156305777Y-94644308D01*
X156305777Y-94644308D02*
X156233205Y-94680593D01*
X156233205Y-94680593D02*
X155979205Y-94680593D01*
X156886348Y-94317736D02*
X156958919Y-94317736D01*
X156958919Y-94317736D02*
X157031491Y-94354022D01*
X157031491Y-94354022D02*
X157067777Y-94390308D01*
X157067777Y-94390308D02*
X157104062Y-94462879D01*
X157104062Y-94462879D02*
X157140348Y-94608022D01*
X157140348Y-94608022D02*
X157140348Y-94789451D01*
X157140348Y-94789451D02*
X157104062Y-94934593D01*
X157104062Y-94934593D02*
X157067777Y-95007165D01*
X157067777Y-95007165D02*
X157031491Y-95043451D01*
X157031491Y-95043451D02*
X156958919Y-95079736D01*
X156958919Y-95079736D02*
X156886348Y-95079736D01*
X156886348Y-95079736D02*
X156813777Y-95043451D01*
X156813777Y-95043451D02*
X156777491Y-95007165D01*
X156777491Y-95007165D02*
X156741205Y-94934593D01*
X156741205Y-94934593D02*
X156704919Y-94789451D01*
X156704919Y-94789451D02*
X156704919Y-94608022D01*
X156704919Y-94608022D02*
X156741205Y-94462879D01*
X156741205Y-94462879D02*
X156777491Y-94390308D01*
X156777491Y-94390308D02*
X156813777Y-94354022D01*
X156813777Y-94354022D02*
X156886348Y-94317736D01*
X141967205Y-92579736D02*
X141967205Y-91817736D01*
X141967205Y-91817736D02*
X142257491Y-91817736D01*
X142257491Y-91817736D02*
X142330062Y-91854022D01*
X142330062Y-91854022D02*
X142366348Y-91890308D01*
X142366348Y-91890308D02*
X142402634Y-91962879D01*
X142402634Y-91962879D02*
X142402634Y-92071736D01*
X142402634Y-92071736D02*
X142366348Y-92144308D01*
X142366348Y-92144308D02*
X142330062Y-92180593D01*
X142330062Y-92180593D02*
X142257491Y-92216879D01*
X142257491Y-92216879D02*
X141967205Y-92216879D01*
X142983205Y-92180593D02*
X143092062Y-92216879D01*
X143092062Y-92216879D02*
X143128348Y-92253165D01*
X143128348Y-92253165D02*
X143164634Y-92325736D01*
X143164634Y-92325736D02*
X143164634Y-92434593D01*
X143164634Y-92434593D02*
X143128348Y-92507165D01*
X143128348Y-92507165D02*
X143092062Y-92543451D01*
X143092062Y-92543451D02*
X143019491Y-92579736D01*
X143019491Y-92579736D02*
X142729205Y-92579736D01*
X142729205Y-92579736D02*
X142729205Y-91817736D01*
X142729205Y-91817736D02*
X142983205Y-91817736D01*
X142983205Y-91817736D02*
X143055777Y-91854022D01*
X143055777Y-91854022D02*
X143092062Y-91890308D01*
X143092062Y-91890308D02*
X143128348Y-91962879D01*
X143128348Y-91962879D02*
X143128348Y-92035451D01*
X143128348Y-92035451D02*
X143092062Y-92108022D01*
X143092062Y-92108022D02*
X143055777Y-92144308D01*
X143055777Y-92144308D02*
X142983205Y-92180593D01*
X142983205Y-92180593D02*
X142729205Y-92180593D01*
X143817777Y-92071736D02*
X143817777Y-92579736D01*
X143636348Y-91781451D02*
X143454919Y-92325736D01*
X143454919Y-92325736D02*
X143926634Y-92325736D01*
X155158348Y-86767736D02*
X155412348Y-87529736D01*
X155412348Y-87529736D02*
X155666348Y-86767736D01*
X156355777Y-87457165D02*
X156319491Y-87493451D01*
X156319491Y-87493451D02*
X156210634Y-87529736D01*
X156210634Y-87529736D02*
X156138062Y-87529736D01*
X156138062Y-87529736D02*
X156029205Y-87493451D01*
X156029205Y-87493451D02*
X155956634Y-87420879D01*
X155956634Y-87420879D02*
X155920348Y-87348308D01*
X155920348Y-87348308D02*
X155884062Y-87203165D01*
X155884062Y-87203165D02*
X155884062Y-87094308D01*
X155884062Y-87094308D02*
X155920348Y-86949165D01*
X155920348Y-86949165D02*
X155956634Y-86876593D01*
X155956634Y-86876593D02*
X156029205Y-86804022D01*
X156029205Y-86804022D02*
X156138062Y-86767736D01*
X156138062Y-86767736D02*
X156210634Y-86767736D01*
X156210634Y-86767736D02*
X156319491Y-86804022D01*
X156319491Y-86804022D02*
X156355777Y-86840308D01*
X157117777Y-87457165D02*
X157081491Y-87493451D01*
X157081491Y-87493451D02*
X156972634Y-87529736D01*
X156972634Y-87529736D02*
X156900062Y-87529736D01*
X156900062Y-87529736D02*
X156791205Y-87493451D01*
X156791205Y-87493451D02*
X156718634Y-87420879D01*
X156718634Y-87420879D02*
X156682348Y-87348308D01*
X156682348Y-87348308D02*
X156646062Y-87203165D01*
X156646062Y-87203165D02*
X156646062Y-87094308D01*
X156646062Y-87094308D02*
X156682348Y-86949165D01*
X156682348Y-86949165D02*
X156718634Y-86876593D01*
X156718634Y-86876593D02*
X156791205Y-86804022D01*
X156791205Y-86804022D02*
X156900062Y-86767736D01*
X156900062Y-86767736D02*
X156972634Y-86767736D01*
X156972634Y-86767736D02*
X157081491Y-86804022D01*
X157081491Y-86804022D02*
X157117777Y-86840308D01*
D12*
X132829378Y-84495601D02*
X132876997Y-84447982D01*
X132876997Y-84447982D02*
X132972235Y-84400363D01*
X132972235Y-84400363D02*
X133210330Y-84400363D01*
X133210330Y-84400363D02*
X133305568Y-84447982D01*
X133305568Y-84447982D02*
X133353187Y-84495601D01*
X133353187Y-84495601D02*
X133400806Y-84590839D01*
X133400806Y-84590839D02*
X133400806Y-84686077D01*
X133400806Y-84686077D02*
X133353187Y-84828934D01*
X133353187Y-84828934D02*
X132781759Y-85400363D01*
X132781759Y-85400363D02*
X133400806Y-85400363D01*
D11*
X159356446Y-82932763D02*
X159023113Y-82456572D01*
X158785018Y-82932763D02*
X158785018Y-81932763D01*
X158785018Y-81932763D02*
X159165970Y-81932763D01*
X159165970Y-81932763D02*
X159261208Y-81980382D01*
X159261208Y-81980382D02*
X159308827Y-82028001D01*
X159308827Y-82028001D02*
X159356446Y-82123239D01*
X159356446Y-82123239D02*
X159356446Y-82266096D01*
X159356446Y-82266096D02*
X159308827Y-82361334D01*
X159308827Y-82361334D02*
X159261208Y-82408953D01*
X159261208Y-82408953D02*
X159165970Y-82456572D01*
X159165970Y-82456572D02*
X158785018Y-82456572D01*
X159737399Y-82028001D02*
X159785018Y-81980382D01*
X159785018Y-81980382D02*
X159880256Y-81932763D01*
X159880256Y-81932763D02*
X160118351Y-81932763D01*
X160118351Y-81932763D02*
X160213589Y-81980382D01*
X160213589Y-81980382D02*
X160261208Y-82028001D01*
X160261208Y-82028001D02*
X160308827Y-82123239D01*
X160308827Y-82123239D02*
X160308827Y-82218477D01*
X160308827Y-82218477D02*
X160261208Y-82361334D01*
X160261208Y-82361334D02*
X159689780Y-82932763D01*
X159689780Y-82932763D02*
X160308827Y-82932763D01*
X161856446Y-82932763D02*
X161285018Y-82932763D01*
X161570732Y-82932763D02*
X161570732Y-81932763D01*
X161570732Y-81932763D02*
X161475494Y-82075620D01*
X161475494Y-82075620D02*
X161380256Y-82170858D01*
X161380256Y-82170858D02*
X161285018Y-82218477D01*
X162475494Y-81932763D02*
X162570732Y-81932763D01*
X162570732Y-81932763D02*
X162665970Y-81980382D01*
X162665970Y-81980382D02*
X162713589Y-82028001D01*
X162713589Y-82028001D02*
X162761208Y-82123239D01*
X162761208Y-82123239D02*
X162808827Y-82313715D01*
X162808827Y-82313715D02*
X162808827Y-82551810D01*
X162808827Y-82551810D02*
X162761208Y-82742286D01*
X162761208Y-82742286D02*
X162713589Y-82837524D01*
X162713589Y-82837524D02*
X162665970Y-82885144D01*
X162665970Y-82885144D02*
X162570732Y-82932763D01*
X162570732Y-82932763D02*
X162475494Y-82932763D01*
X162475494Y-82932763D02*
X162380256Y-82885144D01*
X162380256Y-82885144D02*
X162332637Y-82837524D01*
X162332637Y-82837524D02*
X162285018Y-82742286D01*
X162285018Y-82742286D02*
X162237399Y-82551810D01*
X162237399Y-82551810D02*
X162237399Y-82313715D01*
X162237399Y-82313715D02*
X162285018Y-82123239D01*
X162285018Y-82123239D02*
X162332637Y-82028001D01*
X162332637Y-82028001D02*
X162380256Y-81980382D01*
X162380256Y-81980382D02*
X162475494Y-81932763D01*
X163427875Y-81932763D02*
X163523113Y-81932763D01*
X163523113Y-81932763D02*
X163618351Y-81980382D01*
X163618351Y-81980382D02*
X163665970Y-82028001D01*
X163665970Y-82028001D02*
X163713589Y-82123239D01*
X163713589Y-82123239D02*
X163761208Y-82313715D01*
X163761208Y-82313715D02*
X163761208Y-82551810D01*
X163761208Y-82551810D02*
X163713589Y-82742286D01*
X163713589Y-82742286D02*
X163665970Y-82837524D01*
X163665970Y-82837524D02*
X163618351Y-82885144D01*
X163618351Y-82885144D02*
X163523113Y-82932763D01*
X163523113Y-82932763D02*
X163427875Y-82932763D01*
X163427875Y-82932763D02*
X163332637Y-82885144D01*
X163332637Y-82885144D02*
X163285018Y-82837524D01*
X163285018Y-82837524D02*
X163237399Y-82742286D01*
X163237399Y-82742286D02*
X163189780Y-82551810D01*
X163189780Y-82551810D02*
X163189780Y-82313715D01*
X163189780Y-82313715D02*
X163237399Y-82123239D01*
X163237399Y-82123239D02*
X163285018Y-82028001D01*
X163285018Y-82028001D02*
X163332637Y-81980382D01*
X163332637Y-81980382D02*
X163427875Y-81932763D01*
X147989780Y-112085144D02*
X148132637Y-112132763D01*
X148132637Y-112132763D02*
X148370732Y-112132763D01*
X148370732Y-112132763D02*
X148465970Y-112085144D01*
X148465970Y-112085144D02*
X148513589Y-112037524D01*
X148513589Y-112037524D02*
X148561208Y-111942286D01*
X148561208Y-111942286D02*
X148561208Y-111847048D01*
X148561208Y-111847048D02*
X148513589Y-111751810D01*
X148513589Y-111751810D02*
X148465970Y-111704191D01*
X148465970Y-111704191D02*
X148370732Y-111656572D01*
X148370732Y-111656572D02*
X148180256Y-111608953D01*
X148180256Y-111608953D02*
X148085018Y-111561334D01*
X148085018Y-111561334D02*
X148037399Y-111513715D01*
X148037399Y-111513715D02*
X147989780Y-111418477D01*
X147989780Y-111418477D02*
X147989780Y-111323239D01*
X147989780Y-111323239D02*
X148037399Y-111228001D01*
X148037399Y-111228001D02*
X148085018Y-111180382D01*
X148085018Y-111180382D02*
X148180256Y-111132763D01*
X148180256Y-111132763D02*
X148418351Y-111132763D01*
X148418351Y-111132763D02*
X148561208Y-111180382D01*
X148894542Y-111132763D02*
X149132637Y-112132763D01*
X149132637Y-112132763D02*
X149323113Y-111418477D01*
X149323113Y-111418477D02*
X149513589Y-112132763D01*
X149513589Y-112132763D02*
X149751685Y-111132763D01*
X150656446Y-112132763D02*
X150085018Y-112132763D01*
X150370732Y-112132763D02*
X150370732Y-111132763D01*
X150370732Y-111132763D02*
X150275494Y-111275620D01*
X150275494Y-111275620D02*
X150180256Y-111370858D01*
X150180256Y-111370858D02*
X150085018Y-111418477D01*
D14*
X155304064Y-106541799D02*
X155227874Y-106503704D01*
X155227874Y-106503704D02*
X155189779Y-106465608D01*
X155189779Y-106465608D02*
X155151683Y-106389418D01*
X155151683Y-106389418D02*
X155151683Y-106160846D01*
X155151683Y-106160846D02*
X155189779Y-106084656D01*
X155189779Y-106084656D02*
X155227874Y-106046561D01*
X155227874Y-106046561D02*
X155304064Y-106008465D01*
X155304064Y-106008465D02*
X155418350Y-106008465D01*
X155418350Y-106008465D02*
X155494541Y-106046561D01*
X155494541Y-106046561D02*
X155532636Y-106084656D01*
X155532636Y-106084656D02*
X155570731Y-106160846D01*
X155570731Y-106160846D02*
X155570731Y-106389418D01*
X155570731Y-106389418D02*
X155532636Y-106465608D01*
X155532636Y-106465608D02*
X155494541Y-106503704D01*
X155494541Y-106503704D02*
X155418350Y-106541799D01*
X155418350Y-106541799D02*
X155304064Y-106541799D01*
X155913589Y-106008465D02*
X155913589Y-106541799D01*
X155913589Y-106084656D02*
X155951684Y-106046561D01*
X155951684Y-106046561D02*
X156027874Y-106008465D01*
X156027874Y-106008465D02*
X156142160Y-106008465D01*
X156142160Y-106008465D02*
X156218351Y-106046561D01*
X156218351Y-106046561D02*
X156256446Y-106122751D01*
X156256446Y-106122751D02*
X156256446Y-106541799D01*
D11*
X138856446Y-91937524D02*
X138808827Y-91985144D01*
X138808827Y-91985144D02*
X138665970Y-92032763D01*
X138665970Y-92032763D02*
X138570732Y-92032763D01*
X138570732Y-92032763D02*
X138427875Y-91985144D01*
X138427875Y-91985144D02*
X138332637Y-91889905D01*
X138332637Y-91889905D02*
X138285018Y-91794667D01*
X138285018Y-91794667D02*
X138237399Y-91604191D01*
X138237399Y-91604191D02*
X138237399Y-91461334D01*
X138237399Y-91461334D02*
X138285018Y-91270858D01*
X138285018Y-91270858D02*
X138332637Y-91175620D01*
X138332637Y-91175620D02*
X138427875Y-91080382D01*
X138427875Y-91080382D02*
X138570732Y-91032763D01*
X138570732Y-91032763D02*
X138665970Y-91032763D01*
X138665970Y-91032763D02*
X138808827Y-91080382D01*
X138808827Y-91080382D02*
X138856446Y-91128001D01*
X139237399Y-91128001D02*
X139285018Y-91080382D01*
X139285018Y-91080382D02*
X139380256Y-91032763D01*
X139380256Y-91032763D02*
X139618351Y-91032763D01*
X139618351Y-91032763D02*
X139713589Y-91080382D01*
X139713589Y-91080382D02*
X139761208Y-91128001D01*
X139761208Y-91128001D02*
X139808827Y-91223239D01*
X139808827Y-91223239D02*
X139808827Y-91318477D01*
X139808827Y-91318477D02*
X139761208Y-91461334D01*
X139761208Y-91461334D02*
X139189780Y-92032763D01*
X139189780Y-92032763D02*
X139808827Y-92032763D01*
X137465970Y-93537524D02*
X137513589Y-93585144D01*
X137513589Y-93585144D02*
X137465970Y-93632763D01*
X137465970Y-93632763D02*
X137418351Y-93585144D01*
X137418351Y-93585144D02*
X137465970Y-93537524D01*
X137465970Y-93537524D02*
X137465970Y-93632763D01*
X138465969Y-93632763D02*
X137894541Y-93632763D01*
X138180255Y-93632763D02*
X138180255Y-92632763D01*
X138180255Y-92632763D02*
X138085017Y-92775620D01*
X138085017Y-92775620D02*
X137989779Y-92870858D01*
X137989779Y-92870858D02*
X137894541Y-92918477D01*
X139323112Y-92966096D02*
X139323112Y-93632763D01*
X138894541Y-92966096D02*
X138894541Y-93489905D01*
X138894541Y-93489905D02*
X138942160Y-93585144D01*
X138942160Y-93585144D02*
X139037398Y-93632763D01*
X139037398Y-93632763D02*
X139180255Y-93632763D01*
X139180255Y-93632763D02*
X139275493Y-93585144D01*
X139275493Y-93585144D02*
X139323112Y-93537524D01*
X140132636Y-93108953D02*
X139799303Y-93108953D01*
X139799303Y-93632763D02*
X139799303Y-92632763D01*
X139799303Y-92632763D02*
X140275493Y-92632763D01*
X128361208Y-87332763D02*
X128361208Y-88142286D01*
X128361208Y-88142286D02*
X128408827Y-88237524D01*
X128408827Y-88237524D02*
X128456446Y-88285144D01*
X128456446Y-88285144D02*
X128551684Y-88332763D01*
X128551684Y-88332763D02*
X128742160Y-88332763D01*
X128742160Y-88332763D02*
X128837398Y-88285144D01*
X128837398Y-88285144D02*
X128885017Y-88237524D01*
X128885017Y-88237524D02*
X128932636Y-88142286D01*
X128932636Y-88142286D02*
X128932636Y-87332763D01*
X129932636Y-88332763D02*
X129361208Y-88332763D01*
X129646922Y-88332763D02*
X129646922Y-87332763D01*
X129646922Y-87332763D02*
X129551684Y-87475620D01*
X129551684Y-87475620D02*
X129456446Y-87570858D01*
X129456446Y-87570858D02*
X129361208Y-87618477D01*
X120885017Y-90232763D02*
X120408827Y-90232763D01*
X120408827Y-90232763D02*
X120408827Y-89232763D01*
X121123113Y-89232763D02*
X121789779Y-89232763D01*
X121789779Y-89232763D02*
X121361208Y-90232763D01*
X122313589Y-89661334D02*
X122218351Y-89613715D01*
X122218351Y-89613715D02*
X122170732Y-89566096D01*
X122170732Y-89566096D02*
X122123113Y-89470858D01*
X122123113Y-89470858D02*
X122123113Y-89423239D01*
X122123113Y-89423239D02*
X122170732Y-89328001D01*
X122170732Y-89328001D02*
X122218351Y-89280382D01*
X122218351Y-89280382D02*
X122313589Y-89232763D01*
X122313589Y-89232763D02*
X122504065Y-89232763D01*
X122504065Y-89232763D02*
X122599303Y-89280382D01*
X122599303Y-89280382D02*
X122646922Y-89328001D01*
X122646922Y-89328001D02*
X122694541Y-89423239D01*
X122694541Y-89423239D02*
X122694541Y-89470858D01*
X122694541Y-89470858D02*
X122646922Y-89566096D01*
X122646922Y-89566096D02*
X122599303Y-89613715D01*
X122599303Y-89613715D02*
X122504065Y-89661334D01*
X122504065Y-89661334D02*
X122313589Y-89661334D01*
X122313589Y-89661334D02*
X122218351Y-89708953D01*
X122218351Y-89708953D02*
X122170732Y-89756572D01*
X122170732Y-89756572D02*
X122123113Y-89851810D01*
X122123113Y-89851810D02*
X122123113Y-90042286D01*
X122123113Y-90042286D02*
X122170732Y-90137524D01*
X122170732Y-90137524D02*
X122218351Y-90185144D01*
X122218351Y-90185144D02*
X122313589Y-90232763D01*
X122313589Y-90232763D02*
X122504065Y-90232763D01*
X122504065Y-90232763D02*
X122599303Y-90185144D01*
X122599303Y-90185144D02*
X122646922Y-90137524D01*
X122646922Y-90137524D02*
X122694541Y-90042286D01*
X122694541Y-90042286D02*
X122694541Y-89851810D01*
X122694541Y-89851810D02*
X122646922Y-89756572D01*
X122646922Y-89756572D02*
X122599303Y-89708953D01*
X122599303Y-89708953D02*
X122504065Y-89661334D01*
X123599303Y-90232763D02*
X123123113Y-90232763D01*
X123123113Y-90232763D02*
X123123113Y-89232763D01*
X123837399Y-89232763D02*
X124456446Y-89232763D01*
X124456446Y-89232763D02*
X124123113Y-89613715D01*
X124123113Y-89613715D02*
X124265970Y-89613715D01*
X124265970Y-89613715D02*
X124361208Y-89661334D01*
X124361208Y-89661334D02*
X124408827Y-89708953D01*
X124408827Y-89708953D02*
X124456446Y-89804191D01*
X124456446Y-89804191D02*
X124456446Y-90042286D01*
X124456446Y-90042286D02*
X124408827Y-90137524D01*
X124408827Y-90137524D02*
X124361208Y-90185144D01*
X124361208Y-90185144D02*
X124265970Y-90232763D01*
X124265970Y-90232763D02*
X123980256Y-90232763D01*
X123980256Y-90232763D02*
X123885018Y-90185144D01*
X123885018Y-90185144D02*
X123837399Y-90137524D01*
X124789780Y-89232763D02*
X125408827Y-89232763D01*
X125408827Y-89232763D02*
X125075494Y-89613715D01*
X125075494Y-89613715D02*
X125218351Y-89613715D01*
X125218351Y-89613715D02*
X125313589Y-89661334D01*
X125313589Y-89661334D02*
X125361208Y-89708953D01*
X125361208Y-89708953D02*
X125408827Y-89804191D01*
X125408827Y-89804191D02*
X125408827Y-90042286D01*
X125408827Y-90042286D02*
X125361208Y-90137524D01*
X125361208Y-90137524D02*
X125313589Y-90185144D01*
X125313589Y-90185144D02*
X125218351Y-90232763D01*
X125218351Y-90232763D02*
X124932637Y-90232763D01*
X124932637Y-90232763D02*
X124837399Y-90185144D01*
X124837399Y-90185144D02*
X124789780Y-90137524D01*
X125599304Y-90328001D02*
X126361208Y-90328001D01*
X126456447Y-89232763D02*
X127027875Y-89232763D01*
X126742161Y-90232763D02*
X126742161Y-89232763D01*
X127551685Y-89232763D02*
X127742161Y-89232763D01*
X127742161Y-89232763D02*
X127837399Y-89280382D01*
X127837399Y-89280382D02*
X127932637Y-89375620D01*
X127932637Y-89375620D02*
X127980256Y-89566096D01*
X127980256Y-89566096D02*
X127980256Y-89899429D01*
X127980256Y-89899429D02*
X127932637Y-90089905D01*
X127932637Y-90089905D02*
X127837399Y-90185144D01*
X127837399Y-90185144D02*
X127742161Y-90232763D01*
X127742161Y-90232763D02*
X127551685Y-90232763D01*
X127551685Y-90232763D02*
X127456447Y-90185144D01*
X127456447Y-90185144D02*
X127361209Y-90089905D01*
X127361209Y-90089905D02*
X127313590Y-89899429D01*
X127313590Y-89899429D02*
X127313590Y-89566096D01*
X127313590Y-89566096D02*
X127361209Y-89375620D01*
X127361209Y-89375620D02*
X127456447Y-89280382D01*
X127456447Y-89280382D02*
X127551685Y-89232763D01*
X128456447Y-90232763D02*
X128646923Y-90232763D01*
X128646923Y-90232763D02*
X128742161Y-90185144D01*
X128742161Y-90185144D02*
X128789780Y-90137524D01*
X128789780Y-90137524D02*
X128885018Y-89994667D01*
X128885018Y-89994667D02*
X128932637Y-89804191D01*
X128932637Y-89804191D02*
X128932637Y-89423239D01*
X128932637Y-89423239D02*
X128885018Y-89328001D01*
X128885018Y-89328001D02*
X128837399Y-89280382D01*
X128837399Y-89280382D02*
X128742161Y-89232763D01*
X128742161Y-89232763D02*
X128551685Y-89232763D01*
X128551685Y-89232763D02*
X128456447Y-89280382D01*
X128456447Y-89280382D02*
X128408828Y-89328001D01*
X128408828Y-89328001D02*
X128361209Y-89423239D01*
X128361209Y-89423239D02*
X128361209Y-89661334D01*
X128361209Y-89661334D02*
X128408828Y-89756572D01*
X128408828Y-89756572D02*
X128456447Y-89804191D01*
X128456447Y-89804191D02*
X128551685Y-89851810D01*
X128551685Y-89851810D02*
X128742161Y-89851810D01*
X128742161Y-89851810D02*
X128837399Y-89804191D01*
X128837399Y-89804191D02*
X128885018Y-89756572D01*
X128885018Y-89756572D02*
X128932637Y-89661334D01*
X129313590Y-89328001D02*
X129361209Y-89280382D01*
X129361209Y-89280382D02*
X129456447Y-89232763D01*
X129456447Y-89232763D02*
X129694542Y-89232763D01*
X129694542Y-89232763D02*
X129789780Y-89280382D01*
X129789780Y-89280382D02*
X129837399Y-89328001D01*
X129837399Y-89328001D02*
X129885018Y-89423239D01*
X129885018Y-89423239D02*
X129885018Y-89518477D01*
X129885018Y-89518477D02*
X129837399Y-89661334D01*
X129837399Y-89661334D02*
X129265971Y-90232763D01*
X129265971Y-90232763D02*
X129885018Y-90232763D01*
X143620868Y-82132763D02*
X143620868Y-82942286D01*
X143620868Y-82942286D02*
X143668487Y-83037524D01*
X143668487Y-83037524D02*
X143716106Y-83085144D01*
X143716106Y-83085144D02*
X143811344Y-83132763D01*
X143811344Y-83132763D02*
X144001820Y-83132763D01*
X144001820Y-83132763D02*
X144097058Y-83085144D01*
X144097058Y-83085144D02*
X144144677Y-83037524D01*
X144144677Y-83037524D02*
X144192296Y-82942286D01*
X144192296Y-82942286D02*
X144192296Y-82132763D01*
X144620868Y-82228001D02*
X144668487Y-82180382D01*
X144668487Y-82180382D02*
X144763725Y-82132763D01*
X144763725Y-82132763D02*
X145001820Y-82132763D01*
X145001820Y-82132763D02*
X145097058Y-82180382D01*
X145097058Y-82180382D02*
X145144677Y-82228001D01*
X145144677Y-82228001D02*
X145192296Y-82323239D01*
X145192296Y-82323239D02*
X145192296Y-82418477D01*
X145192296Y-82418477D02*
X145144677Y-82561334D01*
X145144677Y-82561334D02*
X144573249Y-83132763D01*
X144573249Y-83132763D02*
X145192296Y-83132763D01*
X143718636Y-84547048D02*
X144194826Y-84547048D01*
X143623398Y-84832763D02*
X143956731Y-83832763D01*
X143956731Y-83832763D02*
X144290064Y-84832763D01*
X144480541Y-83832763D02*
X145051969Y-83832763D01*
X144766255Y-84832763D02*
X144766255Y-83832763D01*
X145242446Y-83832763D02*
X145813874Y-83832763D01*
X145528160Y-84832763D02*
X145528160Y-83832763D01*
X146147208Y-84832763D02*
X146147208Y-83832763D01*
X146623398Y-84832763D02*
X146623398Y-83832763D01*
X146623398Y-83832763D02*
X147194826Y-84832763D01*
X147194826Y-84832763D02*
X147194826Y-83832763D01*
X147861493Y-84356572D02*
X147861493Y-84832763D01*
X147528160Y-83832763D02*
X147861493Y-84356572D01*
X147861493Y-84356572D02*
X148194826Y-83832763D01*
X148671017Y-84261334D02*
X148575779Y-84213715D01*
X148575779Y-84213715D02*
X148528160Y-84166096D01*
X148528160Y-84166096D02*
X148480541Y-84070858D01*
X148480541Y-84070858D02*
X148480541Y-84023239D01*
X148480541Y-84023239D02*
X148528160Y-83928001D01*
X148528160Y-83928001D02*
X148575779Y-83880382D01*
X148575779Y-83880382D02*
X148671017Y-83832763D01*
X148671017Y-83832763D02*
X148861493Y-83832763D01*
X148861493Y-83832763D02*
X148956731Y-83880382D01*
X148956731Y-83880382D02*
X149004350Y-83928001D01*
X149004350Y-83928001D02*
X149051969Y-84023239D01*
X149051969Y-84023239D02*
X149051969Y-84070858D01*
X149051969Y-84070858D02*
X149004350Y-84166096D01*
X149004350Y-84166096D02*
X148956731Y-84213715D01*
X148956731Y-84213715D02*
X148861493Y-84261334D01*
X148861493Y-84261334D02*
X148671017Y-84261334D01*
X148671017Y-84261334D02*
X148575779Y-84308953D01*
X148575779Y-84308953D02*
X148528160Y-84356572D01*
X148528160Y-84356572D02*
X148480541Y-84451810D01*
X148480541Y-84451810D02*
X148480541Y-84642286D01*
X148480541Y-84642286D02*
X148528160Y-84737524D01*
X148528160Y-84737524D02*
X148575779Y-84785144D01*
X148575779Y-84785144D02*
X148671017Y-84832763D01*
X148671017Y-84832763D02*
X148861493Y-84832763D01*
X148861493Y-84832763D02*
X148956731Y-84785144D01*
X148956731Y-84785144D02*
X149004350Y-84737524D01*
X149004350Y-84737524D02*
X149051969Y-84642286D01*
X149051969Y-84642286D02*
X149051969Y-84451810D01*
X149051969Y-84451810D02*
X149004350Y-84356572D01*
X149004350Y-84356572D02*
X148956731Y-84308953D01*
X148956731Y-84308953D02*
X148861493Y-84261334D01*
X149956731Y-83832763D02*
X149480541Y-83832763D01*
X149480541Y-83832763D02*
X149432922Y-84308953D01*
X149432922Y-84308953D02*
X149480541Y-84261334D01*
X149480541Y-84261334D02*
X149575779Y-84213715D01*
X149575779Y-84213715D02*
X149813874Y-84213715D01*
X149813874Y-84213715D02*
X149909112Y-84261334D01*
X149909112Y-84261334D02*
X149956731Y-84308953D01*
X149956731Y-84308953D02*
X150004350Y-84404191D01*
X150004350Y-84404191D02*
X150004350Y-84642286D01*
X150004350Y-84642286D02*
X149956731Y-84737524D01*
X149956731Y-84737524D02*
X149909112Y-84785144D01*
X149909112Y-84785144D02*
X149813874Y-84832763D01*
X149813874Y-84832763D02*
X149575779Y-84832763D01*
X149575779Y-84832763D02*
X149480541Y-84785144D01*
X149480541Y-84785144D02*
X149432922Y-84737524D01*
X150432922Y-84451810D02*
X151194827Y-84451810D01*
X151623398Y-83928001D02*
X151671017Y-83880382D01*
X151671017Y-83880382D02*
X151766255Y-83832763D01*
X151766255Y-83832763D02*
X152004350Y-83832763D01*
X152004350Y-83832763D02*
X152099588Y-83880382D01*
X152099588Y-83880382D02*
X152147207Y-83928001D01*
X152147207Y-83928001D02*
X152194826Y-84023239D01*
X152194826Y-84023239D02*
X152194826Y-84118477D01*
X152194826Y-84118477D02*
X152147207Y-84261334D01*
X152147207Y-84261334D02*
X151575779Y-84832763D01*
X151575779Y-84832763D02*
X152194826Y-84832763D01*
X152813874Y-83832763D02*
X152909112Y-83832763D01*
X152909112Y-83832763D02*
X153004350Y-83880382D01*
X153004350Y-83880382D02*
X153051969Y-83928001D01*
X153051969Y-83928001D02*
X153099588Y-84023239D01*
X153099588Y-84023239D02*
X153147207Y-84213715D01*
X153147207Y-84213715D02*
X153147207Y-84451810D01*
X153147207Y-84451810D02*
X153099588Y-84642286D01*
X153099588Y-84642286D02*
X153051969Y-84737524D01*
X153051969Y-84737524D02*
X153004350Y-84785144D01*
X153004350Y-84785144D02*
X152909112Y-84832763D01*
X152909112Y-84832763D02*
X152813874Y-84832763D01*
X152813874Y-84832763D02*
X152718636Y-84785144D01*
X152718636Y-84785144D02*
X152671017Y-84737524D01*
X152671017Y-84737524D02*
X152623398Y-84642286D01*
X152623398Y-84642286D02*
X152575779Y-84451810D01*
X152575779Y-84451810D02*
X152575779Y-84213715D01*
X152575779Y-84213715D02*
X152623398Y-84023239D01*
X152623398Y-84023239D02*
X152671017Y-83928001D01*
X152671017Y-83928001D02*
X152718636Y-83880382D01*
X152718636Y-83880382D02*
X152813874Y-83832763D01*
X153575779Y-84832763D02*
X153575779Y-83832763D01*
X153575779Y-83832763D02*
X153956731Y-83832763D01*
X153956731Y-83832763D02*
X154051969Y-83880382D01*
X154051969Y-83880382D02*
X154099588Y-83928001D01*
X154099588Y-83928001D02*
X154147207Y-84023239D01*
X154147207Y-84023239D02*
X154147207Y-84166096D01*
X154147207Y-84166096D02*
X154099588Y-84261334D01*
X154099588Y-84261334D02*
X154051969Y-84308953D01*
X154051969Y-84308953D02*
X153956731Y-84356572D01*
X153956731Y-84356572D02*
X153575779Y-84356572D01*
X154575779Y-83832763D02*
X154575779Y-84642286D01*
X154575779Y-84642286D02*
X154623398Y-84737524D01*
X154623398Y-84737524D02*
X154671017Y-84785144D01*
X154671017Y-84785144D02*
X154766255Y-84832763D01*
X154766255Y-84832763D02*
X154956731Y-84832763D01*
X154956731Y-84832763D02*
X155051969Y-84785144D01*
X155051969Y-84785144D02*
X155099588Y-84737524D01*
X155099588Y-84737524D02*
X155147207Y-84642286D01*
X155147207Y-84642286D02*
X155147207Y-83832763D01*
X182633992Y-94884047D02*
X181633992Y-94884047D01*
X181633992Y-94884047D02*
X181633992Y-94645952D01*
X181633992Y-94645952D02*
X181681611Y-94503095D01*
X181681611Y-94503095D02*
X181776849Y-94407857D01*
X181776849Y-94407857D02*
X181872087Y-94360238D01*
X181872087Y-94360238D02*
X182062563Y-94312619D01*
X182062563Y-94312619D02*
X182205420Y-94312619D01*
X182205420Y-94312619D02*
X182395896Y-94360238D01*
X182395896Y-94360238D02*
X182491134Y-94407857D01*
X182491134Y-94407857D02*
X182586373Y-94503095D01*
X182586373Y-94503095D02*
X182633992Y-94645952D01*
X182633992Y-94645952D02*
X182633992Y-94884047D01*
X181729230Y-93931666D02*
X181681611Y-93884047D01*
X181681611Y-93884047D02*
X181633992Y-93788809D01*
X181633992Y-93788809D02*
X181633992Y-93550714D01*
X181633992Y-93550714D02*
X181681611Y-93455476D01*
X181681611Y-93455476D02*
X181729230Y-93407857D01*
X181729230Y-93407857D02*
X181824468Y-93360238D01*
X181824468Y-93360238D02*
X181919706Y-93360238D01*
X181919706Y-93360238D02*
X182062563Y-93407857D01*
X182062563Y-93407857D02*
X182633992Y-93979285D01*
X182633992Y-93979285D02*
X182633992Y-93360238D01*
X182533992Y-91388810D02*
X182533992Y-91960238D01*
X182533992Y-91674524D02*
X181533992Y-91674524D01*
X181533992Y-91674524D02*
X181676849Y-91769762D01*
X181676849Y-91769762D02*
X181772087Y-91865000D01*
X181772087Y-91865000D02*
X181819706Y-91960238D01*
X182533992Y-90960238D02*
X181533992Y-90960238D01*
X181533992Y-90960238D02*
X182533992Y-90388810D01*
X182533992Y-90388810D02*
X181533992Y-90388810D01*
X181533992Y-89436429D02*
X181533992Y-89912619D01*
X181533992Y-89912619D02*
X182010182Y-89960238D01*
X182010182Y-89960238D02*
X181962563Y-89912619D01*
X181962563Y-89912619D02*
X181914944Y-89817381D01*
X181914944Y-89817381D02*
X181914944Y-89579286D01*
X181914944Y-89579286D02*
X181962563Y-89484048D01*
X181962563Y-89484048D02*
X182010182Y-89436429D01*
X182010182Y-89436429D02*
X182105420Y-89388810D01*
X182105420Y-89388810D02*
X182343515Y-89388810D01*
X182343515Y-89388810D02*
X182438753Y-89436429D01*
X182438753Y-89436429D02*
X182486373Y-89484048D01*
X182486373Y-89484048D02*
X182533992Y-89579286D01*
X182533992Y-89579286D02*
X182533992Y-89817381D01*
X182533992Y-89817381D02*
X182486373Y-89912619D01*
X182486373Y-89912619D02*
X182438753Y-89960238D01*
X181962563Y-88817381D02*
X181914944Y-88912619D01*
X181914944Y-88912619D02*
X181867325Y-88960238D01*
X181867325Y-88960238D02*
X181772087Y-89007857D01*
X181772087Y-89007857D02*
X181724468Y-89007857D01*
X181724468Y-89007857D02*
X181629230Y-88960238D01*
X181629230Y-88960238D02*
X181581611Y-88912619D01*
X181581611Y-88912619D02*
X181533992Y-88817381D01*
X181533992Y-88817381D02*
X181533992Y-88626905D01*
X181533992Y-88626905D02*
X181581611Y-88531667D01*
X181581611Y-88531667D02*
X181629230Y-88484048D01*
X181629230Y-88484048D02*
X181724468Y-88436429D01*
X181724468Y-88436429D02*
X181772087Y-88436429D01*
X181772087Y-88436429D02*
X181867325Y-88484048D01*
X181867325Y-88484048D02*
X181914944Y-88531667D01*
X181914944Y-88531667D02*
X181962563Y-88626905D01*
X181962563Y-88626905D02*
X181962563Y-88817381D01*
X181962563Y-88817381D02*
X182010182Y-88912619D01*
X182010182Y-88912619D02*
X182057801Y-88960238D01*
X182057801Y-88960238D02*
X182153039Y-89007857D01*
X182153039Y-89007857D02*
X182343515Y-89007857D01*
X182343515Y-89007857D02*
X182438753Y-88960238D01*
X182438753Y-88960238D02*
X182486373Y-88912619D01*
X182486373Y-88912619D02*
X182533992Y-88817381D01*
X182533992Y-88817381D02*
X182533992Y-88626905D01*
X182533992Y-88626905D02*
X182486373Y-88531667D01*
X182486373Y-88531667D02*
X182438753Y-88484048D01*
X182438753Y-88484048D02*
X182343515Y-88436429D01*
X182343515Y-88436429D02*
X182153039Y-88436429D01*
X182153039Y-88436429D02*
X182057801Y-88484048D01*
X182057801Y-88484048D02*
X182010182Y-88531667D01*
X182010182Y-88531667D02*
X181962563Y-88626905D01*
X182533992Y-87484048D02*
X182533992Y-88055476D01*
X182533992Y-87769762D02*
X181533992Y-87769762D01*
X181533992Y-87769762D02*
X181676849Y-87865000D01*
X181676849Y-87865000D02*
X181772087Y-87960238D01*
X181772087Y-87960238D02*
X181819706Y-88055476D01*
X181533992Y-87150714D02*
X181533992Y-86484048D01*
X181533992Y-86484048D02*
X182533992Y-86912619D01*
X182153039Y-86103095D02*
X182153039Y-85341191D01*
X181533992Y-85007857D02*
X181533992Y-84436429D01*
X182533992Y-84722143D02*
X181533992Y-84722143D01*
X127189779Y-107432763D02*
X127189779Y-108147048D01*
X127189779Y-108147048D02*
X127142160Y-108289905D01*
X127142160Y-108289905D02*
X127046922Y-108385144D01*
X127046922Y-108385144D02*
X126904065Y-108432763D01*
X126904065Y-108432763D02*
X126808827Y-108432763D01*
X128189779Y-108432763D02*
X127618351Y-108432763D01*
X127904065Y-108432763D02*
X127904065Y-107432763D01*
X127904065Y-107432763D02*
X127808827Y-107575620D01*
X127808827Y-107575620D02*
X127713589Y-107670858D01*
X127713589Y-107670858D02*
X127618351Y-107718477D01*
X129813589Y-108432763D02*
X129813589Y-107432763D01*
X129813589Y-107432763D02*
X130146922Y-108147048D01*
X130146922Y-108147048D02*
X130480255Y-107432763D01*
X130480255Y-107432763D02*
X130480255Y-108432763D01*
X131099303Y-108432763D02*
X131004065Y-108385144D01*
X131004065Y-108385144D02*
X130956446Y-108337524D01*
X130956446Y-108337524D02*
X130908827Y-108242286D01*
X130908827Y-108242286D02*
X130908827Y-107956572D01*
X130908827Y-107956572D02*
X130956446Y-107861334D01*
X130956446Y-107861334D02*
X131004065Y-107813715D01*
X131004065Y-107813715D02*
X131099303Y-107766096D01*
X131099303Y-107766096D02*
X131242160Y-107766096D01*
X131242160Y-107766096D02*
X131337398Y-107813715D01*
X131337398Y-107813715D02*
X131385017Y-107861334D01*
X131385017Y-107861334D02*
X131432636Y-107956572D01*
X131432636Y-107956572D02*
X131432636Y-108242286D01*
X131432636Y-108242286D02*
X131385017Y-108337524D01*
X131385017Y-108337524D02*
X131337398Y-108385144D01*
X131337398Y-108385144D02*
X131242160Y-108432763D01*
X131242160Y-108432763D02*
X131099303Y-108432763D01*
X132004065Y-108432763D02*
X131908827Y-108385144D01*
X131908827Y-108385144D02*
X131861208Y-108289905D01*
X131861208Y-108289905D02*
X131861208Y-107432763D01*
X132765970Y-108385144D02*
X132670732Y-108432763D01*
X132670732Y-108432763D02*
X132480256Y-108432763D01*
X132480256Y-108432763D02*
X132385018Y-108385144D01*
X132385018Y-108385144D02*
X132337399Y-108289905D01*
X132337399Y-108289905D02*
X132337399Y-107908953D01*
X132337399Y-107908953D02*
X132385018Y-107813715D01*
X132385018Y-107813715D02*
X132480256Y-107766096D01*
X132480256Y-107766096D02*
X132670732Y-107766096D01*
X132670732Y-107766096D02*
X132765970Y-107813715D01*
X132765970Y-107813715D02*
X132813589Y-107908953D01*
X132813589Y-107908953D02*
X132813589Y-108004191D01*
X132813589Y-108004191D02*
X132337399Y-108099429D01*
X133146923Y-108432763D02*
X133670732Y-107766096D01*
X133146923Y-107766096D02*
X133670732Y-108432763D01*
X134813590Y-108432763D02*
X134813590Y-107432763D01*
X135385018Y-108432763D02*
X134956447Y-107861334D01*
X135385018Y-107432763D02*
X134813590Y-108004191D01*
X135813590Y-108432763D02*
X135813590Y-107432763D01*
X136385018Y-108432763D02*
X135956447Y-107861334D01*
X136385018Y-107432763D02*
X135813590Y-108004191D01*
X136813590Y-108051810D02*
X137575495Y-108051810D01*
X138004066Y-107528001D02*
X138051685Y-107480382D01*
X138051685Y-107480382D02*
X138146923Y-107432763D01*
X138146923Y-107432763D02*
X138385018Y-107432763D01*
X138385018Y-107432763D02*
X138480256Y-107480382D01*
X138480256Y-107480382D02*
X138527875Y-107528001D01*
X138527875Y-107528001D02*
X138575494Y-107623239D01*
X138575494Y-107623239D02*
X138575494Y-107718477D01*
X138575494Y-107718477D02*
X138527875Y-107861334D01*
X138527875Y-107861334D02*
X137956447Y-108432763D01*
X137956447Y-108432763D02*
X138575494Y-108432763D01*
X139480256Y-107432763D02*
X139004066Y-107432763D01*
X139004066Y-107432763D02*
X138956447Y-107908953D01*
X138956447Y-107908953D02*
X139004066Y-107861334D01*
X139004066Y-107861334D02*
X139099304Y-107813715D01*
X139099304Y-107813715D02*
X139337399Y-107813715D01*
X139337399Y-107813715D02*
X139432637Y-107861334D01*
X139432637Y-107861334D02*
X139480256Y-107908953D01*
X139480256Y-107908953D02*
X139527875Y-108004191D01*
X139527875Y-108004191D02*
X139527875Y-108242286D01*
X139527875Y-108242286D02*
X139480256Y-108337524D01*
X139480256Y-108337524D02*
X139432637Y-108385144D01*
X139432637Y-108385144D02*
X139337399Y-108432763D01*
X139337399Y-108432763D02*
X139099304Y-108432763D01*
X139099304Y-108432763D02*
X139004066Y-108385144D01*
X139004066Y-108385144D02*
X138956447Y-108337524D01*
X140385018Y-107766096D02*
X140385018Y-108432763D01*
X140146923Y-107385144D02*
X139908828Y-108099429D01*
X139908828Y-108099429D02*
X140527875Y-108099429D01*
X128391129Y-92405766D02*
X128343510Y-92453386D01*
X128343510Y-92453386D02*
X128200653Y-92501005D01*
X128200653Y-92501005D02*
X128105415Y-92501005D01*
X128105415Y-92501005D02*
X127962558Y-92453386D01*
X127962558Y-92453386D02*
X127867320Y-92358147D01*
X127867320Y-92358147D02*
X127819701Y-92262909D01*
X127819701Y-92262909D02*
X127772082Y-92072433D01*
X127772082Y-92072433D02*
X127772082Y-91929576D01*
X127772082Y-91929576D02*
X127819701Y-91739100D01*
X127819701Y-91739100D02*
X127867320Y-91643862D01*
X127867320Y-91643862D02*
X127962558Y-91548624D01*
X127962558Y-91548624D02*
X128105415Y-91501005D01*
X128105415Y-91501005D02*
X128200653Y-91501005D01*
X128200653Y-91501005D02*
X128343510Y-91548624D01*
X128343510Y-91548624D02*
X128391129Y-91596243D01*
X129343510Y-92501005D02*
X128772082Y-92501005D01*
X129057796Y-92501005D02*
X129057796Y-91501005D01*
X129057796Y-91501005D02*
X128962558Y-91643862D01*
X128962558Y-91643862D02*
X128867320Y-91739100D01*
X128867320Y-91739100D02*
X128772082Y-91786719D01*
X126424463Y-94205766D02*
X126472082Y-94253386D01*
X126472082Y-94253386D02*
X126424463Y-94301005D01*
X126424463Y-94301005D02*
X126376844Y-94253386D01*
X126376844Y-94253386D02*
X126424463Y-94205766D01*
X126424463Y-94205766D02*
X126424463Y-94301005D01*
X126805415Y-93301005D02*
X127424462Y-93301005D01*
X127424462Y-93301005D02*
X127091129Y-93681957D01*
X127091129Y-93681957D02*
X127233986Y-93681957D01*
X127233986Y-93681957D02*
X127329224Y-93729576D01*
X127329224Y-93729576D02*
X127376843Y-93777195D01*
X127376843Y-93777195D02*
X127424462Y-93872433D01*
X127424462Y-93872433D02*
X127424462Y-94110528D01*
X127424462Y-94110528D02*
X127376843Y-94205766D01*
X127376843Y-94205766D02*
X127329224Y-94253386D01*
X127329224Y-94253386D02*
X127233986Y-94301005D01*
X127233986Y-94301005D02*
X126948272Y-94301005D01*
X126948272Y-94301005D02*
X126853034Y-94253386D01*
X126853034Y-94253386D02*
X126805415Y-94205766D01*
X127757796Y-93301005D02*
X128376843Y-93301005D01*
X128376843Y-93301005D02*
X128043510Y-93681957D01*
X128043510Y-93681957D02*
X128186367Y-93681957D01*
X128186367Y-93681957D02*
X128281605Y-93729576D01*
X128281605Y-93729576D02*
X128329224Y-93777195D01*
X128329224Y-93777195D02*
X128376843Y-93872433D01*
X128376843Y-93872433D02*
X128376843Y-94110528D01*
X128376843Y-94110528D02*
X128329224Y-94205766D01*
X128329224Y-94205766D02*
X128281605Y-94253386D01*
X128281605Y-94253386D02*
X128186367Y-94301005D01*
X128186367Y-94301005D02*
X127900653Y-94301005D01*
X127900653Y-94301005D02*
X127805415Y-94253386D01*
X127805415Y-94253386D02*
X127757796Y-94205766D01*
X129233986Y-93634338D02*
X129233986Y-94301005D01*
X128805415Y-93634338D02*
X128805415Y-94158147D01*
X128805415Y-94158147D02*
X128853034Y-94253386D01*
X128853034Y-94253386D02*
X128948272Y-94301005D01*
X128948272Y-94301005D02*
X129091129Y-94301005D01*
X129091129Y-94301005D02*
X129186367Y-94253386D01*
X129186367Y-94253386D02*
X129233986Y-94205766D01*
X130043510Y-93777195D02*
X129710177Y-93777195D01*
X129710177Y-94301005D02*
X129710177Y-93301005D01*
X129710177Y-93301005D02*
X130186367Y-93301005D01*
X159356446Y-92942291D02*
X159023113Y-92466100D01*
X158785018Y-92942291D02*
X158785018Y-91942291D01*
X158785018Y-91942291D02*
X159165970Y-91942291D01*
X159165970Y-91942291D02*
X159261208Y-91989910D01*
X159261208Y-91989910D02*
X159308827Y-92037529D01*
X159308827Y-92037529D02*
X159356446Y-92132767D01*
X159356446Y-92132767D02*
X159356446Y-92275624D01*
X159356446Y-92275624D02*
X159308827Y-92370862D01*
X159308827Y-92370862D02*
X159261208Y-92418481D01*
X159261208Y-92418481D02*
X159165970Y-92466100D01*
X159165970Y-92466100D02*
X158785018Y-92466100D01*
X160308827Y-92942291D02*
X159737399Y-92942291D01*
X160023113Y-92942291D02*
X160023113Y-91942291D01*
X160023113Y-91942291D02*
X159927875Y-92085148D01*
X159927875Y-92085148D02*
X159832637Y-92180386D01*
X159832637Y-92180386D02*
X159737399Y-92228005D01*
X161856446Y-92992291D02*
X161285018Y-92992291D01*
X161570732Y-92992291D02*
X161570732Y-91992291D01*
X161570732Y-91992291D02*
X161475494Y-92135148D01*
X161475494Y-92135148D02*
X161380256Y-92230386D01*
X161380256Y-92230386D02*
X161285018Y-92278005D01*
X162475494Y-91992291D02*
X162570732Y-91992291D01*
X162570732Y-91992291D02*
X162665970Y-92039910D01*
X162665970Y-92039910D02*
X162713589Y-92087529D01*
X162713589Y-92087529D02*
X162761208Y-92182767D01*
X162761208Y-92182767D02*
X162808827Y-92373243D01*
X162808827Y-92373243D02*
X162808827Y-92611338D01*
X162808827Y-92611338D02*
X162761208Y-92801814D01*
X162761208Y-92801814D02*
X162713589Y-92897052D01*
X162713589Y-92897052D02*
X162665970Y-92944672D01*
X162665970Y-92944672D02*
X162570732Y-92992291D01*
X162570732Y-92992291D02*
X162475494Y-92992291D01*
X162475494Y-92992291D02*
X162380256Y-92944672D01*
X162380256Y-92944672D02*
X162332637Y-92897052D01*
X162332637Y-92897052D02*
X162285018Y-92801814D01*
X162285018Y-92801814D02*
X162237399Y-92611338D01*
X162237399Y-92611338D02*
X162237399Y-92373243D01*
X162237399Y-92373243D02*
X162285018Y-92182767D01*
X162285018Y-92182767D02*
X162332637Y-92087529D01*
X162332637Y-92087529D02*
X162380256Y-92039910D01*
X162380256Y-92039910D02*
X162475494Y-91992291D01*
X163427875Y-91992291D02*
X163523113Y-91992291D01*
X163523113Y-91992291D02*
X163618351Y-92039910D01*
X163618351Y-92039910D02*
X163665970Y-92087529D01*
X163665970Y-92087529D02*
X163713589Y-92182767D01*
X163713589Y-92182767D02*
X163761208Y-92373243D01*
X163761208Y-92373243D02*
X163761208Y-92611338D01*
X163761208Y-92611338D02*
X163713589Y-92801814D01*
X163713589Y-92801814D02*
X163665970Y-92897052D01*
X163665970Y-92897052D02*
X163618351Y-92944672D01*
X163618351Y-92944672D02*
X163523113Y-92992291D01*
X163523113Y-92992291D02*
X163427875Y-92992291D01*
X163427875Y-92992291D02*
X163332637Y-92944672D01*
X163332637Y-92944672D02*
X163285018Y-92897052D01*
X163285018Y-92897052D02*
X163237399Y-92801814D01*
X163237399Y-92801814D02*
X163189780Y-92611338D01*
X163189780Y-92611338D02*
X163189780Y-92373243D01*
X163189780Y-92373243D02*
X163237399Y-92182767D01*
X163237399Y-92182767D02*
X163285018Y-92087529D01*
X163285018Y-92087529D02*
X163332637Y-92039910D01*
X163332637Y-92039910D02*
X163427875Y-91992291D01*
X170770184Y-91411996D02*
X170770184Y-90411996D01*
X170770184Y-90411996D02*
X171008279Y-90411996D01*
X171008279Y-90411996D02*
X171151136Y-90459615D01*
X171151136Y-90459615D02*
X171246374Y-90554853D01*
X171246374Y-90554853D02*
X171293993Y-90650091D01*
X171293993Y-90650091D02*
X171341612Y-90840567D01*
X171341612Y-90840567D02*
X171341612Y-90983424D01*
X171341612Y-90983424D02*
X171293993Y-91173900D01*
X171293993Y-91173900D02*
X171246374Y-91269138D01*
X171246374Y-91269138D02*
X171151136Y-91364377D01*
X171151136Y-91364377D02*
X171008279Y-91411996D01*
X171008279Y-91411996D02*
X170770184Y-91411996D01*
X172293993Y-91411996D02*
X171722565Y-91411996D01*
X172008279Y-91411996D02*
X172008279Y-90411996D01*
X172008279Y-90411996D02*
X171913041Y-90554853D01*
X171913041Y-90554853D02*
X171817803Y-90650091D01*
X171817803Y-90650091D02*
X171722565Y-90697710D01*
X171242875Y-92740636D02*
X170909542Y-92264445D01*
X170671447Y-92740636D02*
X170671447Y-91740636D01*
X170671447Y-91740636D02*
X171052399Y-91740636D01*
X171052399Y-91740636D02*
X171147637Y-91788255D01*
X171147637Y-91788255D02*
X171195256Y-91835874D01*
X171195256Y-91835874D02*
X171242875Y-91931112D01*
X171242875Y-91931112D02*
X171242875Y-92073969D01*
X171242875Y-92073969D02*
X171195256Y-92169207D01*
X171195256Y-92169207D02*
X171147637Y-92216826D01*
X171147637Y-92216826D02*
X171052399Y-92264445D01*
X171052399Y-92264445D02*
X170671447Y-92264445D01*
X171671447Y-92216826D02*
X172004780Y-92216826D01*
X172147637Y-92740636D02*
X171671447Y-92740636D01*
X171671447Y-92740636D02*
X171671447Y-91740636D01*
X171671447Y-91740636D02*
X172147637Y-91740636D01*
X172576209Y-92740636D02*
X172576209Y-91740636D01*
X172576209Y-91740636D02*
X172814304Y-91740636D01*
X172814304Y-91740636D02*
X172957161Y-91788255D01*
X172957161Y-91788255D02*
X173052399Y-91883493D01*
X173052399Y-91883493D02*
X173100018Y-91978731D01*
X173100018Y-91978731D02*
X173147637Y-92169207D01*
X173147637Y-92169207D02*
X173147637Y-92312064D01*
X173147637Y-92312064D02*
X173100018Y-92502540D01*
X173100018Y-92502540D02*
X173052399Y-92597778D01*
X173052399Y-92597778D02*
X172957161Y-92693017D01*
X172957161Y-92693017D02*
X172814304Y-92740636D01*
X172814304Y-92740636D02*
X172576209Y-92740636D01*
X159577623Y-108829756D02*
X159577623Y-109544041D01*
X159577623Y-109544041D02*
X159530004Y-109686898D01*
X159530004Y-109686898D02*
X159434766Y-109782137D01*
X159434766Y-109782137D02*
X159291909Y-109829756D01*
X159291909Y-109829756D02*
X159196671Y-109829756D01*
X160006195Y-108924994D02*
X160053814Y-108877375D01*
X160053814Y-108877375D02*
X160149052Y-108829756D01*
X160149052Y-108829756D02*
X160387147Y-108829756D01*
X160387147Y-108829756D02*
X160482385Y-108877375D01*
X160482385Y-108877375D02*
X160530004Y-108924994D01*
X160530004Y-108924994D02*
X160577623Y-109020232D01*
X160577623Y-109020232D02*
X160577623Y-109115470D01*
X160577623Y-109115470D02*
X160530004Y-109258327D01*
X160530004Y-109258327D02*
X159958576Y-109829756D01*
X159958576Y-109829756D02*
X160577623Y-109829756D01*
X161758726Y-109829756D02*
X161758726Y-108829756D01*
X161758726Y-108829756D02*
X162092059Y-109544041D01*
X162092059Y-109544041D02*
X162425392Y-108829756D01*
X162425392Y-108829756D02*
X162425392Y-109829756D01*
X163044440Y-109829756D02*
X162949202Y-109782137D01*
X162949202Y-109782137D02*
X162901583Y-109734517D01*
X162901583Y-109734517D02*
X162853964Y-109639279D01*
X162853964Y-109639279D02*
X162853964Y-109353565D01*
X162853964Y-109353565D02*
X162901583Y-109258327D01*
X162901583Y-109258327D02*
X162949202Y-109210708D01*
X162949202Y-109210708D02*
X163044440Y-109163089D01*
X163044440Y-109163089D02*
X163187297Y-109163089D01*
X163187297Y-109163089D02*
X163282535Y-109210708D01*
X163282535Y-109210708D02*
X163330154Y-109258327D01*
X163330154Y-109258327D02*
X163377773Y-109353565D01*
X163377773Y-109353565D02*
X163377773Y-109639279D01*
X163377773Y-109639279D02*
X163330154Y-109734517D01*
X163330154Y-109734517D02*
X163282535Y-109782137D01*
X163282535Y-109782137D02*
X163187297Y-109829756D01*
X163187297Y-109829756D02*
X163044440Y-109829756D01*
X163949202Y-109829756D02*
X163853964Y-109782137D01*
X163853964Y-109782137D02*
X163806345Y-109686898D01*
X163806345Y-109686898D02*
X163806345Y-108829756D01*
X164711107Y-109782137D02*
X164615869Y-109829756D01*
X164615869Y-109829756D02*
X164425393Y-109829756D01*
X164425393Y-109829756D02*
X164330155Y-109782137D01*
X164330155Y-109782137D02*
X164282536Y-109686898D01*
X164282536Y-109686898D02*
X164282536Y-109305946D01*
X164282536Y-109305946D02*
X164330155Y-109210708D01*
X164330155Y-109210708D02*
X164425393Y-109163089D01*
X164425393Y-109163089D02*
X164615869Y-109163089D01*
X164615869Y-109163089D02*
X164711107Y-109210708D01*
X164711107Y-109210708D02*
X164758726Y-109305946D01*
X164758726Y-109305946D02*
X164758726Y-109401184D01*
X164758726Y-109401184D02*
X164282536Y-109496422D01*
X165092060Y-109829756D02*
X165615869Y-109163089D01*
X165092060Y-109163089D02*
X165615869Y-109829756D01*
X166758727Y-109829756D02*
X166758727Y-108829756D01*
X167330155Y-109829756D02*
X166901584Y-109258327D01*
X167330155Y-108829756D02*
X166758727Y-109401184D01*
X167758727Y-109829756D02*
X167758727Y-108829756D01*
X168330155Y-109829756D02*
X167901584Y-109258327D01*
X168330155Y-108829756D02*
X167758727Y-109401184D01*
X168758727Y-109448803D02*
X169520632Y-109448803D01*
X169949203Y-108924994D02*
X169996822Y-108877375D01*
X169996822Y-108877375D02*
X170092060Y-108829756D01*
X170092060Y-108829756D02*
X170330155Y-108829756D01*
X170330155Y-108829756D02*
X170425393Y-108877375D01*
X170425393Y-108877375D02*
X170473012Y-108924994D01*
X170473012Y-108924994D02*
X170520631Y-109020232D01*
X170520631Y-109020232D02*
X170520631Y-109115470D01*
X170520631Y-109115470D02*
X170473012Y-109258327D01*
X170473012Y-109258327D02*
X169901584Y-109829756D01*
X169901584Y-109829756D02*
X170520631Y-109829756D01*
X171425393Y-108829756D02*
X170949203Y-108829756D01*
X170949203Y-108829756D02*
X170901584Y-109305946D01*
X170901584Y-109305946D02*
X170949203Y-109258327D01*
X170949203Y-109258327D02*
X171044441Y-109210708D01*
X171044441Y-109210708D02*
X171282536Y-109210708D01*
X171282536Y-109210708D02*
X171377774Y-109258327D01*
X171377774Y-109258327D02*
X171425393Y-109305946D01*
X171425393Y-109305946D02*
X171473012Y-109401184D01*
X171473012Y-109401184D02*
X171473012Y-109639279D01*
X171473012Y-109639279D02*
X171425393Y-109734517D01*
X171425393Y-109734517D02*
X171377774Y-109782137D01*
X171377774Y-109782137D02*
X171282536Y-109829756D01*
X171282536Y-109829756D02*
X171044441Y-109829756D01*
X171044441Y-109829756D02*
X170949203Y-109782137D01*
X170949203Y-109782137D02*
X170901584Y-109734517D01*
X172330155Y-109163089D02*
X172330155Y-109829756D01*
X172092060Y-108782137D02*
X171853965Y-109496422D01*
X171853965Y-109496422D02*
X172473012Y-109496422D01*
X126083547Y-97087047D02*
X125750214Y-96610856D01*
X125512119Y-97087047D02*
X125512119Y-96087047D01*
X125512119Y-96087047D02*
X125893071Y-96087047D01*
X125893071Y-96087047D02*
X125988309Y-96134666D01*
X125988309Y-96134666D02*
X126035928Y-96182285D01*
X126035928Y-96182285D02*
X126083547Y-96277523D01*
X126083547Y-96277523D02*
X126083547Y-96420380D01*
X126083547Y-96420380D02*
X126035928Y-96515618D01*
X126035928Y-96515618D02*
X125988309Y-96563237D01*
X125988309Y-96563237D02*
X125893071Y-96610856D01*
X125893071Y-96610856D02*
X125512119Y-96610856D01*
X126416881Y-96087047D02*
X127035928Y-96087047D01*
X127035928Y-96087047D02*
X126702595Y-96467999D01*
X126702595Y-96467999D02*
X126845452Y-96467999D01*
X126845452Y-96467999D02*
X126940690Y-96515618D01*
X126940690Y-96515618D02*
X126988309Y-96563237D01*
X126988309Y-96563237D02*
X127035928Y-96658475D01*
X127035928Y-96658475D02*
X127035928Y-96896570D01*
X127035928Y-96896570D02*
X126988309Y-96991808D01*
X126988309Y-96991808D02*
X126940690Y-97039428D01*
X126940690Y-97039428D02*
X126845452Y-97087047D01*
X126845452Y-97087047D02*
X126559738Y-97087047D01*
X126559738Y-97087047D02*
X126464500Y-97039428D01*
X126464500Y-97039428D02*
X126416881Y-96991808D01*
X125508972Y-98694618D02*
X124937544Y-98694618D01*
X125223258Y-98694618D02*
X125223258Y-97694618D01*
X125223258Y-97694618D02*
X125128020Y-97837475D01*
X125128020Y-97837475D02*
X125032782Y-97932713D01*
X125032782Y-97932713D02*
X124937544Y-97980332D01*
X126128020Y-97694618D02*
X126223258Y-97694618D01*
X126223258Y-97694618D02*
X126318496Y-97742237D01*
X126318496Y-97742237D02*
X126366115Y-97789856D01*
X126366115Y-97789856D02*
X126413734Y-97885094D01*
X126413734Y-97885094D02*
X126461353Y-98075570D01*
X126461353Y-98075570D02*
X126461353Y-98313665D01*
X126461353Y-98313665D02*
X126413734Y-98504141D01*
X126413734Y-98504141D02*
X126366115Y-98599379D01*
X126366115Y-98599379D02*
X126318496Y-98646999D01*
X126318496Y-98646999D02*
X126223258Y-98694618D01*
X126223258Y-98694618D02*
X126128020Y-98694618D01*
X126128020Y-98694618D02*
X126032782Y-98646999D01*
X126032782Y-98646999D02*
X125985163Y-98599379D01*
X125985163Y-98599379D02*
X125937544Y-98504141D01*
X125937544Y-98504141D02*
X125889925Y-98313665D01*
X125889925Y-98313665D02*
X125889925Y-98075570D01*
X125889925Y-98075570D02*
X125937544Y-97885094D01*
X125937544Y-97885094D02*
X125985163Y-97789856D01*
X125985163Y-97789856D02*
X126032782Y-97742237D01*
X126032782Y-97742237D02*
X126128020Y-97694618D01*
X126889925Y-98694618D02*
X126889925Y-97694618D01*
X127461353Y-98694618D02*
X127032782Y-98123189D01*
X127461353Y-97694618D02*
X126889925Y-98266046D01*
D14*
X159324771Y-83507944D02*
X165864771Y-83507944D01*
X159324771Y-83837944D02*
X159324771Y-83507944D01*
X159324771Y-85917944D02*
X159324771Y-86247944D01*
X159324771Y-86247944D02*
X165864771Y-86247944D01*
X165864771Y-83507944D02*
X165864771Y-83837944D01*
X165864771Y-86247944D02*
X165864771Y-85917944D01*
X144860613Y-100472944D02*
X144860613Y-107292944D01*
X146010613Y-100472944D02*
X144860613Y-100472944D01*
X146010613Y-107292944D02*
X144860613Y-107292944D01*
X147605613Y-103279611D02*
X146335613Y-103279611D01*
X148550613Y-100472944D02*
X147930613Y-100472944D01*
X148550613Y-107292944D02*
X147930613Y-107292944D01*
X150145613Y-103279611D02*
X148875613Y-103279611D01*
X151010613Y-100472944D02*
X150470613Y-100472944D01*
X151090613Y-107292944D02*
X150470613Y-107292944D01*
X152685613Y-103279611D02*
X151415613Y-103279611D01*
X154160613Y-100472944D02*
X153090613Y-100472944D01*
X154160613Y-100472944D02*
X154160613Y-107292944D01*
X154160613Y-107292944D02*
X153010613Y-107292944D01*
X154400613Y-100232944D02*
X153090613Y-100232944D01*
X154400613Y-100232944D02*
X154400613Y-101615944D01*
X147605613Y-102072944D02*
X146335613Y-102072944D01*
X146335613Y-103279611D01*
X147605613Y-103279611D01*
X147605613Y-102072944D01*
G36*
X147605613Y-102072944D02*
G01*
X146335613Y-102072944D01*
X146335613Y-103279611D01*
X147605613Y-103279611D01*
X147605613Y-102072944D01*
G37*
X147605613Y-102072944D02*
X146335613Y-102072944D01*
X146335613Y-105692944D01*
X147605613Y-105692944D01*
X147605613Y-102072944D01*
X150145613Y-102072944D02*
X148875613Y-102072944D01*
X148875613Y-103279611D01*
X150145613Y-103279611D01*
X150145613Y-102072944D01*
G36*
X150145613Y-102072944D02*
G01*
X148875613Y-102072944D01*
X148875613Y-103279611D01*
X150145613Y-103279611D01*
X150145613Y-102072944D01*
G37*
X150145613Y-102072944D02*
X148875613Y-102072944D01*
X148875613Y-105692944D01*
X150145613Y-105692944D01*
X150145613Y-102072944D01*
X152685613Y-102072944D02*
X151415613Y-102072944D01*
X151415613Y-103279611D01*
X152685613Y-103279611D01*
X152685613Y-102072944D01*
G36*
X152685613Y-102072944D02*
G01*
X151415613Y-102072944D01*
X151415613Y-103279611D01*
X152685613Y-103279611D01*
X152685613Y-102072944D01*
G37*
X152685613Y-102072944D02*
X151415613Y-102072944D01*
X151415613Y-105692944D01*
X152685613Y-105692944D01*
X152685613Y-102072944D01*
X138266514Y-88892944D02*
X138266514Y-87362944D01*
X140106514Y-87362944D02*
X140106514Y-88892944D01*
X135053113Y-86027944D02*
X131453113Y-86027944D01*
X133253113Y-90477944D02*
G75*
G02*
X131414635Y-86039466I0J2600000D01*
G01*
X135091591Y-86039466D02*
G75*
G02*
X133253113Y-90477945I-1838478J-1838478D01*
G01*
X146873113Y-85737944D02*
X146873113Y-96017944D01*
X146873113Y-96017944D02*
X152173113Y-96017944D01*
X148523113Y-85737944D02*
X146873113Y-85737944D01*
X152173113Y-85737944D02*
X150523113Y-85737944D01*
X152173113Y-96017944D02*
X152173113Y-85737944D01*
X144383113Y-85677944D02*
X154663113Y-85677944D01*
X154663113Y-96077944D01*
X144383113Y-96077944D01*
X144383113Y-85677944D01*
X150523113Y-85737944D02*
G75*
G02*
X148523113Y-85737944I-1000000J0D01*
G01*
X178779173Y-85909038D02*
X178779173Y-86929038D01*
X178779173Y-93389038D02*
X178779173Y-92369038D01*
X180249173Y-87709038D02*
X177309173Y-87709038D01*
X180249173Y-87829038D02*
X177309173Y-87829038D01*
X180249173Y-87949038D02*
X177309173Y-87949038D01*
X180249173Y-86929038D02*
X177309173Y-86929038D01*
X177309173Y-92369038D01*
X180249173Y-92369038D01*
X180249173Y-86929038D01*
D15*
X126538113Y-101210944D02*
X126538113Y-106544944D01*
X126538113Y-106544944D02*
X136672713Y-106544944D01*
X136672713Y-101210944D02*
X126538113Y-101210944D01*
X136672713Y-106544944D02*
X136672713Y-101210944D01*
D14*
X132342796Y-92126186D02*
X133872796Y-92126186D01*
X133872796Y-93966186D02*
X132342796Y-93966186D01*
X159472073Y-93367472D02*
X159472073Y-93697472D01*
X159472073Y-96107472D02*
X159472073Y-95777472D01*
X166012073Y-93367472D02*
X159472073Y-93367472D01*
X166012073Y-93697472D02*
X166012073Y-93367472D01*
X166012073Y-95777472D02*
X166012073Y-96107472D01*
X166012073Y-96107472D02*
X159472073Y-96107472D01*
X170040210Y-93343212D02*
X173460210Y-93343212D01*
X170040210Y-93617212D02*
X170040210Y-93343212D01*
X170040210Y-95863212D02*
X170040210Y-95589212D01*
X173220210Y-93523212D02*
X173220210Y-93343212D01*
X173220210Y-95863212D02*
X173220210Y-95683212D01*
X173340210Y-93523212D02*
X173340210Y-93343212D01*
X173340210Y-95863212D02*
X173340210Y-95683212D01*
X173460210Y-93343212D02*
X173460210Y-93523212D01*
X173460210Y-95683212D02*
X173460210Y-95863212D01*
X173460210Y-95863212D02*
X170040210Y-95863212D01*
D15*
X162427221Y-99940944D02*
X162427221Y-107814944D01*
X162427221Y-107814944D02*
X172561821Y-107814944D01*
X172561821Y-99940944D02*
X162427221Y-99940944D01*
X172561821Y-107814944D02*
X172561821Y-99940944D01*
D14*
X130012167Y-96257774D02*
X136552167Y-96257774D01*
X130012167Y-96587774D02*
X130012167Y-96257774D01*
X130012167Y-98667774D02*
X130012167Y-98997774D01*
X130012167Y-98997774D02*
X136552167Y-98997774D01*
X136552167Y-96257774D02*
X136552167Y-96587774D01*
X136552167Y-98997774D02*
X136552167Y-98667774D01*
%LPC*%
D16*
X112987403Y-88699730D03*
D17*
X158784771Y-84877944D03*
X166404771Y-84877944D03*
D18*
X152050613Y-100072944D03*
D17*
X149510613Y-100072944D03*
X146970613Y-100072944D03*
X146970613Y-107692944D03*
X149510613Y-107692944D03*
X152050613Y-107692944D03*
X139186514Y-86877944D03*
X139186514Y-89377944D03*
D19*
X134523113Y-87877944D03*
D20*
X133253113Y-87877944D03*
X131983113Y-87877944D03*
D16*
X187560781Y-113399460D03*
D21*
X145713113Y-87067944D03*
D17*
X145713113Y-89607944D03*
X145713113Y-92147944D03*
X145713113Y-94687944D03*
X153333113Y-94687944D03*
X153333113Y-92147944D03*
X153333113Y-89607944D03*
X153333113Y-87067944D03*
D16*
X187610139Y-88746082D03*
D22*
X178779173Y-84569038D03*
D23*
X178779173Y-94729038D03*
D24*
X139593713Y-102607944D03*
X139593713Y-105147944D03*
D17*
X131857796Y-93046186D03*
X134357796Y-93046186D03*
X166552073Y-94737472D03*
X158932073Y-94737472D03*
D25*
X173020210Y-94603212D03*
D26*
X170480210Y-94603212D03*
D16*
X112998949Y-113440237D03*
D27*
X159506221Y-106417944D03*
X159506221Y-103877944D03*
X159506221Y-101337944D03*
D17*
X129472167Y-97627774D03*
X137092167Y-97627774D03*
%LPD*%
M02*
