%TF.GenerationSoftware,KiCad,Pcbnew,9.0.7*%
%TF.CreationDate,2026-03-08T15:58:10-07:00*%
%TF.ProjectId,dell_psu_spoofer,64656c6c-5f70-4737-955f-73706f6f6665,1.1*%
%TF.SameCoordinates,Original*%
%TF.FileFunction,Legend,Bot*%
%TF.FilePolarity,Positive*%
%FSLAX46Y46*%
G04 Gerber Fmt 4.6, Leading zero omitted, Abs format (unit mm)*
G04 Created by KiCad (PCBNEW 9.0.7) date 2026-03-08 15:58:10*
%MOMM*%
%LPD*%
G01*
G04 APERTURE LIST*
G04 Aperture macros list*
%AMRoundRect*
0 Rectangle with rounded corners*
0 $1 Rounding radius*
0 $2 $3 $4 $5 $6 $7 $8 $9 X,Y pos of 4 corners*
0 Add a 4 corners polygon primitive as box body*
4,1,4,$2,$3,$4,$5,$6,$7,$8,$9,$2,$3,0*
0 Add four circle primitives for the rounded corners*
1,1,$1+$1,$2,$3*
1,1,$1+$1,$4,$5*
1,1,$1+$1,$6,$7*
1,1,$1+$1,$8,$9*
0 Add four rect primitives between the rounded corners*
20,1,$1+$1,$2,$3,$4,$5,0*
20,1,$1+$1,$4,$5,$6,$7,0*
20,1,$1+$1,$6,$7,$8,$9,0*
20,1,$1+$1,$8,$9,$2,$3,0*%
G04 Aperture macros list end*
%ADD10C,3.500000*%
%ADD11C,1.600000*%
%ADD12RoundRect,0.250000X-0.550000X0.550000X-0.550000X-0.550000X0.550000X-0.550000X0.550000X0.550000X0*%
%ADD13R,1.050000X1.500000*%
%ADD14O,1.050000X1.500000*%
%ADD15RoundRect,0.250000X-0.550000X-0.550000X0.550000X-0.550000X0.550000X0.550000X-0.550000X0.550000X0*%
%ADD16RoundRect,0.249999X-0.850001X0.850001X-0.850001X-0.850001X0.850001X-0.850001X0.850001X0.850001X0*%
%ADD17C,2.200000*%
%ADD18C,1.574800*%
%ADD19R,1.800000X1.800000*%
%ADD20C,1.800000*%
%ADD21C,1.778800*%
G04 APERTURE END LIST*
%LPC*%
D10*
X112987403Y-88699730D03*
D11*
X158784771Y-84877944D03*
X166404771Y-84877944D03*
D12*
X152050613Y-100072944D03*
D11*
X149510613Y-100072944D03*
X146970613Y-100072944D03*
X146970613Y-107692944D03*
X149510613Y-107692944D03*
X152050613Y-107692944D03*
X139186514Y-86877944D03*
X139186514Y-89377944D03*
D13*
X134523113Y-87877944D03*
D14*
X133253113Y-87877944D03*
X131983113Y-87877944D03*
D10*
X187560781Y-113399460D03*
D15*
X145713113Y-87067944D03*
D11*
X145713113Y-89607944D03*
X145713113Y-92147944D03*
X145713113Y-94687944D03*
X153333113Y-94687944D03*
X153333113Y-92147944D03*
X153333113Y-89607944D03*
X153333113Y-87067944D03*
D10*
X187610139Y-88746082D03*
D16*
X178779173Y-84569038D03*
D17*
X178779173Y-94729038D03*
D18*
X139593713Y-102607944D03*
X139593713Y-105147944D03*
D11*
X131857796Y-93046186D03*
X134357796Y-93046186D03*
X166552073Y-94737472D03*
X158932073Y-94737472D03*
D19*
X173020210Y-94603212D03*
D20*
X170480210Y-94603212D03*
D10*
X112998949Y-113440237D03*
D21*
X159506221Y-106417944D03*
X159506221Y-103877944D03*
X159506221Y-101337944D03*
D11*
X129472167Y-97627774D03*
X137092167Y-97627774D03*
%LPD*%
M02*
