%TF.GenerationSoftware,KiCad,Pcbnew,9.0.7*%
%TF.CreationDate,2026-03-08T15:57:29-07:00*%
%TF.ProjectId,dell_psu_spoofer,64656c6c-5f70-4737-955f-73706f6f6665,1.1*%
%TF.SameCoordinates,Original*%
%TF.FileFunction,Drillmap*%
%TF.FilePolarity,Positive*%
%FSLAX45Y45*%
G04 Gerber Fmt 4.5, Leading zero omitted, Abs format (unit mm)*
G04 Created by KiCad (PCBNEW 9.0.7) date 2026-03-08 15:57:29*
%MOMM*%
%LPD*%
G01*
G04 APERTURE LIST*
%ADD10C,0.200000*%
%ADD11C,0.350000*%
G04 APERTURE END LIST*
D10*
X19708592Y-8674762D02*
X19295627Y-8674557D01*
X18970192Y-11928734D02*
G75*
G02*
X19307292Y-11595918I335228J-2416D01*
G01*
X10350071Y-11595736D02*
X10350254Y-8669806D01*
X19295627Y-8674557D02*
G75*
G02*
X18965389Y-8347548I-3087J327137D01*
G01*
X11054711Y-12286500D02*
X18970192Y-12287794D01*
X10707333Y-11596892D02*
G75*
G02*
X11049428Y-11929893I4547J-337548D01*
G01*
X11060172Y-7922054D02*
X18968755Y-7921518D01*
X10350254Y-8669806D02*
X10687613Y-8670212D01*
X19307292Y-11595919D02*
X19708808Y-11595919D01*
X11061190Y-8295601D02*
G75*
G02*
X10687613Y-8670212I-372423J-2183D01*
G01*
X11060172Y-7922054D02*
X11061190Y-8295597D01*
X18965390Y-8348342D02*
X18968755Y-7921518D01*
X11054629Y-12286504D02*
X11049425Y-11929639D01*
X18970192Y-12287794D02*
X18970192Y-11928734D01*
X19708808Y-11595919D02*
X19708592Y-8674762D01*
X10350035Y-11595570D02*
X10707333Y-11596892D01*
D11*
X11123740Y-8694973D02*
X11473740Y-9044973D01*
X11473740Y-8694973D02*
X11123740Y-9044973D01*
X11124895Y-11169024D02*
X11474895Y-11519024D01*
X11474895Y-11169024D02*
X11124895Y-11519024D01*
X18581078Y-11164946D02*
X18931078Y-11514946D01*
X18931078Y-11164946D02*
X18581078Y-11514946D01*
X18586014Y-8699608D02*
X18936014Y-9049608D01*
X18936014Y-8699608D02*
X18586014Y-9049608D01*
D10*
X10600811Y-12609278D02*
X10600811Y-12409278D01*
X10600811Y-12409278D02*
X10648430Y-12409278D01*
X10648430Y-12409278D02*
X10677002Y-12418802D01*
X10677002Y-12418802D02*
X10696049Y-12437850D01*
X10696049Y-12437850D02*
X10705573Y-12456897D01*
X10705573Y-12456897D02*
X10715097Y-12494992D01*
X10715097Y-12494992D02*
X10715097Y-12523564D01*
X10715097Y-12523564D02*
X10705573Y-12561659D01*
X10705573Y-12561659D02*
X10696049Y-12580707D01*
X10696049Y-12580707D02*
X10677002Y-12599754D01*
X10677002Y-12599754D02*
X10648430Y-12609278D01*
X10648430Y-12609278D02*
X10600811Y-12609278D01*
X10800811Y-12609278D02*
X10800811Y-12475945D01*
X10800811Y-12514040D02*
X10810335Y-12494992D01*
X10810335Y-12494992D02*
X10819859Y-12485469D01*
X10819859Y-12485469D02*
X10838907Y-12475945D01*
X10838907Y-12475945D02*
X10857954Y-12475945D01*
X10924621Y-12609278D02*
X10924621Y-12475945D01*
X10924621Y-12409278D02*
X10915097Y-12418802D01*
X10915097Y-12418802D02*
X10924621Y-12428326D01*
X10924621Y-12428326D02*
X10934145Y-12418802D01*
X10934145Y-12418802D02*
X10924621Y-12409278D01*
X10924621Y-12409278D02*
X10924621Y-12428326D01*
X11048430Y-12609278D02*
X11029383Y-12599754D01*
X11029383Y-12599754D02*
X11019859Y-12580707D01*
X11019859Y-12580707D02*
X11019859Y-12409278D01*
X11153192Y-12609278D02*
X11134145Y-12599754D01*
X11134145Y-12599754D02*
X11124621Y-12580707D01*
X11124621Y-12580707D02*
X11124621Y-12409278D01*
X11381764Y-12609278D02*
X11381764Y-12409278D01*
X11381764Y-12409278D02*
X11448430Y-12552135D01*
X11448430Y-12552135D02*
X11515097Y-12409278D01*
X11515097Y-12409278D02*
X11515097Y-12609278D01*
X11696049Y-12609278D02*
X11696049Y-12504516D01*
X11696049Y-12504516D02*
X11686526Y-12485469D01*
X11686526Y-12485469D02*
X11667478Y-12475945D01*
X11667478Y-12475945D02*
X11629383Y-12475945D01*
X11629383Y-12475945D02*
X11610335Y-12485469D01*
X11696049Y-12599754D02*
X11677002Y-12609278D01*
X11677002Y-12609278D02*
X11629383Y-12609278D01*
X11629383Y-12609278D02*
X11610335Y-12599754D01*
X11610335Y-12599754D02*
X11600811Y-12580707D01*
X11600811Y-12580707D02*
X11600811Y-12561659D01*
X11600811Y-12561659D02*
X11610335Y-12542611D01*
X11610335Y-12542611D02*
X11629383Y-12533088D01*
X11629383Y-12533088D02*
X11677002Y-12533088D01*
X11677002Y-12533088D02*
X11696049Y-12523564D01*
X11791287Y-12475945D02*
X11791287Y-12675945D01*
X11791287Y-12485469D02*
X11810335Y-12475945D01*
X11810335Y-12475945D02*
X11848430Y-12475945D01*
X11848430Y-12475945D02*
X11867478Y-12485469D01*
X11867478Y-12485469D02*
X11877002Y-12494992D01*
X11877002Y-12494992D02*
X11886526Y-12514040D01*
X11886526Y-12514040D02*
X11886526Y-12571183D01*
X11886526Y-12571183D02*
X11877002Y-12590230D01*
X11877002Y-12590230D02*
X11867478Y-12599754D01*
X11867478Y-12599754D02*
X11848430Y-12609278D01*
X11848430Y-12609278D02*
X11810335Y-12609278D01*
X11810335Y-12609278D02*
X11791287Y-12599754D01*
X11972240Y-12590230D02*
X11981764Y-12599754D01*
X11981764Y-12599754D02*
X11972240Y-12609278D01*
X11972240Y-12609278D02*
X11962716Y-12599754D01*
X11962716Y-12599754D02*
X11972240Y-12590230D01*
X11972240Y-12590230D02*
X11972240Y-12609278D01*
X11972240Y-12485469D02*
X11981764Y-12494992D01*
X11981764Y-12494992D02*
X11972240Y-12504516D01*
X11972240Y-12504516D02*
X11962716Y-12494992D01*
X11962716Y-12494992D02*
X11972240Y-12485469D01*
X11972240Y-12485469D02*
X11972240Y-12504516D01*
X10140035Y-12837794D02*
X10340035Y-13037794D01*
X10340035Y-12837794D02*
X10140035Y-13037794D01*
X10581764Y-12829278D02*
X10705573Y-12829278D01*
X10705573Y-12829278D02*
X10638907Y-12905469D01*
X10638907Y-12905469D02*
X10667478Y-12905469D01*
X10667478Y-12905469D02*
X10686526Y-12914992D01*
X10686526Y-12914992D02*
X10696049Y-12924516D01*
X10696049Y-12924516D02*
X10705573Y-12943564D01*
X10705573Y-12943564D02*
X10705573Y-12991183D01*
X10705573Y-12991183D02*
X10696049Y-13010230D01*
X10696049Y-13010230D02*
X10686526Y-13019754D01*
X10686526Y-13019754D02*
X10667478Y-13029278D01*
X10667478Y-13029278D02*
X10610335Y-13029278D01*
X10610335Y-13029278D02*
X10591288Y-13019754D01*
X10591288Y-13019754D02*
X10581764Y-13010230D01*
X10791288Y-13010230D02*
X10800811Y-13019754D01*
X10800811Y-13019754D02*
X10791288Y-13029278D01*
X10791288Y-13029278D02*
X10781764Y-13019754D01*
X10781764Y-13019754D02*
X10791288Y-13010230D01*
X10791288Y-13010230D02*
X10791288Y-13029278D01*
X10981764Y-12829278D02*
X10886526Y-12829278D01*
X10886526Y-12829278D02*
X10877002Y-12924516D01*
X10877002Y-12924516D02*
X10886526Y-12914992D01*
X10886526Y-12914992D02*
X10905573Y-12905469D01*
X10905573Y-12905469D02*
X10953192Y-12905469D01*
X10953192Y-12905469D02*
X10972240Y-12914992D01*
X10972240Y-12914992D02*
X10981764Y-12924516D01*
X10981764Y-12924516D02*
X10991288Y-12943564D01*
X10991288Y-12943564D02*
X10991288Y-12991183D01*
X10991288Y-12991183D02*
X10981764Y-13010230D01*
X10981764Y-13010230D02*
X10972240Y-13019754D01*
X10972240Y-13019754D02*
X10953192Y-13029278D01*
X10953192Y-13029278D02*
X10905573Y-13029278D01*
X10905573Y-13029278D02*
X10886526Y-13019754D01*
X10886526Y-13019754D02*
X10877002Y-13010230D01*
X11115097Y-12829278D02*
X11134145Y-12829278D01*
X11134145Y-12829278D02*
X11153192Y-12838802D01*
X11153192Y-12838802D02*
X11162716Y-12848326D01*
X11162716Y-12848326D02*
X11172240Y-12867373D01*
X11172240Y-12867373D02*
X11181764Y-12905469D01*
X11181764Y-12905469D02*
X11181764Y-12953088D01*
X11181764Y-12953088D02*
X11172240Y-12991183D01*
X11172240Y-12991183D02*
X11162716Y-13010230D01*
X11162716Y-13010230D02*
X11153192Y-13019754D01*
X11153192Y-13019754D02*
X11134145Y-13029278D01*
X11134145Y-13029278D02*
X11115097Y-13029278D01*
X11115097Y-13029278D02*
X11096049Y-13019754D01*
X11096049Y-13019754D02*
X11086526Y-13010230D01*
X11086526Y-13010230D02*
X11077002Y-12991183D01*
X11077002Y-12991183D02*
X11067478Y-12953088D01*
X11067478Y-12953088D02*
X11067478Y-12905469D01*
X11067478Y-12905469D02*
X11077002Y-12867373D01*
X11077002Y-12867373D02*
X11086526Y-12848326D01*
X11086526Y-12848326D02*
X11096049Y-12838802D01*
X11096049Y-12838802D02*
X11115097Y-12829278D01*
X11305573Y-12829278D02*
X11324621Y-12829278D01*
X11324621Y-12829278D02*
X11343668Y-12838802D01*
X11343668Y-12838802D02*
X11353192Y-12848326D01*
X11353192Y-12848326D02*
X11362716Y-12867373D01*
X11362716Y-12867373D02*
X11372240Y-12905469D01*
X11372240Y-12905469D02*
X11372240Y-12953088D01*
X11372240Y-12953088D02*
X11362716Y-12991183D01*
X11362716Y-12991183D02*
X11353192Y-13010230D01*
X11353192Y-13010230D02*
X11343668Y-13019754D01*
X11343668Y-13019754D02*
X11324621Y-13029278D01*
X11324621Y-13029278D02*
X11305573Y-13029278D01*
X11305573Y-13029278D02*
X11286526Y-13019754D01*
X11286526Y-13019754D02*
X11277002Y-13010230D01*
X11277002Y-13010230D02*
X11267478Y-12991183D01*
X11267478Y-12991183D02*
X11257954Y-12953088D01*
X11257954Y-12953088D02*
X11257954Y-12905469D01*
X11257954Y-12905469D02*
X11267478Y-12867373D01*
X11267478Y-12867373D02*
X11277002Y-12848326D01*
X11277002Y-12848326D02*
X11286526Y-12838802D01*
X11286526Y-12838802D02*
X11305573Y-12829278D01*
X11457954Y-13029278D02*
X11457954Y-12895945D01*
X11457954Y-12914992D02*
X11467478Y-12905469D01*
X11467478Y-12905469D02*
X11486526Y-12895945D01*
X11486526Y-12895945D02*
X11515097Y-12895945D01*
X11515097Y-12895945D02*
X11534145Y-12905469D01*
X11534145Y-12905469D02*
X11543668Y-12924516D01*
X11543668Y-12924516D02*
X11543668Y-13029278D01*
X11543668Y-12924516D02*
X11553192Y-12905469D01*
X11553192Y-12905469D02*
X11572240Y-12895945D01*
X11572240Y-12895945D02*
X11600811Y-12895945D01*
X11600811Y-12895945D02*
X11619859Y-12905469D01*
X11619859Y-12905469D02*
X11629383Y-12924516D01*
X11629383Y-12924516D02*
X11629383Y-13029278D01*
X11724621Y-13029278D02*
X11724621Y-12895945D01*
X11724621Y-12914992D02*
X11734145Y-12905469D01*
X11734145Y-12905469D02*
X11753192Y-12895945D01*
X11753192Y-12895945D02*
X11781764Y-12895945D01*
X11781764Y-12895945D02*
X11800811Y-12905469D01*
X11800811Y-12905469D02*
X11810335Y-12924516D01*
X11810335Y-12924516D02*
X11810335Y-13029278D01*
X11810335Y-12924516D02*
X11819859Y-12905469D01*
X11819859Y-12905469D02*
X11838907Y-12895945D01*
X11838907Y-12895945D02*
X11867478Y-12895945D01*
X11867478Y-12895945D02*
X11886526Y-12905469D01*
X11886526Y-12905469D02*
X11896049Y-12924516D01*
X11896049Y-12924516D02*
X11896049Y-13029278D01*
X12286526Y-12819754D02*
X12115097Y-13076897D01*
X12543669Y-12829278D02*
X12562716Y-12829278D01*
X12562716Y-12829278D02*
X12581764Y-12838802D01*
X12581764Y-12838802D02*
X12591288Y-12848326D01*
X12591288Y-12848326D02*
X12600811Y-12867373D01*
X12600811Y-12867373D02*
X12610335Y-12905469D01*
X12610335Y-12905469D02*
X12610335Y-12953088D01*
X12610335Y-12953088D02*
X12600811Y-12991183D01*
X12600811Y-12991183D02*
X12591288Y-13010230D01*
X12591288Y-13010230D02*
X12581764Y-13019754D01*
X12581764Y-13019754D02*
X12562716Y-13029278D01*
X12562716Y-13029278D02*
X12543669Y-13029278D01*
X12543669Y-13029278D02*
X12524621Y-13019754D01*
X12524621Y-13019754D02*
X12515097Y-13010230D01*
X12515097Y-13010230D02*
X12505573Y-12991183D01*
X12505573Y-12991183D02*
X12496050Y-12953088D01*
X12496050Y-12953088D02*
X12496050Y-12905469D01*
X12496050Y-12905469D02*
X12505573Y-12867373D01*
X12505573Y-12867373D02*
X12515097Y-12848326D01*
X12515097Y-12848326D02*
X12524621Y-12838802D01*
X12524621Y-12838802D02*
X12543669Y-12829278D01*
X12696050Y-13010230D02*
X12705573Y-13019754D01*
X12705573Y-13019754D02*
X12696050Y-13029278D01*
X12696050Y-13029278D02*
X12686526Y-13019754D01*
X12686526Y-13019754D02*
X12696050Y-13010230D01*
X12696050Y-13010230D02*
X12696050Y-13029278D01*
X12896050Y-13029278D02*
X12781764Y-13029278D01*
X12838907Y-13029278D02*
X12838907Y-12829278D01*
X12838907Y-12829278D02*
X12819859Y-12857850D01*
X12819859Y-12857850D02*
X12800811Y-12876897D01*
X12800811Y-12876897D02*
X12781764Y-12886421D01*
X12962716Y-12829278D02*
X13086526Y-12829278D01*
X13086526Y-12829278D02*
X13019859Y-12905469D01*
X13019859Y-12905469D02*
X13048431Y-12905469D01*
X13048431Y-12905469D02*
X13067478Y-12914992D01*
X13067478Y-12914992D02*
X13077002Y-12924516D01*
X13077002Y-12924516D02*
X13086526Y-12943564D01*
X13086526Y-12943564D02*
X13086526Y-12991183D01*
X13086526Y-12991183D02*
X13077002Y-13010230D01*
X13077002Y-13010230D02*
X13067478Y-13019754D01*
X13067478Y-13019754D02*
X13048431Y-13029278D01*
X13048431Y-13029278D02*
X12991288Y-13029278D01*
X12991288Y-13029278D02*
X12972240Y-13019754D01*
X12972240Y-13019754D02*
X12962716Y-13010230D01*
X13153192Y-12829278D02*
X13286526Y-12829278D01*
X13286526Y-12829278D02*
X13200811Y-13029278D01*
X13391288Y-12914992D02*
X13372240Y-12905469D01*
X13372240Y-12905469D02*
X13362716Y-12895945D01*
X13362716Y-12895945D02*
X13353192Y-12876897D01*
X13353192Y-12876897D02*
X13353192Y-12867373D01*
X13353192Y-12867373D02*
X13362716Y-12848326D01*
X13362716Y-12848326D02*
X13372240Y-12838802D01*
X13372240Y-12838802D02*
X13391288Y-12829278D01*
X13391288Y-12829278D02*
X13429383Y-12829278D01*
X13429383Y-12829278D02*
X13448431Y-12838802D01*
X13448431Y-12838802D02*
X13457954Y-12848326D01*
X13457954Y-12848326D02*
X13467478Y-12867373D01*
X13467478Y-12867373D02*
X13467478Y-12876897D01*
X13467478Y-12876897D02*
X13457954Y-12895945D01*
X13457954Y-12895945D02*
X13448431Y-12905469D01*
X13448431Y-12905469D02*
X13429383Y-12914992D01*
X13429383Y-12914992D02*
X13391288Y-12914992D01*
X13391288Y-12914992D02*
X13372240Y-12924516D01*
X13372240Y-12924516D02*
X13362716Y-12934040D01*
X13362716Y-12934040D02*
X13353192Y-12953088D01*
X13353192Y-12953088D02*
X13353192Y-12991183D01*
X13353192Y-12991183D02*
X13362716Y-13010230D01*
X13362716Y-13010230D02*
X13372240Y-13019754D01*
X13372240Y-13019754D02*
X13391288Y-13029278D01*
X13391288Y-13029278D02*
X13429383Y-13029278D01*
X13429383Y-13029278D02*
X13448431Y-13019754D01*
X13448431Y-13019754D02*
X13457954Y-13010230D01*
X13457954Y-13010230D02*
X13467478Y-12991183D01*
X13467478Y-12991183D02*
X13467478Y-12953088D01*
X13467478Y-12953088D02*
X13457954Y-12934040D01*
X13457954Y-12934040D02*
X13448431Y-12924516D01*
X13448431Y-12924516D02*
X13429383Y-12914992D01*
X13543669Y-12829278D02*
X13543669Y-12867373D01*
X13619859Y-12829278D02*
X13619859Y-12867373D01*
X13915097Y-13105469D02*
X13905573Y-13095945D01*
X13905573Y-13095945D02*
X13886526Y-13067373D01*
X13886526Y-13067373D02*
X13877002Y-13048326D01*
X13877002Y-13048326D02*
X13867478Y-13019754D01*
X13867478Y-13019754D02*
X13857954Y-12972135D01*
X13857954Y-12972135D02*
X13857954Y-12934040D01*
X13857954Y-12934040D02*
X13867478Y-12886421D01*
X13867478Y-12886421D02*
X13877002Y-12857850D01*
X13877002Y-12857850D02*
X13886526Y-12838802D01*
X13886526Y-12838802D02*
X13905573Y-12810230D01*
X13905573Y-12810230D02*
X13915097Y-12800707D01*
X14077002Y-12895945D02*
X14077002Y-13029278D01*
X14029383Y-12819754D02*
X13981764Y-12962611D01*
X13981764Y-12962611D02*
X14105573Y-12962611D01*
X14334145Y-13029278D02*
X14334145Y-12829278D01*
X14419859Y-13029278D02*
X14419859Y-12924516D01*
X14419859Y-12924516D02*
X14410335Y-12905469D01*
X14410335Y-12905469D02*
X14391288Y-12895945D01*
X14391288Y-12895945D02*
X14362716Y-12895945D01*
X14362716Y-12895945D02*
X14343669Y-12905469D01*
X14343669Y-12905469D02*
X14334145Y-12914992D01*
X14543669Y-13029278D02*
X14524621Y-13019754D01*
X14524621Y-13019754D02*
X14515097Y-13010230D01*
X14515097Y-13010230D02*
X14505574Y-12991183D01*
X14505574Y-12991183D02*
X14505574Y-12934040D01*
X14505574Y-12934040D02*
X14515097Y-12914992D01*
X14515097Y-12914992D02*
X14524621Y-12905469D01*
X14524621Y-12905469D02*
X14543669Y-12895945D01*
X14543669Y-12895945D02*
X14572240Y-12895945D01*
X14572240Y-12895945D02*
X14591288Y-12905469D01*
X14591288Y-12905469D02*
X14600812Y-12914992D01*
X14600812Y-12914992D02*
X14610335Y-12934040D01*
X14610335Y-12934040D02*
X14610335Y-12991183D01*
X14610335Y-12991183D02*
X14600812Y-13010230D01*
X14600812Y-13010230D02*
X14591288Y-13019754D01*
X14591288Y-13019754D02*
X14572240Y-13029278D01*
X14572240Y-13029278D02*
X14543669Y-13029278D01*
X14724621Y-13029278D02*
X14705574Y-13019754D01*
X14705574Y-13019754D02*
X14696050Y-13000707D01*
X14696050Y-13000707D02*
X14696050Y-12829278D01*
X14877002Y-13019754D02*
X14857955Y-13029278D01*
X14857955Y-13029278D02*
X14819859Y-13029278D01*
X14819859Y-13029278D02*
X14800812Y-13019754D01*
X14800812Y-13019754D02*
X14791288Y-13000707D01*
X14791288Y-13000707D02*
X14791288Y-12924516D01*
X14791288Y-12924516D02*
X14800812Y-12905469D01*
X14800812Y-12905469D02*
X14819859Y-12895945D01*
X14819859Y-12895945D02*
X14857955Y-12895945D01*
X14857955Y-12895945D02*
X14877002Y-12905469D01*
X14877002Y-12905469D02*
X14886526Y-12924516D01*
X14886526Y-12924516D02*
X14886526Y-12943564D01*
X14886526Y-12943564D02*
X14791288Y-12962611D01*
X14962716Y-13019754D02*
X14981764Y-13029278D01*
X14981764Y-13029278D02*
X15019859Y-13029278D01*
X15019859Y-13029278D02*
X15038907Y-13019754D01*
X15038907Y-13019754D02*
X15048431Y-13000707D01*
X15048431Y-13000707D02*
X15048431Y-12991183D01*
X15048431Y-12991183D02*
X15038907Y-12972135D01*
X15038907Y-12972135D02*
X15019859Y-12962611D01*
X15019859Y-12962611D02*
X14991288Y-12962611D01*
X14991288Y-12962611D02*
X14972240Y-12953088D01*
X14972240Y-12953088D02*
X14962716Y-12934040D01*
X14962716Y-12934040D02*
X14962716Y-12924516D01*
X14962716Y-12924516D02*
X14972240Y-12905469D01*
X14972240Y-12905469D02*
X14991288Y-12895945D01*
X14991288Y-12895945D02*
X15019859Y-12895945D01*
X15019859Y-12895945D02*
X15038907Y-12905469D01*
X15115097Y-13105469D02*
X15124621Y-13095945D01*
X15124621Y-13095945D02*
X15143669Y-13067373D01*
X15143669Y-13067373D02*
X15153193Y-13048326D01*
X15153193Y-13048326D02*
X15162716Y-13019754D01*
X15162716Y-13019754D02*
X15172240Y-12972135D01*
X15172240Y-12972135D02*
X15172240Y-12934040D01*
X15172240Y-12934040D02*
X15162716Y-12886421D01*
X15162716Y-12886421D02*
X15153193Y-12857850D01*
X15153193Y-12857850D02*
X15143669Y-12838802D01*
X15143669Y-12838802D02*
X15124621Y-12810230D01*
X15124621Y-12810230D02*
X15115097Y-12800707D01*
X15477002Y-13105469D02*
X15467478Y-13095945D01*
X15467478Y-13095945D02*
X15448431Y-13067373D01*
X15448431Y-13067373D02*
X15438907Y-13048326D01*
X15438907Y-13048326D02*
X15429383Y-13019754D01*
X15429383Y-13019754D02*
X15419859Y-12972135D01*
X15419859Y-12972135D02*
X15419859Y-12934040D01*
X15419859Y-12934040D02*
X15429383Y-12886421D01*
X15429383Y-12886421D02*
X15438907Y-12857850D01*
X15438907Y-12857850D02*
X15448431Y-12838802D01*
X15448431Y-12838802D02*
X15467478Y-12810230D01*
X15467478Y-12810230D02*
X15477002Y-12800707D01*
X15553193Y-12895945D02*
X15553193Y-13029278D01*
X15553193Y-12914992D02*
X15562716Y-12905469D01*
X15562716Y-12905469D02*
X15581764Y-12895945D01*
X15581764Y-12895945D02*
X15610336Y-12895945D01*
X15610336Y-12895945D02*
X15629383Y-12905469D01*
X15629383Y-12905469D02*
X15638907Y-12924516D01*
X15638907Y-12924516D02*
X15638907Y-13029278D01*
X15762716Y-13029278D02*
X15743669Y-13019754D01*
X15743669Y-13019754D02*
X15734145Y-13010230D01*
X15734145Y-13010230D02*
X15724621Y-12991183D01*
X15724621Y-12991183D02*
X15724621Y-12934040D01*
X15724621Y-12934040D02*
X15734145Y-12914992D01*
X15734145Y-12914992D02*
X15743669Y-12905469D01*
X15743669Y-12905469D02*
X15762716Y-12895945D01*
X15762716Y-12895945D02*
X15791288Y-12895945D01*
X15791288Y-12895945D02*
X15810336Y-12905469D01*
X15810336Y-12905469D02*
X15819859Y-12914992D01*
X15819859Y-12914992D02*
X15829383Y-12934040D01*
X15829383Y-12934040D02*
X15829383Y-12991183D01*
X15829383Y-12991183D02*
X15819859Y-13010230D01*
X15819859Y-13010230D02*
X15810336Y-13019754D01*
X15810336Y-13019754D02*
X15791288Y-13029278D01*
X15791288Y-13029278D02*
X15762716Y-13029278D01*
X15886526Y-12895945D02*
X15962716Y-12895945D01*
X15915097Y-12829278D02*
X15915097Y-13000707D01*
X15915097Y-13000707D02*
X15924621Y-13019754D01*
X15924621Y-13019754D02*
X15943669Y-13029278D01*
X15943669Y-13029278D02*
X15962716Y-13029278D01*
X16181764Y-12895945D02*
X16181764Y-13095945D01*
X16181764Y-12905469D02*
X16200812Y-12895945D01*
X16200812Y-12895945D02*
X16238907Y-12895945D01*
X16238907Y-12895945D02*
X16257955Y-12905469D01*
X16257955Y-12905469D02*
X16267478Y-12914992D01*
X16267478Y-12914992D02*
X16277002Y-12934040D01*
X16277002Y-12934040D02*
X16277002Y-12991183D01*
X16277002Y-12991183D02*
X16267478Y-13010230D01*
X16267478Y-13010230D02*
X16257955Y-13019754D01*
X16257955Y-13019754D02*
X16238907Y-13029278D01*
X16238907Y-13029278D02*
X16200812Y-13029278D01*
X16200812Y-13029278D02*
X16181764Y-13019754D01*
X16391288Y-13029278D02*
X16372240Y-13019754D01*
X16372240Y-13019754D02*
X16362717Y-13000707D01*
X16362717Y-13000707D02*
X16362717Y-12829278D01*
X16553193Y-13029278D02*
X16553193Y-12924516D01*
X16553193Y-12924516D02*
X16543669Y-12905469D01*
X16543669Y-12905469D02*
X16524621Y-12895945D01*
X16524621Y-12895945D02*
X16486526Y-12895945D01*
X16486526Y-12895945D02*
X16467478Y-12905469D01*
X16553193Y-13019754D02*
X16534145Y-13029278D01*
X16534145Y-13029278D02*
X16486526Y-13029278D01*
X16486526Y-13029278D02*
X16467478Y-13019754D01*
X16467478Y-13019754D02*
X16457955Y-13000707D01*
X16457955Y-13000707D02*
X16457955Y-12981659D01*
X16457955Y-12981659D02*
X16467478Y-12962611D01*
X16467478Y-12962611D02*
X16486526Y-12953088D01*
X16486526Y-12953088D02*
X16534145Y-12953088D01*
X16534145Y-12953088D02*
X16553193Y-12943564D01*
X16619859Y-12895945D02*
X16696050Y-12895945D01*
X16648431Y-12829278D02*
X16648431Y-13000707D01*
X16648431Y-13000707D02*
X16657955Y-13019754D01*
X16657955Y-13019754D02*
X16677002Y-13029278D01*
X16677002Y-13029278D02*
X16696050Y-13029278D01*
X16838907Y-13019754D02*
X16819860Y-13029278D01*
X16819860Y-13029278D02*
X16781764Y-13029278D01*
X16781764Y-13029278D02*
X16762717Y-13019754D01*
X16762717Y-13019754D02*
X16753193Y-13000707D01*
X16753193Y-13000707D02*
X16753193Y-12924516D01*
X16753193Y-12924516D02*
X16762717Y-12905469D01*
X16762717Y-12905469D02*
X16781764Y-12895945D01*
X16781764Y-12895945D02*
X16819860Y-12895945D01*
X16819860Y-12895945D02*
X16838907Y-12905469D01*
X16838907Y-12905469D02*
X16848431Y-12924516D01*
X16848431Y-12924516D02*
X16848431Y-12943564D01*
X16848431Y-12943564D02*
X16753193Y-12962611D01*
X17019860Y-13029278D02*
X17019860Y-12829278D01*
X17019860Y-13019754D02*
X17000812Y-13029278D01*
X17000812Y-13029278D02*
X16962717Y-13029278D01*
X16962717Y-13029278D02*
X16943669Y-13019754D01*
X16943669Y-13019754D02*
X16934145Y-13010230D01*
X16934145Y-13010230D02*
X16924621Y-12991183D01*
X16924621Y-12991183D02*
X16924621Y-12934040D01*
X16924621Y-12934040D02*
X16934145Y-12914992D01*
X16934145Y-12914992D02*
X16943669Y-12905469D01*
X16943669Y-12905469D02*
X16962717Y-12895945D01*
X16962717Y-12895945D02*
X17000812Y-12895945D01*
X17000812Y-12895945D02*
X17019860Y-12905469D01*
X17096050Y-13105469D02*
X17105574Y-13095945D01*
X17105574Y-13095945D02*
X17124621Y-13067373D01*
X17124621Y-13067373D02*
X17134145Y-13048326D01*
X17134145Y-13048326D02*
X17143669Y-13019754D01*
X17143669Y-13019754D02*
X17153193Y-12972135D01*
X17153193Y-12972135D02*
X17153193Y-12934040D01*
X17153193Y-12934040D02*
X17143669Y-12886421D01*
X17143669Y-12886421D02*
X17134145Y-12857850D01*
X17134145Y-12857850D02*
X17124621Y-12838802D01*
X17124621Y-12838802D02*
X17105574Y-12810230D01*
X17105574Y-12810230D02*
X17096050Y-12800707D01*
M02*
