%TF.GenerationSoftware,KiCad,Pcbnew,9.0.7*%
%TF.CreationDate,2026-03-08T15:58:10-07:00*%
%TF.ProjectId,dell_psu_spoofer,64656c6c-5f70-4737-955f-73706f6f6665,1.1*%
%TF.SameCoordinates,Original*%
%TF.FileFunction,Copper,L1,Top*%
%TF.FilePolarity,Positive*%
%FSLAX46Y46*%
G04 Gerber Fmt 4.6, Leading zero omitted, Abs format (unit mm)*
G04 Created by KiCad (PCBNEW 9.0.7) date 2026-03-08 15:58:10*
%MOMM*%
%LPD*%
G01*
G04 APERTURE LIST*
G04 Aperture macros list*
%AMRoundRect*
0 Rectangle with rounded corners*
0 $1 Rounding radius*
0 $2 $3 $4 $5 $6 $7 $8 $9 X,Y pos of 4 corners*
0 Add a 4 corners polygon primitive as box body*
4,1,4,$2,$3,$4,$5,$6,$7,$8,$9,$2,$3,0*
0 Add four circle primitives for the rounded corners*
1,1,$1+$1,$2,$3*
1,1,$1+$1,$4,$5*
1,1,$1+$1,$6,$7*
1,1,$1+$1,$8,$9*
0 Add four rect primitives between the rounded corners*
20,1,$1+$1,$2,$3,$4,$5,0*
20,1,$1+$1,$4,$5,$6,$7,0*
20,1,$1+$1,$6,$7,$8,$9,0*
20,1,$1+$1,$8,$9,$2,$3,0*%
G04 Aperture macros list end*
%TA.AperFunction,ComponentPad*%
%ADD10C,1.600000*%
%TD*%
%TA.AperFunction,ComponentPad*%
%ADD11RoundRect,0.250000X-0.550000X0.550000X-0.550000X-0.550000X0.550000X-0.550000X0.550000X0.550000X0*%
%TD*%
%TA.AperFunction,ComponentPad*%
%ADD12R,1.050000X1.500000*%
%TD*%
%TA.AperFunction,ComponentPad*%
%ADD13O,1.050000X1.500000*%
%TD*%
%TA.AperFunction,ComponentPad*%
%ADD14RoundRect,0.250000X-0.550000X-0.550000X0.550000X-0.550000X0.550000X0.550000X-0.550000X0.550000X0*%
%TD*%
%TA.AperFunction,ComponentPad*%
%ADD15RoundRect,0.249999X-0.850001X0.850001X-0.850001X-0.850001X0.850001X-0.850001X0.850001X0.850001X0*%
%TD*%
%TA.AperFunction,ComponentPad*%
%ADD16C,2.200000*%
%TD*%
%TA.AperFunction,ComponentPad*%
%ADD17C,1.574800*%
%TD*%
%TA.AperFunction,ComponentPad*%
%ADD18R,1.800000X1.800000*%
%TD*%
%TA.AperFunction,ComponentPad*%
%ADD19C,1.800000*%
%TD*%
%TA.AperFunction,Conductor*%
%ADD20C,0.400000*%
%TD*%
%TA.AperFunction,Conductor*%
%ADD21C,0.800000*%
%TD*%
G04 APERTURE END LIST*
D10*
X158784771Y-84877944D03*
X166404771Y-84877944D03*
D11*
X152050613Y-100072944D03*
D10*
X149510613Y-100072944D03*
X146970613Y-100072944D03*
X146970613Y-107692944D03*
X149510613Y-107692944D03*
X152050613Y-107692944D03*
X139186514Y-86877944D03*
X139186514Y-89377944D03*
D12*
X134523113Y-87877944D03*
D13*
X133253113Y-87877944D03*
X131983113Y-87877944D03*
D14*
X145713113Y-87067944D03*
D10*
X145713113Y-89607944D03*
X145713113Y-92147944D03*
X145713113Y-94687944D03*
X153333113Y-94687944D03*
X153333113Y-92147944D03*
X153333113Y-89607944D03*
X153333113Y-87067944D03*
D15*
X178779173Y-84569038D03*
D16*
X178779173Y-94729038D03*
D17*
X139593713Y-102607944D03*
X139593713Y-105147944D03*
D10*
X131857796Y-93046186D03*
X134357796Y-93046186D03*
X166552073Y-94737472D03*
X158932073Y-94737472D03*
D18*
X173020210Y-94603212D03*
D19*
X170480210Y-94603212D03*
D17*
X159506221Y-106417944D03*
X159506221Y-103877944D03*
X159506221Y-101337944D03*
D10*
X129472167Y-97627774D03*
X137092167Y-97627774D03*
D20*
X137523113Y-87877944D02*
X138523113Y-86877944D01*
X129472167Y-97627774D02*
X129472167Y-86835551D01*
X134523113Y-87877944D02*
X137523113Y-87877944D01*
X139017184Y-85217076D02*
X139017184Y-86938267D01*
X139186514Y-86877944D02*
X141186514Y-84877944D01*
X129472167Y-86835551D02*
X132290947Y-84016771D01*
X141534113Y-84877944D02*
X151523113Y-84877944D01*
X137816879Y-84016771D02*
X139017184Y-85217076D01*
X151523113Y-84877944D02*
X153523113Y-86877944D01*
X141186514Y-84877944D02*
X141534113Y-84877944D01*
X132290947Y-84016771D02*
X137816879Y-84016771D01*
X166552073Y-94737472D02*
X170382641Y-94737472D01*
X170382641Y-94737472D02*
X170523113Y-94877944D01*
X155523113Y-88877944D02*
X158523113Y-85877944D01*
X153333113Y-89607944D02*
X154793113Y-89607944D01*
X158523113Y-85877944D02*
X158523113Y-84877944D01*
X154793113Y-89607944D02*
X155523113Y-88877944D01*
X148226310Y-92147944D02*
X149501011Y-93422645D01*
X145713113Y-92147944D02*
X148226310Y-92147944D01*
X149501011Y-99999588D02*
X149591260Y-100089837D01*
X149501011Y-93422645D02*
X149501011Y-99999588D01*
X145713113Y-89607944D02*
X143506706Y-89607944D01*
X143506706Y-89607944D02*
X142763361Y-90351289D01*
X144108594Y-99909338D02*
X146849928Y-99909338D01*
X142763361Y-98564105D02*
X144108594Y-99909338D01*
X142763361Y-90351289D02*
X142763361Y-98564105D01*
X132023113Y-87917944D02*
X132023113Y-95894405D01*
D21*
X155635007Y-102607944D02*
X159523113Y-106496050D01*
D20*
X132023113Y-102377944D02*
X132523113Y-102877944D01*
D21*
X159523113Y-106496050D02*
X159523113Y-106877944D01*
D20*
X132023113Y-95877944D02*
X132023113Y-102377944D01*
X131983113Y-87877944D02*
X132023113Y-87917944D01*
D21*
X139523113Y-102607944D02*
X155635007Y-102607944D01*
D20*
X139023113Y-102877944D02*
X139523113Y-102877944D01*
X132523113Y-102877944D02*
X139523113Y-102877944D01*
X158333113Y-94687944D02*
X158523113Y-94877944D01*
X153333113Y-94687944D02*
X158333113Y-94687944D01*
X166404771Y-84877944D02*
X164523113Y-84877944D01*
X164523113Y-84877944D02*
X162523113Y-86877944D01*
X162523113Y-100877944D02*
X159523113Y-103877944D01*
X166404771Y-84877944D02*
X178523113Y-84877944D01*
X162523113Y-86877944D02*
X162523113Y-100877944D01*
X150809630Y-93354958D02*
X150809630Y-98871466D01*
X153333113Y-92147944D02*
X152016644Y-92147944D01*
X152115841Y-100000366D02*
X152133712Y-100018237D01*
X150809630Y-98871466D02*
X151982876Y-100044712D01*
X152016644Y-92147944D02*
X150809630Y-93354958D01*
X140853291Y-97635322D02*
X137258246Y-97635322D01*
X145713113Y-87067944D02*
X143433735Y-87067944D01*
X137258246Y-97635322D02*
X137250698Y-97627774D01*
X141687044Y-96801569D02*
X140853291Y-97635322D01*
X143433735Y-87067944D02*
X141687044Y-88814635D01*
X141687044Y-88814635D02*
X141687044Y-96801569D01*
M02*
